<?xml version="1.0" encoding="UTF-8"?>
<!DOCTYPE svg PUBLIC "-//W3C//DTD SVG 1.1//EN" "http://www.w3.org/Graphics/SVG/1.1/DTD/svg11.dtd">
<!-- Creator: CorelDRAW 2021 (64-Bit) -->
<svg xmlns="http://www.w3.org/2000/svg" xml:space="preserve" version="1.1" style="shape-rendering:geometricPrecision; text-rendering:geometricPrecision; image-rendering:optimizeQuality; fill-rule:evenodd; clip-rule:evenodd"
viewBox="0 0 7059.24 10285.71"
 xmlns:xlink="http://www.w3.org/1999/xlink"
 xmlns:xodm="http://www.corel.com/coreldraw/odm/2003">
 <defs>
  <style type="text/css">
   <![CDATA[
    .fil0 {fill:#636363}
    .fil3 {fill:black;fill-rule:nonzero}
    .fil2 {fill:#A47929;fill-rule:nonzero}
    .fil1 {fill:#DBA237;fill-rule:nonzero}
   ]]>
  </style>
 </defs>
 <g id="Layer_x0020_1">
  <metadata id="CorelCorpID_0Corel-Layer"/>
  <g id="_1571272634512">
   <g>
    <path class="fil0" d="M3526.31 838.35l492.81 1526.71 1604.27 -3.09 -1299.69 940.48 498.68 1524.79 -1296.07 -945.46 -1296.06 945.46 411.42 -566.28 884.64 -645.33 884.63 645.33 -340.37 -1040.76 887.11 -641.92 -1095 2.1 -336.37 -1742.03zm-797.39 2464.1l-633.99 -724.17 265.03 0.5c-40.08,-68.71 -64.3,-140.59 -75.12,-215.16l-855.61 -1.65 1299.69 940.48z"/>
    <g>
     <path class="fil1" d="M2893.16 2208.64c45.33,278.06 58.2,539.87 43.18,787.75 282.86,198.36 630.21,262.13 1159.34,140.12 -406.76,333.79 -819.16,452.64 -1236.42,386.96 -113.7,482.57 -337.36,910.17 -629.01,1303.77 114.85,-497.64 184.3,-978.47 188.6,-1521.62 437.59,246.07 1015.26,200.25 1399.69,-47.8 -593.67,69.67 -1378.26,-244.07 -1453.48,-904.85 -38.44,-337.17 140.29,-471.63 326.62,-575.51 377.7,-210.54 595.46,-530.57 518.5,-986.04 -85.71,-507.31 -566.46,-849.08 -1073.77,-763.36 626.18,-139.53 1246.92,254.97 1386.45,881.16 117.91,529.14 -144.76,1066.33 -629.7,1299.42zm-370.6 -1327.13c157.82,0 285.77,127.95 285.77,285.78 0,157.82 -127.95,285.77 -285.77,285.77 -157.83,0 -285.78,-127.95 -285.78,-285.77 0,-157.83 127.95,-285.78 285.78,-285.78z"/>
     <path class="fil1" d="M3552.34 2506.61c19.25,2.33 32.96,19.83 30.63,39.08 -2.32,19.25 -19.82,32.96 -39.07,30.63 -19.25,-2.33 -32.97,-19.82 -30.64,-39.08 2.34,-19.24 19.83,-32.96 39.08,-30.63zm6.65 -215.46c59.19,0 115.47,12.45 166.39,34.86 -24.38,-5.13 -49.63,-7.84 -75.53,-7.84 -201.48,0 -364.8,163.32 -364.8,364.8 0,201.48 163.32,364.81 364.8,364.81 86.53,0 166.01,-30.15 228.54,-80.49 -75.83,92.14 -190.76,150.89 -319.4,150.89 -228.39,0 -413.52,-185.14 -413.52,-413.52 0,-228.38 185.13,-413.51 413.52,-413.51zm-460.45 22.61c-47.25,-35.64 -99.69,-59.58 -153.83,-72.35 22.54,10.57 44.35,23.62 65.02,39.21 75.95,57.28 123.17,138.53 139.09,225.26 14.15,-29.13 31.3,-56.53 51.06,-81.79 -26.03,-41.5 -59.89,-79.07 -101.34,-110.33zm152.96 -70.18c35.67,0 64.59,28.92 64.59,64.59 0,35.69 -28.92,64.6 -64.59,64.6 -35.68,0 -64.6,-28.91 -64.6,-64.6 0,-35.67 28.92,-64.59 64.6,-64.59zm463.66 308.78c31.95,3.87 61.5,14.27 87.52,29.69 -12.83,-4.37 -26.27,-7.49 -40.25,-9.17 -108.72,-13.17 -207.52,64.31 -220.68,173.03 -13.16,108.72 64.3,207.52 173.03,220.68 46.69,5.65 91.55,-5.42 128.59,-28.5 -46.94,44.76 -112.8,68.96 -182.22,60.56 -123.24,-14.91 -211.05,-126.91 -196.14,-250.16 14.92,-123.24 126.91,-211.04 250.15,-196.13zm-249.94 -17.87c-23.18,-22.32 -49.91,-38.66 -78.29,-49.09 11.48,7.18 22.39,15.64 32.53,25.41 37.24,35.87 57.41,82.79 60.35,130.64 9.53,-14.8 20.57,-28.47 32.89,-40.8 -11.34,-24.1 -27.16,-46.58 -47.48,-66.16z"/>
    </g>
   </g>
   <path class="fil1" d="M1088.23 6061.97l-312.76 0 0 -1049.91c119.8,80.24 250.66,182.29 367.28,271.15 62.06,47.28 122.34,89.66 184.24,137.11 59.89,45.92 129.7,88.47 129.7,191.68l0 209.99c0,195.29 -171.31,239.98 -368.46,239.98zm-1088.23 1032.77c0,9.87 2.98,12.86 12.85,12.86l758.34 0c2.23,-9.61 4.28,-9.86 4.28,-21.43l0 -737.08 514.12 0c223.69,0 437.36,-26.46 598.11,-91.7 144.89,-58.81 293.04,-198.32 293.04,-396.83l0 -419.97c0,-84.83 -51.45,-195.67 -95.29,-238.93 -61.38,-60.56 -118.65,-97.46 -210.5,-128 -169.95,-56.5 -374.04,-78.75 -598.21,-78.75l-1276.74 0 0 2099.83zm3264.69 -2091.25c25.87,2.15 291.28,205.87 334.13,235.75 55.28,38.55 111.88,79.67 166.4,120.67 56.73,42.65 107.86,75.15 107.86,174.96l0 115.7 736.91 0 0 -372.82c0,-171.33 -197.07,-236.27 -346.71,-266.02 -241.54,-48.01 -568.95,-42.53 -831.5,-42.53 -240.58,0 -501.3,9.75 -677.55,72.23 -189.79,67.28 -295,194.12 -295,450.59l0 1182.75c0,473.48 616.97,454.25 1088.23,454.25 284.08,0 490,0.08 722.29,-53.19 215.23,-49.37 351.11,-157.71 344.52,-426.77l-5.43 -257.09 -735.76 -0.03 0 377.11c0,117.71 -130.85,167.13 -248.5,167.13l-72.83 0c-124.09,0 -287.06,-54.54 -287.06,-175.7l0 -1756.99zm2442.1 0c25.69,2.13 296.78,212.38 343.59,243.42 54.33,36.02 117.03,81.94 169.38,121.99 66.54,50.91 95.41,80.46 95.41,195.97l0 85.7 724.06 0c9.87,0 12.85,-2.98 12.85,-12.85l0 -359.97c0,-343.92 -816.5,-308.55 -1152.49,-308.55 -256.15,0 -495.21,7.48 -690.4,67.96 -194.43,60.24 -307.86,191.41 -307.86,446.28l0 1182.76c0,155.95 35.79,221.26 121,294.65 224.47,193.32 754.89,168.17 1061.49,168.17 269.87,0 549.47,-8.04 738.29,-88.61 252.76,-107.86 229.97,-257.13 229.97,-584.19l0 -64.28 -736.91 0 0 355.69c0,142.61 -117.16,188.55 -257.06,188.55l-68.55 0c-102.92,0 -282.77,-59.64 -282.77,-149.99l0 -1782.7z"/>
   <g>
    <path class="fil2" d="M1088.23 6061.97l-312.76 0 -0.01 0 89.17 65.57 312.77 0c197.15,0 368.45,-44.68 368.45,-239.98l0 -209.98c0,-103.23 -69.81,-145.77 -129.68,-191.68 -61.91,-47.45 -122.19,-89.85 -184.25,-137.13 -86.84,-66.16 -181.58,-139.63 -273.78,-205.99l2.16 1.62 0.79 0.59 2.95 2.21 2.1 1.58 0.86 0.64 2.95 2.21 2.02 1.53 0.93 0.69 2.94 2.22 1.96 1.48 0.99 0.74 2.95 2.22 1.89 1.43 1.05 0.79 2.95 2.22 1.82 1.38 1.12 0.85 2.94 2.22 1.76 1.33 1.18 0.89 2.94 2.23 1.69 1.28 1.25 0.94 2.93 2.23 1.62 1.22 1.32 1 2.93 2.23 1.55 1.17 1.38 1.05 2.93 2.22 1.48 1.13 1.44 1.1 2.93 2.22 1.41 1.07 1.51 1.15 2.92 2.22 1.34 1.03 1.58 1.2 2.91 2.22 1.27 0.97 1.64 1.25 2.91 2.21 1.21 0.92 1.7 1.3 2.9 2.22 1.14 0.86 1.77 1.35 2.89 2.21 1.07 0.82 1.83 1.39 2.89 2.21 1 0.77 1.89 1.44 2.89 2.21 0.93 0.71 1.95 1.49 2.88 2.2 0.86 0.66 2.02 1.54 2.87 2.2 0.8 0.61 2.07 1.58 2.87 2.19 0.72 0.56 2.14 1.63 2.86 2.19 0.66 0.5 2.2 1.68 2.85 2.18 0.59 0.46 2.25 1.72 2.85 2.17 5.67 4.34 0.46 0.36 2.37 1.8 2.83 2.16 0.39 0.31 2.43 1.85 2.81 2.15 0.33 0.26 2.49 1.89 2.8 2.15 0.26 0.2 2.55 1.94 2.8 2.14 0.19 0.15 2.6 1.98 2.79 2.13 0.13 0.1 2.65 2.02 5.55 4.23 2.77 2.11 0 0.01 2.91 2.2 0 0.01 2.9 2.2 0 0.01 2.91 2.19 0 0.01 2.9 2.18 0 0.01 2.89 2.18 0 0.01 2.9 2.17 0 0.01 2.89 2.16 0 0.01 2.9 2.16 0 0.01 2.89 2.15 0 0.01 2.88 2.15 0 0.01 2.89 2.15 0 0.01 2.88 2.14 2.89 2.14 0 0.01 2.88 2.13 0 0.01 2.88 2.13 2.87 2.13 0 0.01 2.88 2.12 0 0.01 2.88 2.12 2.87 2.12 2.87 2.12 2.88 2.12 2.87 2.11 0 0.01 2.87 2.1 0 0.01 2.87 2.1 0 0.01 2.86 2.1 0 0.01 2.87 2.1 2.87 2.11 2.87 2.1 0 0.01 2.86 2.1 2.87 2.1 2.86 2.11 0.01 0 2.86 2.1 2.87 2.1 0 0.01 2.86 2.1 2.87 2.1 2.86 2.11 2.87 2.1 0 0.01 2.86 2.1 0.01 0 2.86 2.11 2.87 2.11 0 0.01 2.86 2.1 0.01 0.01 2.86 2.11 2.87 2.12 2.87 2.12 2.87 2.12 0 0.01 2.87 2.12 2.87 2.12 0.01 0.01 2.87 2.13 2.87 2.13 0 0.01 2.88 2.13 0 0.01 2.87 2.14 0.01 0.01 2.87 2.14 0.01 0.01 2.87 2.14 0 0.01 2.88 2.15 0.01 0.01 2.87 2.16 0.01 0 2.88 2.16 0 0.01 2.88 2.17 0.01 0.01 2.88 2.17 0.01 0.01 2.88 2.18 0.01 0.01 2.88 2.18 0.01 0.01 2.89 2.19 0 0.01 2.89 2.2 0.01 0.01 2.89 2.2 0.01 0.01 2.89 2.21 0.01 0.01 2.8 2.14 0.01 0.01 2.82 2.14 0.01 0.01 2.83 2.13 0.01 0.01 2.84 2.14 2.85 2.14 0.01 0.01 2.85 2.14 0 0.01 2.86 2.14 0.01 0.01 2.86 2.15 2.86 2.16 0.01 0.01 2.86 2.16 0 0.01 2.86 2.17 0 0.01 2.85 2.19 2.85 2.2 0 0.01 2.83 2.21 0 0.01 2.83 2.23 2.81 2.25 2.8 2.27 2.78 2.29 2.76 2.31 0.01 0 2.74 2.34 2.72 2.36 2.7 2.38 2.67 2.41c1.77,1.62 3.53,3.26 5.26,4.92l2.58 2.5 0.01 0 2.54 2.54 0.01 0 2.51 2.57 0.01 0 2.47 2.6 0.01 0 2.43 2.65 0.01 0 2.39 2.68 0.01 0 2.35 2.72 0.01 0.01 2.31 2.76 2.27 2.81 2.22 2.85 0.01 0.01 2.16 2.9 0.01 0 2.11 2.94 0.01 0.01 2.06 2.99 0.01 0 2.01 3.05 0.01 0 1.94 3.1 0.01 0 1.89 3.16 0.01 0 1.83 3.21 0.01 0 1.77 3.26 0.01 0 1.7 3.33 0.01 0 1.64 3.38 0.01 0 1.57 3.45 0.01 0 1.5 3.5 0.01 0 1.43 3.58 0.01 0 1.35 3.63 0.01 0 1.28 3.71 0.01 0 1.21 3.77 0.01 0 1.12 3.84 0.01 0c0.73,2.58 1.4,5.22 2.02,7.9l0.01 0 0.88 4.06 0.01 0c0.56,2.73 1.07,5.52 1.51,8.35l0.01 0 0.62 4.29 0.01 0c1.16,8.65 1.77,17.79 1.77,27.48l0 209.99 -0.01 0c0,3.05 -0.03,6.07 -0.11,9.04l-0.01 0c-0.08,2.98 -0.21,5.92 -0.37,8.83l-0.01 0c-0.17,2.91 -0.35,5.78 -0.6,8.61l-0.01 0c-0.25,2.83 -0.52,5.63 -0.85,8.4l-0.01 0c-0.33,2.76 -0.68,5.49 -1.09,8.18l-0.01 0.01c-0.4,2.69 -0.84,5.35 -1.32,7.97l-0.01 0c-0.48,2.62 -0.99,5.21 -1.55,7.77l-0.01 0.01c-0.56,2.55 -1.14,5.07 -1.78,7.56l-0.01 0c-0.63,2.49 -1.29,4.95 -2,7.37l-0.01 0c-0.71,2.42 -1.44,4.82 -2.22,7.17l-0.01 0c-0.78,2.36 -1.59,4.68 -2.44,6.97l-0.01 0c-0.85,2.29 -1.74,4.56 -2.66,6.78l-0.01 0c-0.92,2.23 -1.88,4.42 -2.87,6.58l0 0.01c-0.99,2.16 -2.02,4.29 -3.08,6.39l-0.01 0c-1.06,2.1 -2.15,4.17 -3.28,6.21l-0.01 0c-1.13,2.04 -2.28,4.05 -3.48,6.02l-0.01 0.01c-1.19,1.97 -2.41,3.93 -3.67,5.84l-0.01 0c-1.26,1.92 -2.55,3.8 -3.88,5.66l0 0.01c-1.32,1.86 -2.68,3.68 -4.07,5.48l-0.01 0.01c-1.39,1.8 -2.8,3.57 -4.25,5.31l-0.01 0c-1.45,1.74 -2.92,3.45 -4.43,5.14l-0.01 0c-1.51,1.68 -3.05,3.34 -4.62,4.97l-0.01 0c-1.57,1.63 -3.16,3.23 -4.79,4.8l-0.01 0.01c-1.63,1.57 -3.28,3.11 -4.97,4.63l-0.01 0.01c-1.68,1.52 -3.4,3 -5.14,4.47l-0.01 0c-1.74,1.46 -3.51,2.91 -5.31,4.32 -1.8,1.41 -3.63,2.8 -5.48,4.16 -1.85,1.36 -3.74,2.69 -5.64,4 -1.91,1.31 -3.83,2.59 -5.8,3.85l0 0.01c-1.96,1.26 -3.94,2.48 -5.95,3.69l-0.01 0.01c-2.01,1.21 -4.05,2.39 -6.1,3.55 -2.06,1.16 -4.14,2.29 -6.25,3.4l0 0.01c-2.11,1.11 -4.25,2.2 -6.4,3.26 -2.16,1.07 -4.32,2.11 -6.53,3.12l-0.01 0.01c-2.2,1.02 -4.43,2.01 -6.67,2.98l-6.81 2.85c-2.3,0.93 -4.6,1.84 -6.94,2.72l-0.01 0 -7.06 2.58 0 0.01 -7.19 2.45 -0.01 0 -7.31 2.33 -7.43 2.21 -7.55 2.09 -7.66 1.96 0 0.01 -7.76 1.85 -7.87 1.73 -7.97 1.63 -8.07 1.52 -8.17 1.41 -8.25 1.3 -8.34 1.21 -8.43 1.1 -8.51 1.01 -8.58 0.91 -8.66 0.82 -8.73 0.73 -0.01 0 -8.79 0.65 -8.87 0.56 -8.92 0.47 -8.99 0.4 -9.03 0.32 -9.09 0.24 -9.14 0.18 -9.18 0.1 -9.22 0.03zm-312.76 -1049.89l0 -0.02 3.23 2.18 1.08 0.73 2.17 1.46 1.08 0.73 1.08 0.73 2.62 1.76 0.64 0.44 1.09 0.74c7.24,4.91 14.52,9.89 21.82,14.94l1.1 0.76 1.1 0.76 1.09 0.76 1.1 0.76 0.47 0.32 0.63 0.44 1.1 0.77 1.1 0.76 1.1 0.76 1.1 0.77 2.2 1.53 1.1 0.77 1.1 0.77 1.11 0.77 0.92 0.64 0.18 0.13 1.1 0.78 1.1 0.77 1.11 0.77 1.1 0.78 1.11 0.77 0.04 0.03 1.06 0.75 1.11 0.78 1.1 0.78 1.11 0.77 1.11 0.78 0.26 0.19 0.84 0.6 1.11 0.78 1.11 0.78 1.1 0.78 1.61 1.13 0.61 0.44 1.11 0.79 0.01 0 520.33 0c224.16,0 428.24,22.25 598.2,78.74 39.39,13.1 72.41,27.39 102.13,44.17 -5.05,-4.61 -10.09,-9.08 -15.15,-13.42l-0.22 -0.18 -2.57 -2.18 -0.08 -0.08 -2.5 -2.08 -5.16 -4.24 -0.99 -0.81 -1.6 -1.28 -1.3 -1.04 -1.3 -1.02 -2.61 -2.05 -1.91 -1.49 -0.7 -0.53c-17.31,-13.29 -35.22,-25.17 -54.52,-35.99l-0.48 -0.26c-2.92,-1.63 -5.87,-3.24 -8.86,-4.83l-0.57 -0.31 -2.44 -1.27 -6.07 -3.11 -1.66 -0.84 -1.42 -0.7 -6.23 -3.03 -2.81 -1.34 -0.34 -0.15 -3.19 -1.49 -0.02 -0.01 -3.19 -1.45 -0.4 -0.19 -2.84 -1.27 -3.27 -1.44 -1.18 -0.52 -2.12 -0.91 -6.7 -2.83 -2.41 -1 -0.98 -0.4 -2.84 -1.15 -0.59 -0.24 -3.27 -1.3 -0.2 -0.07 -3.49 -1.37 -0.22 -0.09 -3.32 -1.26 -3.26 -1.24 -0.3 -0.11 -1.07 -0.4 -2.54 -0.94 -1.5 -0.55 -2.14 -0.77 -1.94 -0.7 -1.73 -0.62 -2.41 -0.85 -1.31 -0.46 -2.87 -1 -0.88 -0.3 -3.35 -1.14 -0.45 -0.15 -3.83 -1.29 -7.99 -2.62 -8.04 -2.58 -8.09 -2.52 -8.14 -2.47 0 -0.01 -8.19 -2.42 -8.24 -2.37 0 -0.01 -8.28 -2.32 0 -0.01c-8.31,-2.3 -16.69,-4.53 -25.14,-6.69 -8.45,-2.16 -16.97,-4.25 -25.56,-6.27l-0.01 0c-17.18,-4.04 -34.62,-7.79 -52.34,-11.28l0 -0.01c-14.76,-2.91 -29.72,-5.62 -44.84,-8.16l0 -0.01 -9.09 -1.49 0 -0.01 -9.14 -1.45 0 -0.01 -9.18 -1.4 0 -0.01 -9.22 -1.37 -9.26 -1.33 -9.3 -1.28 0 -0.01 -9.34 -1.24 0 -0.01 -9.38 -1.19 0 -0.01 -820.71 -1.02zm-42.55 48.41l42.54 -48.42 0.01 0.01 -42.55 48.41zm543.83 -65.57l-1276.75 0 0 2099.82 0 0.46 0 0.44 0.01 0.01 0 0.42 0.01 0.01 0.01 0.42 0.01 0.01 0.01 0.41 0.01 0.01 0.01 0.4 0.01 0.01 0.02 0.39 0.01 0.01 0.03 0.38 0.01 0.01 0.03 0.37 0.01 0.01 0.03 0.36 0.01 0.01 0.04 0.35 0.01 0.01 0.05 0.35 0.01 0 0.05 0.34 0.01 0.01 0.06 0.33 0.01 0 0.06 0.32 0.01 0.01 0.07 0.31 0.01 0 0.08 0.31 0.09 0.3 0.09 0.29 0.01 0 0.09 0.28 0.01 0.01 0.1 0.27 0.01 0 0.11 0.26 0.01 0.01 0.11 0.25 0.01 0.01 0.12 0.24 0 0.01 0.13 0.24 0.01 0 0.13 0.23 0.01 0 0.14 0.23 0.15 0.22 0.01 0 0.15 0.21 0.01 0 0.16 0.2 0.01 0.01 0.17 0.19 0.18 0.19 0.19 0.18 0.19 0.18 0.01 0 0.2 0.17 0.21 0.16 0.22 0.15 0.22 0.15 0.01 0 0.23 0.14 0.24 0.13 0.01 0 0.24 0.13 0.01 0 0.25 0.12 0.01 0 0.26 0.12 0.27 0.11 0.01 0 0.27 0.1 0.01 0 0.28 0.09 0.01 0 0.29 0.09 0.01 0 0.3 0.09 0.01 0 0.31 0.08 0.01 0 0.31 0.07 0.01 0 0.33 0.07 0.01 0 0.33 0.06 0.01 0 0.35 0.06 0.36 0.05 0.37 0.04 0.38 0.04 0.39 0.04 0.39 0.03 0.01 0 0.4 0.02 0.01 0 0.41 0.02 0.01 0 0.42 0.02 0.01 0 0.43 0.01 0.44 0.01 0.01 0 0.45 0 76.32 -73.64 0 -1973.47 643.76 0 543.83 -65.57zm3264.72 1462.61l67.37 -65.56 0 -0.01 -735.76 -0.02 0 377.11c0,1.84 -0.03,3.66 -0.1,5.47 -0.06,1.8 -0.16,3.59 -0.28,5.36l0 0.01c-0.13,1.77 -0.28,3.52 -0.47,5.26 -0.19,1.74 -0.4,3.46 -0.65,5.17 -0.25,1.7 -0.52,3.4 -0.83,5.07l0 0.01 -1 4.97c-0.36,1.64 -0.76,3.26 -1.18,4.87l0 0.01c-0.42,1.61 -0.87,3.2 -1.34,4.77l0 0.01c-0.48,1.58 -0.98,3.14 -1.51,4.68l-1.67 4.58 0 0.01c-0.58,1.51 -1.19,3 -1.83,4.48l0 0.01c-0.64,1.48 -1.3,2.95 -1.99,4.39l-2.14 4.3 -2.29 4.21 -2.43 4.11c-0.83,1.36 -1.68,2.69 -2.57,4.02l-2.72 3.92 0 0.01 -2.85 3.83 -2.98 3.74 -3.11 3.65 -3.24 3.56 -3.35 3.46 0 0.01 -3.48 3.37 -3.6 3.28 0 0.01 -3.7 3.19 0 0.01 -3.82 3.1 -3.92 3.02 -4.02 2.93 -4.13 2.84 -4.22 2.75 0 0.01 -4.31 2.66 0 0.01 -4.4 2.57 0 0.01 -4.49 2.49 -4.57 2.41 -4.65 2.32 -4.73 2.24 -4.8 2.15 0 0.01 -4.87 2.06 0 0.01 -4.93 1.98 -5 1.9 0 0.01 -5.06 1.81 0 0.01 -5.12 1.73 -5.16 1.66 -0.01 0c-3.46,1.08 -6.95,2.1 -10.48,3.07l-5.31 1.41c-3.55,0.92 -7.12,1.78 -10.73,2.59l-5.42 1.17 -5.45 1.1 -5.47 1.01 -0.01 0 -5.49 0.94 -5.52 0.86 -5.53 0.79 -0.01 0 -5.54 0.71 -0.01 0 -5.55 0.63 -0.01 0 -5.56 0.55 -0.01 0 -5.56 0.48 -0.01 0 -5.56 0.41 -0.01 0 -5.56 0.33 -0.01 0 -5.55 0.25 -0.01 0 -5.55 0.18 -0.01 0 -5.53 0.11 -0.01 0 -5.51 0.04 -0.01 0 -72.82 0 -0.01 0c-116.31,0 -266.75,-47.91 -285.17,-153.68l-0.02 -0.01c7.71,151.25 280.15,219.26 374.36,219.26l72.83 0c117.66,0 248.51,-49.42 248.51,-167.13l0 -377.11 579.22 0.02zm-579.22 -806.96l0 -50.14c0,-99.8 -51.14,-132.29 -107.86,-174.93 -3.45,-2.6 -9.94,-4.39 -18.8,-5.55l1.03 1.22 0 0.01 1.92 2.36 0 0.01 1.88 2.4 0.01 0.01 1.84 2.45 1.8 2.49 0 0.01 1.75 2.53 0 0.01 1.71 2.58 0.01 0.01 1.66 2.63 1.62 2.69 1.57 2.74 1.52 2.8 1.47 2.85 0.01 0 1.41 2.91 0.01 0 1.36 2.96 0.01 0 1.31 3.03 1.26 3.1 1.21 3.15 0 0.01 1.15 3.22 1.09 3.29 0.01 0 1.03 3.36 0 0.01 0.98 3.43 0.91 3.51 0.86 3.58 0 0.01 0.79 3.65 0 0.01 0.73 3.73 0 0.01 0.66 3.81 0 0.01 0.6 3.9 0 0.01 0.53 3.98 0.47 4.07 0 0.01 0.4 4.15 0 0.01 0.32 4.25 0 0.01 0.26 4.33 0 0.01 0.18 4.43 0 0.01 0.11 4.52 0 0.01 0.04 4.62 0 0.01 0 115.7 89.17 0zm-697.56 -647.08c0.41,0.03 0.87,0.12 1.39,0.25l0.01 0 1.62 0.5 0.09 0.03 0.05 0.02 0.01 0 1.53 0.6 0.47 0.19 0.08 0.04 0.58 0.26 0.59 0.26 0.62 0.29 0.5 0.23 0.13 0.07 0.66 0.32 0.67 0.34 0.7 0.35 0.53 0.27 0.18 0.1 0.73 0.38 0.75 0.4 0.77 0.42 0.55 0.29 0.24 0.14 0.81 0.45 0.82 0.46 0.85 0.48 0.55 0.31 0.31 0.19 0.88 0.51 0.89 0.52 0.92 0.54 0.93 0.55 0.95 0.57 0.96 0.58 0.98 0.59 0.54 0.32 0.46 0.29 1.01 0.63 3.14 1.95 1.08 0.68 1.09 0.69 1.11 0.7 0.49 0.31 0.63 0.41 1.14 0.73 1.16 0.74 0.03 0.02 2.32 1.5 1.19 0.78 2.44 1.6 0.41 0.26 0.83 0.55 1.25 0.83 1.26 0.84 1.28 0.85 0.37 0.24 0.92 0.62 1.31 0.87 1.31 0.88 1.33 0.9 0.32 0.21 1.02 0.69 1.36 0.91 1.36 0.93 1.38 0.93 0.26 0.18 1.13 0.77c66.1,-2.28 132.81,-3.02 198.04,-3.02 262.54,0 589.95,-5.49 831.5,42.52 65.99,13.12 141.19,33.1 204.67,66.01 -34.39,-37.46 -82.45,-65.3 -134.61,-86.31l-4.9 -1.95c-8.13,-3.19 -16.36,-6.22 -24.64,-9.1l-0.6 -0.21 -4.58 -1.57 -5.02 -1.68 -10.07 -3.26 -5.05 -1.57 -4.94 -1.52 -0.27 -0.08 -9.45 -2.78 -0.5 -0.15 -1.66 -0.48 -3.39 -0.96 -4.05 -1.14 -1 -0.27 -5.05 -1.38 -5.05 -1.34 -3.76 -0.99 -1.27 -0.33 -5.03 -1.28 -3.83 -0.96 -1.18 -0.3 -3.47 -0.85 -1.53 -0.37 -4.99 -1.2 -0.82 -0.2 -4.15 -0.97 -3.17 -0.73 -1.79 -0.41 -4.93 -1.11 -0.55 -0.12 -4.36 -0.97 -2.86 -0.62 -2.03 -0.43 -4.87 -1.04 -0.27 -0.06 -4.56 -0.95 -2.55 -0.52 -2.26 -0.46 -4.78 -0.96 -0.01 0 -11.37 -2.21 -0.01 0 -11.5 -2.14 -0.01 0 -11.62 -2.05 -0.01 0 -11.73 -1.99 -0.01 0 -11.84 -1.91 -0.01 0 -11.96 -1.84 -12.06 -1.77 -0.01 0 -12.16 -1.7 -0.01 0 -12.26 -1.63 -12.36 -1.57 -0.01 0 -12.44 -1.5 -0.01 0 -12.53 -1.44 -0.01 0 -12.62 -1.38 -12.71 -1.31 0 -0.01 -12.78 -1.25 -12.86 -1.2 -12.92 -1.14 -0.01 0 -12.99 -1.09 -13.06 -1.03 -13.12 -0.98 -13.17 -0.92 -0.01 -0.01 -13.22 -0.87 -0.01 0 -13.27 -0.83 -13.33 -0.78 -13.37 -0.74 -13.4 -0.69 -0.01 0 -13.44 -0.65 -13.47 -0.6 -0.01 -0.01 -13.5 -0.56 -13.53 -0.52 0 -0.01 -13.56 -0.48 0 -0.01 -13.57 -0.44 0 -0.01 -13.59 -0.41 0 -0.01 -13.6 -0.37 0 -0.01 -13.61 -0.34 0 -0.01 -13.61 -0.31 0 -0.01 -13.61 -0.28 -0.01 -0.01 -13.61 -0.25 0 -0.01 -13.61 -0.23 -13.59 -0.21 -0.01 0 -13.58 -0.18 0 -0.01 -13.57 -0.15 -0.01 -0.01 -13.54 -0.13 -0.01 -0.01 -13.52 -0.11 -0.01 -0.01 -13.5 -0.09 0 -0.01 -13.47 -0.07 -0.01 -0.01 -13.43 -0.06 -0.01 0 -13.4 -0.05 0 -0.01 -13.36 -0.03 -0.01 0 -13.31 -0.02 -0.01 -0.01 -13.27 -0.01 -39.51 0 0 0.01c-43.6,0.04 -86.17,0.18 -127.24,0.18 -18.8,0 -37.72,0.05 -56.71,0.19l0 0.01c-22.79,0.17 -45.68,0.44 -68.6,0.87l0 0.01 -11.46 0.22 0 0.01c-11.46,0.24 -22.92,0.51 -34.37,0.84l0 0.01 -22.88 0.7 0 0.01 -11.43 0.39 0 0.01 -11.41 0.42 0 0.01 -11.4 0.46 0 0.01 -11.38 0.49 0 0.01 -11.36 0.52 0 0.01 -11.33 0.56 0 0.01 -11.31 0.6 0 0.01 -11.28 0.64 -11.25 0.68 0 0.01 -11.22 0.71 0 0.01 -11.19 0.76 0 0.01 -11.14 0.79 0 0.01 -11.11 0.84 0 0.01 -11.06 0.89 -11.02 0.93 0 0.01 -10.97 0.98 0 0.01 -10.92 1.02 0 0.01 -10.87 1.07 -10.82 1.12 0 0.01 -10.76 1.17 0 0.01 -10.7 1.22 -10.63 1.28 -0.01 0 -10.57 1.33 -10.51 1.38 0 0.01 -10.44 1.43 0 0.01 -10.37 1.49 -10.29 1.55 0 0.01 -10.22 1.6 -10.14 1.67 -10.06 1.73 -0.01 0 -9.97 1.79 -9.89 1.85 -0.01 0 -9.79 1.91 -0.01 0 -9.71 1.97 -9.62 2.04 -0.01 0 -9.52 2.11 -9.43 2.17 -9.32 2.24 -0.01 0c-6.19,1.52 -12.29,3.07 -18.34,4.68l-0.01 0 -9.01 2.45 -0.01 0 -8.89 2.52 -0.01 0 -8.79 2.59 -0.01 0c-11.64,3.51 -22.97,7.21 -34,11.11 -5.93,2.1 -11.78,4.26 -17.54,6.48l-0.01 0c-17.29,6.66 -33.84,13.87 -49.62,21.67l0 0.01 -7.82 3.95 -0.01 0 -7.69 4.05 0 0.01c-2.54,1.37 -5.07,2.74 -7.57,4.15l0 0.01c-2.5,1.4 -4.98,2.81 -7.44,4.25l0 0.01c-2.46,1.44 -4.89,2.88 -7.31,4.36l0 0.01 -7.18 4.47 0 0.01c-2.37,1.51 -4.72,3.03 -7.05,4.58l-6.92 4.7 -6.79 4.81c-2.24,1.62 -4.45,3.27 -6.65,4.93l-0.01 0c-2.2,1.66 -4.37,3.34 -6.52,5.04l-6.39 5.16c-2.11,1.74 -4.19,3.5 -6.26,5.28l-6.12 5.4c-2.02,1.82 -4.02,3.66 -5.99,5.52l0 0.01c-1.97,1.86 -3.93,3.73 -5.85,5.64 -1.93,1.9 -3.84,3.83 -5.72,5.77 -1.88,1.94 -3.74,3.92 -5.58,5.9l-0.01 0c-1.84,1.99 -3.64,4 -5.44,6.03 -1.79,2.03 -3.56,4.08 -5.31,6.16 -1.75,2.07 -3.48,4.17 -5.18,6.29 -1.7,2.12 -3.37,4.27 -5.03,6.43 -1.66,2.16 -3.29,4.35 -4.9,6.56 -1.61,2.21 -3.2,4.44 -4.76,6.7 -1.56,2.25 -3.1,4.53 -4.62,6.83l0 0.01c-1.52,2.3 -3.01,4.62 -4.48,6.97 -1.47,2.35 -2.92,4.72 -4.34,7.12l-4.2 7.26c-1.38,2.44 -2.73,4.91 -4.06,7.41 -1.33,2.49 -2.64,5.01 -3.92,7.55l-3.78 7.7c-1.23,2.59 -2.45,5.21 -3.63,7.85 -1.19,2.64 -2.35,5.32 -3.49,8.01 -1.14,2.69 -2.26,5.4 -3.35,8.15 -1.09,2.74 -2.16,5.51 -3.2,8.31l-0.01 0 -3.05 8.47 -0.01 0c-1,2.85 -1.96,5.71 -2.91,8.62 -0.95,2.9 -1.87,5.84 -2.77,8.79 -0.9,2.96 -1.78,5.93 -2.63,8.94 -0.85,3.01 -1.67,6.04 -2.47,9.11l-0.01 0c-0.8,3.06 -1.58,6.15 -2.33,9.27l-2.18 9.44 -2.04 9.6 -1.89 9.78 -1.74 9.94 -1.59 10.12c-0.5,3.4 -1,6.83 -1.45,10.29 -0.46,3.46 -0.89,6.94 -1.29,10.46 -0.41,3.52 -0.79,7.07 -1.14,10.65 -0.36,3.58 -0.69,7.18 -0.99,10.82l-0.84 11 -0.69 11.18c-0.2,3.76 -0.39,7.55 -0.54,11.37l-0.38 11.55 -0.23 11.74 -0.08 11.93 0 1182.75 0 0.01c0,7.25 0.16,14.38 0.44,21.41l0.03 0.68c0.29,6.81 0.71,13.48 1.26,20.08l0.11 1.34c0.56,6.5 1.26,12.89 2.08,19.18l0.17 1.32c0.82,6.19 1.76,12.27 2.82,18.27l0.32 1.79c1.07,5.89 2.25,11.68 3.55,17.39l0.42 1.77c1.32,5.66 2.73,11.23 4.27,16.71l0.5 1.7c1.48,5.18 3.06,10.27 4.73,15.29l0.9 2.67c1.68,4.9 3.47,9.73 5.33,14.49l0.89 2.28c1.88,4.7 3.88,9.32 5.94,13.87l1.42 3.12c2.02,4.35 4.13,8.63 6.31,12.84l1.71 3.24c2.21,4.15 4.48,8.24 6.85,12.26l1.91 3.19c2.14,3.55 4.34,7.04 6.6,10.49l3.27 4.89c2.13,3.12 4.3,6.21 6.53,9.25l3.47 4.66c2.19,2.89 4.43,5.75 6.72,8.56l4.3 5.2c2.19,2.59 4.41,5.16 6.67,7.68 1.79,1.99 3.6,3.97 5.44,5.92 2,2.13 4.03,4.24 6.08,6.33 2.06,2.09 4.15,4.15 6.26,6.19l5.43 5.15c2.51,2.33 5.05,4.64 7.64,6.91l4.6 3.98c3.16,2.69 6.36,5.33 9.62,7.93l4.21 3.32c2.97,2.31 5.99,4.59 9.04,6.83l0.03 0.02 5.03 3.64 0.11 0.08c3.14,2.24 6.33,4.44 9.55,6.6l2.78 1.84c9.74,6.44 19.8,12.59 30.21,18.42 -66.76,-65.02 -106.38,-153.28 -106.38,-273.21l0 -1182.76c0,-256.46 105.22,-383.31 294.99,-450.6 114.4,-40.53 264.36,-58.86 421.3,-66.73l0 -36.77zm3720.02 1454.02l67.36 -65.56 0 -0.01 -735.75 0 0 377.09c0,53.99 -27.54,93.61 -68.71,120.68 -32.16,22.77 -73.81,36.05 -120.51,42.22 -19.68,2.84 -39.66,4.22 -59.28,4.22l-3.18 0 -6.54 0.03 -68.55 0c-84.85,0 -221.97,-40.55 -267.51,-105.41 55.05,117.5 278.61,170.96 362.12,170.96l72.83 0c117.66,0 248.5,-49.43 248.5,-167.13l0 -377.11 579.22 0.02zm-776.64 -1097.52l0.39 -0.09c56.75,42.65 107.86,75.14 107.86,174.94l0 115.71 89.17 0 0 -50.14c0,-99.8 -51.13,-132.29 -107.86,-174.94 -3.73,-2.81 -11.04,-4.65 -21.02,-5.8 -14.5,-17.41 -33.32,-32.76 -56.86,-50.77l-11.68 -8.91zm-500.13 -356.52c6.54,0.55 28.46,14.04 58.22,34.31 66.1,-2.28 132.82,-3.02 198.05,-3.02 262.54,0 589.95,-5.49 831.49,42.52 64.14,12.75 136.98,31.98 199.3,63.27 -73.54,-75.53 -210.82,-118.33 -368.03,-142.37 -213.2,-30.84 -474.1,-29.45 -697.69,-29.06l-29.7 0.08c-251.85,0 -487.18,7.23 -680.53,64.96 -7.32,2.33 -14.53,4.74 -21.59,7.24 -189.77,67.29 -294.98,194.13 -294.98,450.6l0 1182.76c0,136.87 51.61,232.53 136.33,299.41 17.36,13.32 36.23,25.53 56.49,36.69 -65.11,-64.76 -103.65,-152.25 -103.65,-270.53l0 -1182.76c0,-256.47 105.21,-383.31 294.98,-450.6 114.13,-40.43 263.62,-58.77 420.15,-66.67l0 -36.81c0.34,0.03 0.74,0.11 1.16,0.21l0 -0.23zm-4159.26 4.23l0 -0.01 -9.62 -0.95 0 -0.01 -9.65 -0.91 0 -0.01 -9.69 -0.87 0 -0.01 -9.73 -0.83 0 -0.01 -9.76 -0.8 0 -0.01 -9.8 -0.75 -0.01 -0.01 -9.83 -0.72 0 -0.01 -9.87 -0.67 -0.01 -0.01 -9.9 -0.64 0 -0.01 -9.95 -0.61 0 -0.01 -9.97 -0.56 -0.01 -0.01 -10.01 -0.53 0 -0.01 -10.04 -0.49 -0.01 -0.01 -10.08 -0.46 0 -0.01 -10.11 -0.41 0 -0.01 -10.15 -0.39 0 -0.01 -10.18 -0.34 0 -0.01 -10.21 -0.32 -0.01 -0.01 -10.24 -0.27 0 -0.01 -10.28 -0.25 0 -0.01 -10.31 -0.2 0 -0.01 -10.34 -0.18 0 -0.01 -10.37 -0.14 -0.01 -0.01 -10.39 -0.1 -0.01 -0.01 -10.42 -0.07 -0.01 -0.01 -10.46 -0.04 -0.01 -0.01 -10.48 -0.01 271.93 12.78zm1716.01 -4.21c0.41,0.03 0.88,0.12 1.39,0.25l-1.39 -0.25z"/>
   </g>
   <g id="_1571272634416">
    <path class="fil0" d="M9.23 8391.49l183.79 0 0 -370.08 246.19 0 0 -164.49 -246.19 0 0 -191.08 369.85 0 0 -162.08 -553.64 0 0 887.73zm881.53 -604.72c-0.18,-7.26 0.2,-16.53 0.76,-27.61 0.76,-11.29 2.64,-23.19 5.67,-35.67 3.21,-12.5 8.33,-24.4 15.31,-35.48 7.19,-11.09 17.22,-20.16 29.89,-27.02 12.85,-7.05 29.31,-10.68 49.35,-10.88 23.83,0.2 42.55,4.44 55.78,12.7 13.23,8.27 22.89,18.95 28.56,32.45 5.85,13.5 9.45,28.23 10.6,44.14 1.31,15.93 1.7,31.66 1.5,47.37l0 308.42c0.2,12.48 -0.19,26 -0.76,40.31 -0.74,14.31 -2.46,28.41 -5.49,42.52 -3.03,14.12 -8.12,26.82 -15.12,38.3 -6.99,11.7 -16.65,20.97 -29.12,27.83 -12.48,6.85 -28.55,10.48 -48.22,10.68 -26.84,-0.2 -47.65,-7.05 -61.83,-20.77 -14.37,-13.5 -24.21,-32.25 -29.49,-56.04 -5.12,-23.98 -7.76,-51.59 -7.39,-82.83l0 -308.42zm-186.05 268.51c0,13.3 0.37,29.82 1.51,49.58 1.14,19.95 3.21,41.12 6.43,63.69 3.01,22.59 7.55,44.36 13.61,65.71 8.51,29.84 20.24,55.44 34.98,76.4 14.93,21.17 31.59,38.51 50.3,52.21 18.73,13.71 38.2,24.39 58.42,32.05 20.24,7.86 40.1,13.1 59.76,16.33 19.48,3.03 37.62,4.63 54.08,4.43 13.61,0.2 29.31,-0.6 47.47,-2.62 18.15,-1.81 37.44,-5.64 57.85,-11.7 20.24,-5.84 40.47,-14.71 60.71,-26.59 20.02,-11.7 38.95,-27.62 56.34,-47.37 17.39,-19.96 31.19,-42.54 41.78,-67.94 10.41,-25.2 17.97,-54.02 22.7,-86.26 4.74,-32.46 7,-69.36 7,-110.67l0 -215.28c0,-47.37 -2.85,-88.29 -8.52,-122.76 -5.65,-34.67 -13.8,-64.1 -24.58,-88.69 -10.77,-24.59 -24.01,-45.56 -39.51,-63.1 -18.54,-21.15 -39.53,-38.1 -62.6,-50.79 -23.07,-12.49 -47.84,-21.56 -74.12,-27 -26.28,-5.44 -53.7,-8.27 -82.25,-8.07 -26.28,-0.2 -52,2.63 -77.34,8.27 -25.34,5.64 -49.17,14.51 -71.48,27.01 -22.31,12.48 -42.35,28.81 -59.94,49.38 -19.09,22.57 -34.02,47.17 -44.42,73.57 -10.6,26.41 -17.97,54.02 -22.13,83.05 -4.17,28.82 -6.24,58.45 -6.05,88.89l0 238.27zm772.61 22.97c-0.19,20.15 0.4,41.12 1.9,63.29 1.31,22.17 4.54,44.56 9.82,67.52 5.3,22.79 13.62,45.36 25.16,67.74 11.54,22.17 27.23,43.54 47.08,63.9 17.21,16.92 38.01,30.84 62.4,41.72 24.39,10.89 50.68,18.94 79.05,24.19 28.37,5.24 57.29,7.87 86.59,7.87 38.2,0.2 74.7,-4.85 109.48,-15.33 34.81,-10.49 66.75,-27.81 95.88,-52.41 17.02,-14.91 30.82,-31.44 41.59,-49.78 10.97,-18.14 19.47,-37.1 25.53,-56.64 6.06,-19.36 10.58,-38.51 13.24,-57.25 2.83,-18.54 4.34,-35.89 5.1,-51.6 0.57,-15.73 0.94,-29.03 0.76,-39.91l0 -587.8 -184.93 0 0 586.59c-0.2,32.25 -3.01,58.65 -8.7,79 -5.67,20.57 -13.23,36.7 -22.31,47.99 -9.07,11.48 -18.91,19.75 -29.5,24.79 -10.58,4.83 -20.8,7.86 -30.63,9.07 -10.02,1 -18.54,1.4 -25.71,1.2 -22.31,-0.2 -40.67,-4.22 -54.84,-11.88 -14.18,-7.66 -25.34,-17.74 -33.28,-30.24 -7.94,-12.5 -13.61,-26 -17.03,-40.71 -3.4,-14.52 -5.47,-29.03 -6.24,-42.94 -0.74,-14.11 -1.11,-26.61 -0.93,-37.5l0 -585.37 -189.48 0 0 574.49zm820.29 313.24l167.92 0 0 -416.04c0,-4.84 -0.2,-12.49 -0.59,-23.18 -0.19,-10.48 -0.56,-22.58 -1.13,-36.08 -0.37,-13.52 -0.94,-27.01 -1.51,-40.73 -0.56,-13.5 -0.95,-25.8 -1.52,-36.68 -0.37,-10.88 -0.74,-18.94 -0.94,-24.18l5.69 0c8.5,21.37 15.68,39.09 21.35,53.21 5.69,14.11 10.21,25.59 14,34.66 3.79,9.08 7,16.75 9.64,22.79 2.64,6.04 5.47,11.88 8.13,17.33 2.66,5.44 5.67,11.5 9.26,18.35l221.24 430.55 149.77 0 0 -887.73 -167.91 0 0 330.19c0,8.26 0,15.51 0,21.56 0.18,6.25 0.18,12.7 0.37,19.15 0.18,6.66 0.55,14.72 1.14,24.19 0.37,9.48 1.11,21.77 1.88,36.69l4.53 89.5 -5.67 0c-1.14,-2.42 -3.03,-6.66 -5.47,-13.1 -2.27,-6.26 -4.74,-12.7 -7.18,-19.16 -2.48,-6.44 -4.18,-11.08 -5.5,-13.7 -3.97,-9.28 -8.7,-19.35 -13.8,-30.24 -4.92,-10.88 -9.83,-20.97 -14.56,-30.24l-214.42 -414.84 -174.72 0 0 887.73zm802.12 0c34.6,0 67.33,0 98.32,0 31.02,0 59.2,-0.2 84.34,-0.4 25.14,0 46.14,-0.2 62.97,-0.61 17.01,-0.4 28.35,-0.8 34.61,-1.4 22.11,-1.82 43.1,-4.24 62.58,-7.06 19.47,-2.83 38.75,-7.05 57.48,-12.9 18.9,-5.85 38.2,-14.11 58.05,-24.79 22.89,-12.5 41.79,-28.23 56.73,-46.97 14.94,-18.54 26.67,-39.31 34.98,-62.08 8.5,-22.99 14.56,-46.97 17.97,-71.97 3.4,-25 5.1,-50.19 4.92,-75.38l1.14 -151.19c0,-39.71 -0.59,-74.58 -1.7,-104.2 -1.14,-29.84 -3.03,-55.64 -5.5,-77.61 -2.46,-21.97 -5.49,-41.13 -9.44,-57.25 -3.99,-16.13 -8.7,-30.64 -14.2,-43.34 -5.49,-12.7 -11.92,-24.59 -19.1,-35.67 -11.53,-18.54 -25.53,-34.87 -41.78,-49.18 -16.45,-14.12 -36.69,-26.21 -61.07,-35.89 -24.21,-9.88 -54.27,-17.34 -90.01,-22.17 -35.74,-5.04 -78.86,-7.67 -129.34,-7.67l-201.95 0 0 887.73zm186.06 -730.5c24.21,-0.2 45.38,0.2 63.17,0.82 17.95,0.8 33.27,2.61 46.51,6.04 13.05,3.23 24.77,8.47 34.78,16.13 10.03,7.45 19.3,17.94 28,31.44 9.26,14.51 16.25,32.45 20.61,53.62 4.34,21.37 7.17,46.16 8.32,74.38 1.32,28.41 1.88,60.27 1.7,95.75 0,10.27 -0.19,21.97 -0.58,34.87 -0.37,13.1 -0.75,26 -1.12,39.1 -0.38,12.9 -0.58,24.6 -0.58,34.88 0,33.85 -2.82,62.08 -8.31,84.65 -5.49,22.58 -13.04,40.73 -22.7,54.23 -9.63,13.51 -20.8,23.38 -33.45,30.24 -12.5,6.65 -26.11,10.88 -40.29,13.09 -14.38,2.02 -28.92,3.03 -43.86,2.83l-52.2 0 0 -572.07zm915.59 402.74l-187.2 0 90.75 -401.52 4.54 0 91.91 401.52zm-205.36 -559.97l-234.85 887.73 178.13 0 43.11 -176.57 255.26 0 41.99 176.57 178.13 0 -240.54 -887.73 -221.23 0zm487.85 0l0 162.08 212.15 0 0 725.65 190.6 0 0 -725.65 207.63 0 0 -162.08 -610.38 0zm1061.93 887.73l0 -81.03 -98.71 0 0 -729.29 98.71 0 0 -77.41 -380.07 0 0 77.41 97.56 0 0 731.71 -97.56 0 0 78.61 380.07 0zm308.59 -604.72c-0.2,-7.26 0.2,-16.53 0.76,-27.61 0.76,-11.29 2.64,-23.19 5.67,-35.67 3.21,-12.5 8.31,-24.4 15.31,-35.48 7.19,-11.09 17.22,-20.16 29.89,-27.02 12.85,-7.05 29.31,-10.68 49.35,-10.88 23.83,0.2 42.54,4.44 55.78,12.7 13.23,8.27 22.87,18.95 28.54,32.45 5.87,13.5 9.47,28.23 10.6,44.14 1.32,15.93 1.7,31.66 1.5,47.37l0 308.42c0.2,12.48 -0.18,26 -0.74,40.31 -0.76,14.31 -2.46,28.41 -5.49,42.52 -3.03,14.12 -8.13,26.82 -15.12,38.3 -7,11.7 -16.65,20.97 -29.12,27.83 -12.5,6.85 -28.55,10.48 -48.24,10.68 -26.82,-0.2 -47.64,-7.05 -61.82,-20.77 -14.36,-13.5 -24.2,-32.25 -29.48,-56.04 -5.12,-23.98 -7.77,-51.59 -7.39,-82.83l0 -308.42zm-186.07 268.51c0,13.3 0.39,29.82 1.51,49.58 1.15,19.95 3.23,41.12 6.45,63.69 3.01,22.59 7.55,44.36 13.61,65.71 8.51,29.84 20.23,55.44 34.97,76.4 14.94,21.17 31.58,38.51 50.31,52.21 18.71,13.71 38.18,24.39 58.42,32.05 20.23,7.86 40.09,13.1 59.76,16.33 19.48,3.03 37.62,4.63 54.08,4.43 13.61,0.2 29.3,-0.6 47.45,-2.62 18.16,-1.81 37.44,-5.64 57.87,-11.7 20.22,-5.84 40.47,-14.71 60.69,-26.59 20.04,-11.7 38.96,-27.62 56.36,-47.37 17.39,-19.96 31.19,-42.54 41.78,-67.94 10.41,-25.2 17.97,-54.02 22.7,-86.26 4.72,-32.46 7,-69.36 7,-110.67l0 -215.28c0,-47.37 -2.85,-88.29 -8.52,-122.76 -5.67,-34.67 -13.8,-64.1 -24.58,-88.69 -10.79,-24.59 -24.01,-45.56 -39.53,-63.1 -18.52,-21.15 -39.51,-38.1 -62.58,-50.79 -23.07,-12.49 -47.84,-21.56 -74.12,-27 -26.28,-5.44 -53.71,-8.27 -82.27,-8.07 -26.26,-0.2 -51.99,2.63 -77.32,8.27 -25.34,5.64 -49.17,14.51 -71.48,27.01 -22.31,12.48 -42.35,28.81 -59.94,49.38 -19.11,22.57 -34.04,47.17 -44.44,73.57 -10.6,26.41 -17.97,54.02 -22.12,83.05 -4.16,28.82 -6.25,58.45 -6.06,88.89l0 238.27zm773.77 336.21l167.91 0 0 -416.04c0,-4.84 -0.18,-12.49 -0.58,-23.18 -0.19,-10.48 -0.56,-22.58 -1.12,-36.08 -0.38,-13.52 -0.95,-27.01 -1.51,-40.73 -0.57,-13.5 -0.96,-25.8 -1.51,-36.68 -0.39,-10.88 -0.76,-18.94 -0.96,-24.18l5.68 0c8.5,21.37 15.69,39.09 21.36,53.21 5.69,14.11 10.21,25.59 14,34.66 3.78,9.08 7,16.75 9.64,22.79 2.66,6.04 5.47,11.88 8.13,17.33 2.66,5.44 5.67,11.5 9.26,18.35l221.24 430.55 149.77 0 0 -887.73 -167.92 0 0 330.19c0,8.26 0,15.51 0,21.56 0.19,6.25 0.19,12.7 0.38,19.15 0.18,6.66 0.57,14.72 1.14,24.19 0.37,9.48 1.13,21.77 1.88,36.69l4.53 89.5 -5.67 0c-1.13,-2.42 -3.03,-6.66 -5.47,-13.1 -2.27,-6.26 -4.73,-12.7 -7.19,-19.16 -2.47,-6.44 -4.17,-11.08 -5.49,-13.7 -3.96,-9.28 -8.7,-19.35 -13.8,-30.24 -4.92,-10.88 -9.83,-20.97 -14.56,-30.24l-214.43 -414.84 -174.71 0 0 887.73z"/>
    <path class="fil0" d="M2.42 7264.46l7047.77 0 0 95.45 -7047.77 0 0 -95.45zm0 1278.17l7047.77 0 0 95.45 -7047.77 0 0 -95.45z"/>
   </g>
   <g id="_1571272633216">
    <path class="fil3" d="M73.48 9034.76l29.19 0c21.68,0 37.52,-4.24 47.32,-12.65 9.88,-8.41 14.81,-21.96 14.81,-40.72 0,-15.36 -3.89,-26.83 -11.6,-34.47 -7.79,-7.57 -19.47,-11.4 -35.03,-11.4l-44.69 0 0 99.24zm39.13 -130.51c32.03,0 55.32,5.77 69.91,17.31 14.6,11.53 21.89,29.88 21.89,54.96 0,19.95 -4.24,35.93 -12.71,47.95 -8.48,12.02 -21.41,20.43 -38.92,25.3 16.12,1.8 27.59,7.36 34.4,16.81 6.74,9.45 10.14,24.81 10.14,46.07 0,4.24 -0.06,9.66 -0.2,16.4 -0.14,6.74 -0.21,11.4 -0.21,14.18 0,11.4 0.62,22.1 1.94,32.24 1.25,10.08 3.27,19.74 5.98,28.98l-40.86 0c-4.03,-13.41 -6.19,-35.79 -6.46,-66.99 -0.14,-11.26 -0.35,-19.94 -0.63,-25.99 -0.42,-16.47 -3.26,-27.93 -8.69,-34.4 -5.36,-6.53 -14.39,-9.79 -27.18,-9.79l-47.53 0 0 137.17 -39.61 0 0 -300.2 78.74 0zm166.85 176.79l80.89 0 0 -17.86c0,-15.78 -3.27,-27.66 -9.8,-35.79 -6.53,-8.13 -16.05,-12.23 -28.7,-12.23 -14.1,0 -24.6,5.28 -31.48,15.84 -6.88,10.57 -10.49,27.24 -10.91,50.04zm116.33 57.95c-1.11,22.1 -8.27,39.33 -21.47,51.77 -13.21,12.44 -31.07,18.69 -53.65,18.69 -27.93,0 -47.95,-8.54 -60.11,-25.64 -12.16,-17.09 -18.2,-45.65 -18.2,-85.61 0,-37.59 6.25,-64.9 18.69,-82 12.51,-17.09 32.38,-25.64 59.62,-25.64 25.92,0 44.96,6.81 56.98,20.43 12.09,13.62 18.14,35.16 18.14,64.56l0 32.59 -116.54 0 0 12.02c0,20.64 3.27,35.65 9.87,44.89 6.6,9.31 17.1,13.97 31.48,13.97 11.05,0 19.88,-3.48 26.62,-10.36 6.74,-6.95 10.98,-16.81 12.71,-29.67l35.86 0zm70.95 -39.96c0,28.36 3.2,48.79 9.59,61.29 6.32,12.44 16.61,18.7 30.85,18.7 15.08,0 26.13,-6.4 33.15,-19.11 7.09,-12.79 10.56,-33.08 10.56,-60.88 0,-29.6 -3.26,-50.72 -9.94,-63.51 -6.67,-12.72 -17.51,-19.11 -32.52,-19.11 -15.22,0 -25.92,5.98 -32.24,18 -6.32,12.02 -9.45,33.56 -9.45,64.62zm-24.18 128.77l40.86 0c0.27,9.52 3.12,17.16 8.54,22.79 5.42,5.63 12.58,8.48 21.55,8.48 13.13,0 22.37,-3.41 27.72,-10.22 5.35,-6.81 8.06,-19.52 8.06,-38.15l0 -30.09c-7.43,9.87 -15.28,17.17 -23.41,21.82 -8.14,4.66 -17.03,7.02 -26.62,7.02 -24.04,0 -41.62,-9.03 -52.81,-27.17 -11.19,-18.06 -16.82,-46.56 -16.82,-85.33 0,-36.9 5.63,-64 16.82,-81.3 11.19,-17.31 28.63,-25.92 52.39,-25.92 10.57,0 20.02,2.08 28.29,6.32 8.27,4.17 15.63,10.56 22.16,19.11l2.02 -20.01 36.27 0c-0.62,4.72 -1.18,10.07 -1.53,16.05 -0.34,5.9 -0.48,12.92 -0.48,21.05l0 183.32c0,13.06 -0.98,23.07 -2.85,30.09 -1.88,7.02 -4.94,13.2 -9.17,18.48 -6.12,7.72 -13.97,13.34 -23.56,16.82 -9.52,3.47 -21.89,5.21 -36.97,5.21 -21.68,0 -38.71,-5.07 -50.94,-15.22 -12.16,-10.14 -18.69,-24.53 -19.52,-43.15zm192.7 -285.19l0 -38.36 34.6 0 0 38.36 -34.6 0zm0 261.84l0 -209.3 34.6 0 0 209.3 -34.6 0zm76.31 -63.79l39.19 0c0.42,12.78 3.61,22.51 9.59,29.18 5.97,6.68 14.59,10.01 25.85,10.01 10.28,0 18.55,-2.57 24.81,-7.64 6.25,-5.08 9.38,-11.89 9.38,-20.29 0,-6.26 -2.36,-11.96 -7.02,-17.1 -4.73,-5.21 -12.51,-10.63 -23.35,-16.33l-38.01 -19.53c-13.76,-7.15 -23.42,-14.45 -29.05,-21.89 -5.63,-7.36 -8.47,-16.46 -8.47,-27.3 0,-17.93 6.67,-32.39 19.94,-43.44 13.34,-11.04 30.85,-16.6 52.53,-16.6 21.2,0 37.94,5 50.31,15.08 12.37,10 18.56,23.62 18.56,40.86l0 3.68 -38.36 0c0,-10.29 -2.99,-18.35 -8.96,-24.18 -5.98,-5.84 -14.18,-8.76 -24.81,-8.76 -9.31,0 -16.96,2.5 -22.86,7.44 -5.91,4.93 -8.83,11.18 -8.83,18.76 0,5.35 1.6,9.93 4.86,13.83 3.27,3.96 8.76,7.85 16.47,11.6l34.54 17.1c19.8,9.93 33.29,19.24 40.51,28 7.16,8.76 10.77,19.53 10.77,32.45 0,19.39 -6.74,34.89 -20.29,46.49 -13.48,11.61 -31.48,17.37 -53.99,17.37 -24.04,0 -42.25,-5.83 -54.55,-17.51 -12.37,-11.67 -18.62,-28.77 -18.76,-51.28zm233.55 -204.72l0 59.21 41.7 0 0 25.85 -41.7 0 0 125.36c0,11.25 1.74,19.04 5.21,23.34 3.41,4.24 9.8,6.4 18.98,6.4 3.26,0 8.68,-0.28 16.26,-0.84l1.25 0 -0.21 27.17c-5.56,1.26 -10.77,2.16 -15.64,2.78 -4.93,0.63 -9.45,0.91 -13.69,0.91 -17.65,0 -30.02,-3.48 -37.24,-10.43 -7.16,-6.94 -10.77,-19.17 -10.77,-36.69l0 -138 -31.76 0 0 -25.85 31.76 0 0 -42.11 35.85 -17.1zm104.31 58.79l3.34 27.45c3.82,-10.43 10.14,-18.42 19.11,-24.05 8.96,-5.62 20.08,-8.4 33.35,-8.4 0.7,0 1.74,0.07 3.2,0.2 1.39,0.14 2.57,0.21 3.54,0.21l0 36.69c-1.25,0 -2.85,-0.07 -4.86,-0.2 -2.09,-0.14 -3.48,-0.21 -4.31,-0.21 -18,0 -30.86,3.89 -38.57,11.74 -7.64,7.78 -11.46,20.92 -11.46,39.4l0 126.89 -35.86 0 0 -174.35c0,-1.67 -0.7,-9.66 -2.16,-23.97 -0.55,-4.87 -0.9,-8.69 -1.18,-11.4l35.86 0zm122.58 55.04l-38.35 0 0 -4.1c0,-18.14 6.25,-31.97 18.83,-41.35 12.51,-9.45 30.99,-14.18 55.45,-14.18 24.11,0 41.9,4.94 53.3,14.73 11.41,9.87 17.1,25.23 17.1,46.15l0 97.63c0,9.66 0.28,19.11 0.91,28.42 0.62,9.31 1.53,18.42 2.78,27.38l-35.87 0 -2.43 -26.34c-7.09,9.11 -15.29,16.12 -24.67,21.06 -9.38,4.93 -19.18,7.36 -29.53,7.36 -17.79,0 -32.25,-5.9 -43.37,-17.72 -11.11,-11.81 -16.67,-27.24 -16.67,-46.41 0,-23.98 7.78,-42.12 23.28,-54.28 15.56,-12.23 38.77,-18.34 69.56,-18.34l20.15 0 0 -10.43c0,-16.39 -2.43,-27.72 -7.23,-33.98 -4.79,-6.25 -13.13,-9.38 -24.95,-9.38 -12.64,0 -22.16,2.71 -28.63,8.06 -6.46,5.35 -9.66,13.21 -9.66,23.7l0 2.02zm70.88 45.02c-28.9,0 -49.06,3.34 -60.45,10.08 -11.4,6.67 -17.1,18 -17.1,33.98 0,10.36 3.13,18.9 9.38,25.71 6.26,6.88 14.11,10.29 23.56,10.29 14.18,0 25.09,-5.49 32.87,-16.54 7.85,-11.05 11.74,-26.82 11.74,-47.25l0 -16.27zm128.92 -158.85l0 59.21 41.7 0 0 25.85 -41.7 0 0 125.36c0,11.25 1.74,19.04 5.21,23.34 3.41,4.24 9.8,6.4 18.98,6.4 3.26,0 8.68,-0.28 16.26,-0.84l1.25 0 -0.21 27.17c-5.56,1.26 -10.77,2.16 -15.64,2.78 -4.93,0.63 -9.45,0.91 -13.69,0.91 -17.65,0 -30.02,-3.48 -37.24,-10.43 -7.16,-6.94 -10.77,-19.17 -10.77,-36.69l0 -138 -31.76 0 0 -25.85 31.76 0 0 -42.11 35.85 -17.1zm74.71 6.67l0 -38.36 34.6 0 0 38.36 -34.6 0zm0 261.84l0 -209.3 34.6 0 0 209.3 -34.6 0zm78.8 -105.07c0,-38.08 6.25,-65.74 18.83,-82.97 12.58,-17.23 32.52,-25.85 59.97,-25.85 27.52,0 47.53,8.55 59.83,25.71 12.37,17.17 18.55,45.03 18.55,83.53 0,38.5 -6.18,66.43 -18.62,83.73 -12.44,17.31 -32.31,25.92 -59.76,25.92 -27.73,0 -47.74,-8.61 -60.18,-25.92 -12.44,-17.3 -18.62,-45.37 -18.62,-84.15zm78.8 -78.38c-14.94,0 -25.64,6.11 -32.24,18.34 -6.6,12.23 -9.87,32.38 -9.87,60.46 0,28.63 3.27,48.99 9.73,61.08 6.53,12.09 17.3,18.14 32.38,18.14 14.94,0 25.57,-6.05 32.03,-18.14 6.47,-12.09 9.66,-32.31 9.66,-60.67 0,-28.76 -3.19,-49.19 -9.66,-61.22 -6.46,-12.02 -17.09,-17.99 -32.03,-17.99zm231.34 183.45l0 -133.7c0,-20.36 -2.64,-34.26 -7.86,-41.76 -5.21,-7.58 -14.11,-11.33 -26.75,-11.33 -14.25,0 -24.6,5.28 -31.14,15.78 -6.46,10.49 -9.72,27.24 -9.72,50.17l0 120.84 -35.86 0 0 -176.23c0,-4.44 -0.14,-9.45 -0.49,-14.87 -0.35,-5.49 -0.83,-11.53 -1.53,-18.2l36.62 0 1.67 24.32c7.3,-10.15 15.43,-17.58 24.32,-22.31 8.9,-4.65 19.25,-7.02 31.07,-7.02 17.24,0 30.86,5.08 40.87,15.15 10.07,10.15 15.08,23.91 15.08,41.28l0 157.88 -36.28 0zm259.41 -184.29c-14.8,0 -25.64,6.19 -32.38,18.63 -6.81,12.43 -10.22,32.24 -10.22,59.41 0,29.88 3.2,51.35 9.59,64.49 6.39,13.13 16.61,19.66 30.79,19.66 15.21,0 25.92,-5.97 32.1,-17.86 6.18,-11.88 9.24,-33.28 9.24,-64.28 0,-27.65 -3.13,-47.94 -9.38,-60.8 -6.25,-12.85 -16.19,-19.25 -29.74,-19.25zm-80.47 184.29c0.69,-4.86 1.18,-10.28 1.53,-16.26 0.35,-5.98 0.48,-13 0.48,-21.13l0 -262.81 36.28 0 0 113.9c5.97,-9.45 13.13,-16.61 21.4,-21.34 8.27,-4.72 17.86,-7.08 28.77,-7.08 23.21,0 40.37,9.17 51.49,27.44 11.19,18.35 16.75,46.7 16.75,85.06 0,36.76 -5.7,63.86 -17.03,81.37 -11.32,17.51 -29.04,26.27 -53.09,26.27 -10.98,0 -20.56,-2.08 -28.63,-6.18 -8.06,-4.1 -14.52,-10.22 -19.24,-18.28l-4.73 19.04 -33.98 0zm263.57 79.22l-35.44 0 23 -79.22 -71.85 -209.3 42.11 0 50.1 165.52 49.69 -165.52 38.63 0 -96.24 288.52zm369.91 -297.7c-0.28,-17.65 -4.66,-31.13 -13.13,-40.37 -8.48,-9.24 -20.64,-13.83 -36.49,-13.83 -21.82,0 -36.76,7.65 -44.89,23 -8.13,15.36 -12.23,48.23 -12.23,98.75 0,48.99 4.52,81.58 13.55,97.84 8.97,16.19 25.02,24.32 48.09,24.32 5.84,0 12.65,-0.49 20.43,-1.39 7.78,-0.97 16.89,-2.5 27.17,-4.52l0 -88.73 -41.69 0 0 -34.61 80.88 0 0 150.38c-18.34,4.37 -34.46,7.57 -48.43,9.59 -13.97,2.01 -26.89,3.05 -38.71,3.05 -17.58,0 -32.59,-2.08 -44.89,-6.32 -12.23,-4.17 -22.23,-10.56 -29.95,-19.11 -9.79,-10.7 -16.81,-26.06 -20.98,-45.93 -4.24,-19.88 -6.33,-49.62 -6.33,-89.23 0,-30.5 1.53,-54.27 4.66,-71.23 3.13,-16.95 8.27,-31.13 15.5,-42.52 7.29,-11.54 17.72,-20.36 31.13,-26.41 13.41,-6.05 29.46,-9.03 48.02,-9.03 28.35,0 50.31,7.43 65.87,22.37 15.5,14.94 23.28,36 23.28,63.1l0 0.83 -40.86 0zm85.82 113.41c0,-38.08 6.25,-65.74 18.83,-82.97 12.58,-17.23 32.52,-25.85 59.97,-25.85 27.52,0 47.53,8.55 59.83,25.71 12.37,17.17 18.55,45.03 18.55,83.53 0,38.5 -6.18,66.43 -18.62,83.73 -12.44,17.31 -32.31,25.92 -59.76,25.92 -27.73,0 -47.74,-8.61 -60.18,-25.92 -12.44,-17.3 -18.62,-45.37 -18.62,-84.15zm78.8 -78.38c-14.94,0 -25.64,6.11 -32.24,18.34 -6.6,12.23 -9.87,32.38 -9.87,60.46 0,28.63 3.27,48.99 9.73,61.08 6.53,12.09 17.3,18.14 32.38,18.14 14.94,0 25.57,-6.05 32.03,-18.14 6.47,-12.09 9.66,-32.31 9.66,-60.67 0,-28.76 -3.19,-49.19 -9.66,-61.22 -6.46,-12.02 -17.09,-17.99 -32.03,-17.99zm165.88 183.45l-65.47 -209.3 41.71 0 32.93 120.56c2.71,10.01 5.15,20.29 7.3,30.79 2.22,10.56 4.1,21.4 5.77,32.52 4.31,-19.04 9.24,-38.01 14.87,-57.05 0.9,-3.13 1.53,-5.15 1.81,-6.12l33.56 -120.7 37.59 0 -65.46 209.3 -44.61 0zm169.69 -123.41l80.89 0 0 -17.86c0,-15.78 -3.27,-27.66 -9.8,-35.79 -6.53,-8.13 -16.05,-12.23 -28.7,-12.23 -14.1,0 -24.6,5.28 -31.48,15.84 -6.88,10.57 -10.49,27.24 -10.91,50.04zm116.33 57.95c-1.11,22.1 -8.27,39.33 -21.47,51.77 -13.21,12.44 -31.07,18.69 -53.65,18.69 -27.93,0 -47.95,-8.54 -60.11,-25.64 -12.16,-17.09 -18.2,-45.65 -18.2,-85.61 0,-37.59 6.25,-64.9 18.69,-82 12.51,-17.09 32.38,-25.64 59.62,-25.64 25.92,0 44.96,6.81 56.98,20.43 12.09,13.62 18.14,35.16 18.14,64.56l0 32.59 -116.54 0 0 12.02c0,20.64 3.27,35.65 9.87,44.89 6.6,9.31 17.1,13.97 31.48,13.97 11.05,0 19.88,-3.48 26.62,-10.36 6.74,-6.95 10.98,-16.81 12.71,-29.67l35.86 0zm72.2 -144.26l3.34 27.45c3.82,-10.43 10.14,-18.42 19.11,-24.05 8.96,-5.62 20.08,-8.4 33.35,-8.4 0.7,0 1.74,0.07 3.2,0.2 1.39,0.14 2.57,0.21 3.54,0.21l0 36.69c-1.25,0 -2.85,-0.07 -4.86,-0.2 -2.09,-0.14 -3.48,-0.21 -4.31,-0.21 -18,0 -30.86,3.89 -38.57,11.74 -7.64,7.78 -11.46,20.92 -11.46,39.4l0 126.89 -35.86 0 0 -174.35c0,-1.67 -0.7,-9.66 -2.16,-23.97 -0.55,-4.87 -0.9,-8.69 -1.18,-11.4l35.86 0zm199.31 209.72l0 -133.7c0,-20.36 -2.64,-34.26 -7.85,-41.76 -5.21,-7.58 -14.11,-11.33 -26.76,-11.33 -14.25,0 -24.6,5.28 -31.14,15.78 -6.46,10.49 -9.72,27.24 -9.72,50.17l0 120.84 -35.86 0 0 -176.23c0,-4.44 -0.14,-9.45 -0.49,-14.87 -0.35,-5.49 -0.83,-11.53 -1.53,-18.2l36.62 0 1.67 24.32c7.3,-10.15 15.43,-17.58 24.32,-22.31 8.9,-4.65 19.25,-7.02 31.08,-7.02 17.23,0 30.85,5.08 40.86,15.15 10.07,10.15 15.08,23.91 15.08,41.28l0 157.88 -36.28 0zm117.92 -184.98c7.3,-10.15 15.43,-17.58 24.32,-22.31 8.9,-4.65 19.25,-7.02 31.07,-7.02 13.13,0 24.39,3.06 33.77,9.25 9.31,6.18 15.98,14.8 19.94,25.78 6.12,-11.54 14.04,-20.23 23.77,-26.13 9.66,-5.91 21.12,-8.9 34.33,-8.9 17.23,0 30.78,5.01 40.65,15.08 9.86,10.01 14.8,23.84 14.8,41.35l0 157.88 -35.86 0 0 -133.7c0,-20.36 -2.57,-34.26 -7.78,-41.76 -5.14,-7.58 -14.11,-11.33 -26.89,-11.33 -13.97,0 -24.33,5.28 -30.93,15.84 -6.6,10.64 -9.86,27.31 -9.86,50.11l0 120.84 -36.28 0 0 -133.7c0,-20.36 -2.64,-34.26 -7.85,-41.76 -5.21,-7.58 -14.11,-11.33 -26.75,-11.33 -14.25,0 -24.6,5.28 -31.14,15.78 -6.46,10.49 -9.72,27.24 -9.72,50.17l0 120.84 -35.86 0 0 -176.23c0,-4.44 -0.14,-9.45 -0.49,-14.87 -0.35,-5.49 -0.83,-11.53 -1.53,-18.2l36.62 0 1.67 24.32zm300.61 61.57l80.89 0 0 -17.86c0,-15.78 -3.27,-27.66 -9.8,-35.79 -6.53,-8.13 -16.05,-12.23 -28.7,-12.23 -14.1,0 -24.6,5.28 -31.48,15.84 -6.88,10.57 -10.49,27.24 -10.91,50.04zm116.34 57.95c-1.11,22.1 -8.28,39.33 -21.48,51.77 -13.21,12.44 -31.07,18.69 -53.65,18.69 -27.93,0 -47.95,-8.54 -60.11,-25.64 -12.16,-17.09 -18.2,-45.65 -18.2,-85.61 0,-37.59 6.25,-64.9 18.69,-82 12.51,-17.09 32.38,-25.64 59.62,-25.64 25.92,0 44.96,6.81 56.98,20.43 12.09,13.62 18.15,35.16 18.15,64.56l0 32.59 -116.55 0 0 12.02c0,20.64 3.27,35.65 9.87,44.89 6.6,9.31 17.1,13.97 31.48,13.97 11.05,0 19.88,-3.48 26.62,-10.36 6.74,-6.95 10.98,-16.81 12.71,-29.67l35.87 0zm151 65.46l0 -133.7c0,-20.36 -2.64,-34.26 -7.85,-41.76 -5.21,-7.58 -14.11,-11.33 -26.75,-11.33 -14.25,0 -24.6,5.28 -31.14,15.78 -6.46,10.49 -9.72,27.24 -9.72,50.17l0 120.84 -35.86 0 0 -176.23c0,-4.44 -0.14,-9.45 -0.49,-14.87 -0.35,-5.49 -0.83,-11.53 -1.53,-18.2l36.62 0 1.67 24.32c7.3,-10.15 15.43,-17.58 24.32,-22.31 8.9,-4.65 19.25,-7.02 31.07,-7.02 17.23,0 30.85,5.08 40.86,15.15 10.07,10.15 15.08,23.91 15.08,41.28l0 157.88 -36.28 0zm128.76 -268.51l0 59.21 41.7 0 0 25.85 -41.7 0 0 125.36c0,11.25 1.74,19.04 5.21,23.34 3.41,4.24 9.8,6.4 18.98,6.4 3.26,0 8.68,-0.28 16.26,-0.84l1.25 0 -0.21 27.17c-5.56,1.26 -10.77,2.16 -15.64,2.78 -4.93,0.63 -9.45,0.91 -13.69,0.91 -17.65,0 -30.02,-3.48 -37.24,-10.43 -7.16,-6.94 -10.77,-19.17 -10.77,-36.69l0 -138 -31.76 0 0 -25.85 31.76 0 0 -42.11 35.85 -17.1zm166.51 163.44c0,-38.08 6.25,-65.74 18.83,-82.97 12.58,-17.23 32.52,-25.85 59.97,-25.85 27.52,0 47.54,8.55 59.84,25.71 12.37,17.17 18.55,45.03 18.55,83.53 0,38.5 -6.18,66.43 -18.62,83.73 -12.44,17.31 -32.32,25.92 -59.77,25.92 -27.73,0 -47.74,-8.61 -60.18,-25.92 -12.44,-17.3 -18.62,-45.37 -18.62,-84.15zm78.8 -78.38c-14.94,0 -25.64,6.11 -32.24,18.34 -6.6,12.23 -9.87,32.38 -9.87,60.46 0,28.63 3.27,48.99 9.73,61.08 6.53,12.09 17.3,18.14 32.38,18.14 14.94,0 25.57,-6.05 32.04,-18.14 6.47,-12.09 9.66,-32.31 9.66,-60.67 0,-28.76 -3.19,-49.19 -9.66,-61.22 -6.47,-12.02 -17.1,-17.99 -32.04,-17.99zm127.52 -61.64l0 -13.41c0,-9.94 1.12,-17.44 3.34,-22.45 2.29,-5 5.98,-9.38 11.12,-13.06 5.63,-3.62 12.44,-6.33 20.64,-8.13 8.13,-1.74 18.27,-2.64 30.36,-2.64l9.18 0 0 28.35c-15.78,0.42 -26.27,2.85 -31.41,7.3 -5.22,4.51 -7.79,16.12 -7.79,34.81l0 25.02 39.2 0 0 25.85 -39.2 0 0 183.45 -35.44 0 0 -183.45 -29.25 0 0 -25.85 29.25 0 0 -35.79zm203.47 245.09l0 -300.2 40.44 0 0 300.2 -40.44 0zm202.22 0l0 -133.7c0,-20.36 -2.64,-34.26 -7.85,-41.76 -5.21,-7.58 -14.11,-11.33 -26.75,-11.33 -14.25,0 -24.6,5.28 -31.14,15.78 -6.46,10.49 -9.72,27.24 -9.72,50.17l0 120.84 -35.86 0 0 -176.23c0,-4.44 -0.14,-9.45 -0.49,-14.87 -0.35,-5.49 -0.83,-11.53 -1.53,-18.2l36.62 0 1.67 24.32c7.3,-10.15 15.43,-17.58 24.32,-22.31 8.9,-4.65 19.25,-7.02 31.07,-7.02 17.23,0 30.85,5.08 40.86,15.15 10.07,10.15 15.08,23.91 15.08,41.28l0 157.88 -36.28 0zm194.23 -186.3l0 -113.9 36.28 0 0 262.81c0,10.71 0.14,18.56 0.41,23.56 0.28,5 0.7,9.45 1.18,13.34l-35.44 0 -2.01 -20.22c-6.67,8.62 -14.04,15.01 -22.17,19.11 -8.13,4.1 -17.44,6.19 -27.86,6.19 -23.63,0 -41,-8.62 -52.12,-25.85 -11.12,-17.24 -16.68,-44.2 -16.68,-80.96 0,-38.36 5.56,-66.71 16.68,-85.06 11.12,-18.27 28.35,-27.44 51.7,-27.44 10.7,0 20.22,2.36 28.56,7.08 8.34,4.73 15.5,11.89 21.47,21.34zm-42.11 2.01c-13.41,0 -23.35,6.47 -29.88,19.39 -6.46,12.86 -9.73,32.73 -9.73,59.48 0,31.2 3.13,52.96 9.45,65.12 6.33,12.16 17.03,18.2 32.25,18.2 13.96,0 24.11,-6.46 30.5,-19.39 6.33,-12.85 9.52,-33.77 9.52,-62.75 0,-28.49 -3.33,-48.99 -9.93,-61.42 -6.68,-12.44 -17.38,-18.63 -32.18,-18.63zm128.07 -77.55l0 -38.36 34.6 0 0 38.36 -34.6 0zm0 261.84l0 -209.3 34.6 0 0 209.3 -34.6 0zm118.82 -154.68l-38.35 0 0 -4.1c0,-18.14 6.25,-31.97 18.83,-41.35 12.51,-9.45 30.99,-14.18 55.45,-14.18 24.11,0 41.9,4.94 53.3,14.73 11.4,9.87 17.09,25.23 17.09,46.15l0 97.63c0,9.66 0.28,19.11 0.91,28.42 0.62,9.31 1.53,18.42 2.78,27.38l-35.86 0 -2.43 -26.34c-7.09,9.11 -15.29,16.12 -24.67,21.06 -9.38,4.93 -19.18,7.36 -29.53,7.36 -17.79,0 -32.25,-5.9 -43.37,-17.72 -11.11,-11.81 -16.67,-27.24 -16.67,-46.41 0,-23.98 7.78,-42.12 23.28,-54.28 15.56,-12.23 38.77,-18.34 69.56,-18.34l20.15 0 0 -10.43c0,-16.39 -2.43,-27.72 -7.23,-33.98 -4.79,-6.25 -13.13,-9.38 -24.95,-9.38 -12.64,0 -22.16,2.71 -28.63,8.06 -6.46,5.35 -9.66,13.21 -9.66,23.7l0 2.02zm70.88 45.02c-28.9,0 -49.06,3.34 -60.45,10.08 -11.4,6.67 -17.1,18 -17.1,33.98 0,10.36 3.13,18.9 9.38,25.71 6.26,6.88 14.11,10.29 23.56,10.29 14.18,0 25.09,-5.49 32.87,-16.54 7.85,-11.05 11.74,-26.82 11.74,-47.25l0 -16.27zm186.12 109.66l0 -300.2 63.93 0 64.56 206.39c1.18,4.31 2.84,10.49 4.93,18.41 2.15,7.93 4.59,17.65 7.43,29.19 2.09,-9.73 4.03,-18.83 6.05,-27.17 1.95,-8.34 3.75,-15.29 5.35,-20.85l62.89 -205.97 61.71 0 0 300.2 -36.69 0 0 -214.72c0,-12.23 0.06,-23.21 0.2,-32.94 0.14,-9.8 0.35,-19.74 0.63,-29.95l-84.64 277.61 -33.77 0 -86.73 -280.46c0.42,10.7 0.77,22.24 0.98,34.6 0.21,12.37 0.28,25.51 0.28,39.47l0 206.39 -37.11 0zm330.56 -261.84l0 -38.36 34.6 0 0 38.36 -34.6 0zm0 261.84l0 -209.3 34.6 0 0 209.3 -34.6 0zm195.55 0l0 -133.7c0,-20.36 -2.64,-34.26 -7.86,-41.76 -5.21,-7.58 -14.11,-11.33 -26.75,-11.33 -14.25,0 -24.6,5.28 -31.14,15.78 -6.46,10.49 -9.72,27.24 -9.72,50.17l0 120.84 -35.86 0 0 -176.23c0,-4.44 -0.14,-9.45 -0.49,-14.87 -0.35,-5.49 -0.83,-11.53 -1.53,-18.2l36.62 0 1.67 24.32c7.3,-10.15 15.43,-17.58 24.32,-22.31 8.9,-4.65 19.25,-7.02 31.07,-7.02 17.24,0 30.86,5.08 40.87,15.15 10.07,10.15 15.08,23.91 15.08,41.28l0 157.88 -36.28 0zm84.57 -261.84l0 -38.36 34.6 0 0 38.36 -34.6 0zm0 261.84l0 -209.3 34.6 0 0 209.3 -34.6 0zm76.3 -63.79l39.19 0c0.42,12.78 3.61,22.51 9.59,29.18 5.97,6.68 14.59,10.01 25.85,10.01 10.28,0 18.55,-2.57 24.81,-7.64 6.25,-5.08 9.38,-11.89 9.38,-20.29 0,-6.26 -2.36,-11.96 -7.02,-17.1 -4.73,-5.21 -12.51,-10.63 -23.35,-16.33l-38.01 -19.53c-13.76,-7.15 -23.42,-14.45 -29.05,-21.89 -5.63,-7.36 -8.47,-16.46 -8.47,-27.3 0,-17.93 6.67,-32.39 19.94,-43.44 13.34,-11.04 30.85,-16.6 52.53,-16.6 21.2,0 37.94,5 50.31,15.08 12.37,10 18.56,23.62 18.56,40.86l0 3.68 -38.36 0c0,-10.29 -2.99,-18.35 -8.96,-24.18 -5.98,-5.84 -14.18,-8.76 -24.81,-8.76 -9.31,0 -16.96,2.5 -22.86,7.44 -5.91,4.93 -8.83,11.18 -8.83,18.76 0,5.35 1.6,9.93 4.86,13.83 3.27,3.96 8.76,7.85 16.47,11.6l34.54 17.1c19.8,9.93 33.29,19.24 40.51,28 7.16,8.76 10.77,19.53 10.77,32.45 0,19.39 -6.74,34.89 -20.29,46.49 -13.48,11.61 -31.48,17.37 -53.99,17.37 -24.04,0 -42.25,-5.83 -54.55,-17.51 -12.37,-11.67 -18.62,-28.77 -18.76,-51.28zm233.55 -204.72l0 59.21 41.7 0 0 25.85 -41.7 0 0 125.36c0,11.25 1.74,19.04 5.21,23.34 3.41,4.24 9.8,6.4 18.98,6.4 3.26,0 8.68,-0.28 16.26,-0.84l1.25 0 -0.21 27.17c-5.56,1.26 -10.77,2.16 -15.64,2.78 -4.93,0.63 -9.45,0.91 -13.69,0.91 -17.65,0 -30.02,-3.48 -37.24,-10.43 -7.16,-6.94 -10.77,-19.17 -10.77,-36.69l0 -138 -31.76 0 0 -25.85 31.76 0 0 -42.11 35.85 -17.1zm104.31 58.79l3.34 27.45c3.82,-10.43 10.14,-18.42 19.11,-24.05 8.96,-5.62 20.08,-8.4 33.36,-8.4 0.7,0 1.74,0.07 3.2,0.2 1.39,0.14 2.57,0.21 3.54,0.21l0 36.69c-1.25,0 -2.85,-0.07 -4.86,-0.2 -2.09,-0.14 -3.48,-0.21 -4.31,-0.21 -18.01,0 -30.87,3.89 -38.58,11.74 -7.64,7.78 -11.46,20.92 -11.46,39.4l0 126.89 -35.86 0 0 -174.35c0,-1.67 -0.7,-9.66 -2.16,-23.97 -0.55,-4.87 -0.9,-8.69 -1.18,-11.4l35.86 0zm153.1 288.94l-35.44 0 23 -79.22 -71.85 -209.3 42.11 0 50.1 165.52 49.69 -165.52 38.63 0 -96.24 288.52zm-6879.09 420.55l-72.97 -300.2 40.03 0 51.28 226.96c1.11,4.44 2.23,10.21 3.27,17.3 1.11,7.02 2.43,16.96 3.89,29.67 2.71,-14.94 5.63,-29.53 8.76,-43.91 0.13,-0.84 0.27,-1.46 0.41,-1.88l54.15 -228.14 41.76 0 51.7 224.32c1.6,7.29 3.06,15.08 4.24,23.35 1.25,8.26 2.36,17.02 3.26,26.26 0.84,-6.53 1.95,-13.48 3.41,-20.98 1.39,-7.44 3.33,-16.26 5.84,-26.41l52.11 -226.54 38.64 0 -76.72 300.2 -47.11 0 -44.13 -188.04c-2.43,-9.66 -4.72,-21.12 -6.81,-34.54 -2.15,-13.34 -4.17,-28.77 -6.25,-46.28 -2.57,24.53 -7.51,51.01 -14.8,79.36l-0.42 1.88 -45.59 187.62 -47.95 0zm293.19 -105.07c0,-38.08 6.25,-65.74 18.83,-82.97 12.58,-17.23 32.52,-25.85 59.97,-25.85 27.52,0 47.53,8.55 59.83,25.71 12.37,17.17 18.55,45.03 18.55,83.53 0,38.5 -6.18,66.43 -18.62,83.73 -12.44,17.31 -32.31,25.92 -59.76,25.92 -27.73,0 -47.74,-8.61 -60.18,-25.92 -12.44,-17.3 -18.62,-45.37 -18.62,-84.15zm78.8 -78.38c-14.94,0 -25.64,6.11 -32.24,18.34 -6.6,12.23 -9.87,32.38 -9.87,60.46 0,28.63 3.27,48.99 9.73,61.08 6.53,12.09 17.3,18.14 32.38,18.14 14.94,0 25.57,-6.05 32.03,-18.14 6.47,-12.09 9.66,-32.31 9.66,-60.67 0,-28.76 -3.19,-49.19 -9.66,-61.22 -6.46,-12.02 -17.09,-17.99 -32.03,-17.99zm152.53 -26.27l3.34 27.45c3.82,-10.43 10.14,-18.42 19.11,-24.05 8.96,-5.62 20.08,-8.4 33.35,-8.4 0.7,0 1.74,0.07 3.2,0.2 1.39,0.14 2.57,0.21 3.54,0.21l0 36.69c-1.25,0 -2.85,-0.07 -4.86,-0.2 -2.09,-0.14 -3.48,-0.21 -4.31,-0.21 -18,0 -30.86,3.89 -38.57,11.74 -7.64,7.78 -11.46,20.92 -11.46,39.4l0 126.89 -35.86 0 0 -174.35c0,-1.67 -0.7,-9.66 -2.16,-23.97 -0.55,-4.87 -0.9,-8.69 -1.18,-11.4l35.86 0zm123.01 209.72l-35.87 0 0 -300.2 35.87 0 0 300.2zm158.78 -186.3l0 -113.9 36.28 0 0 262.81c0,10.71 0.14,18.56 0.41,23.56 0.28,5 0.7,9.45 1.18,13.34l-35.44 0 -2.01 -20.22c-6.67,8.62 -14.04,15.01 -22.17,19.11 -8.13,4.1 -17.44,6.19 -27.86,6.19 -23.63,0 -41,-8.62 -52.12,-25.85 -11.12,-17.24 -16.68,-44.2 -16.68,-80.96 0,-38.36 5.56,-66.71 16.68,-85.06 11.12,-18.27 28.35,-27.44 51.7,-27.44 10.7,0 20.22,2.36 28.56,7.08 8.34,4.73 15.5,11.89 21.47,21.34zm-42.11 2.01c-13.41,0 -23.35,6.47 -29.88,19.39 -6.46,12.86 -9.73,32.73 -9.73,59.48 0,31.2 3.13,52.96 9.45,65.12 6.33,12.16 17.03,18.2 32.25,18.2 13.96,0 24.11,-6.46 30.5,-19.39 6.33,-12.85 9.52,-33.77 9.52,-62.75 0,-28.49 -3.33,-48.99 -9.93,-61.42 -6.68,-12.44 -17.38,-18.63 -32.18,-18.63z"/>
    <path class="fil3" d="M1096.04 9617.5l43.37 0 0 5.49c0,19.11 3.54,33.07 10.7,41.83 7.08,8.75 18.41,13.13 33.91,13.13 14.59,0 26.68,-4.38 36.2,-13.06 9.52,-8.69 14.25,-19.6 14.25,-32.73 0,-17.23 -18.56,-37.46 -55.73,-60.67 -5.28,-3.4 -9.38,-5.97 -12.23,-7.78 -28.98,-18.55 -47.47,-33.7 -55.32,-45.31 -7.85,-11.6 -11.81,-25.78 -11.81,-42.59 0,-22.87 8.2,-41.35 24.53,-55.53 16.33,-14.17 37.73,-21.26 64.21,-21.26 27.17,0 47.95,6.74 62.33,20.29 14.38,13.48 21.55,33.01 21.55,58.51l0 7.51 -41.28 0 0 -6.33c0,-15.98 -3.69,-28.07 -11.12,-36.34 -7.37,-8.27 -18.42,-12.37 -33.08,-12.37 -13.48,0 -24.6,3.89 -33.42,11.67 -8.83,7.79 -13.28,17.52 -13.28,29.19 0,19.25 19.95,41.63 59.9,67.13 7.37,4.65 13,8.2 16.96,10.77 23.76,15.5 39.4,28.56 46.9,39.33 7.59,10.7 11.34,23.28 11.34,37.8 0,26.48 -8,46.91 -23.91,61.36 -15.99,14.46 -38.57,21.68 -67.76,21.68 -29.04,0 -50.93,-6.95 -65.59,-20.77 -14.67,-13.83 -22.03,-34.4 -22.03,-61.78 0,-0.97 0.07,-2.43 0.21,-4.52 0.13,-2.01 0.2,-3.54 0.2,-4.65zm274.29 -181.79l0 59.21 41.7 0 0 25.85 -41.7 0 0 125.36c0,11.25 1.74,19.04 5.21,23.34 3.41,4.24 9.8,6.4 18.98,6.4 3.26,0 8.68,-0.28 16.26,-0.84l1.25 0 -0.21 27.17c-5.56,1.26 -10.77,2.16 -15.64,2.78 -4.93,0.63 -9.45,0.91 -13.69,0.91 -17.65,0 -30.02,-3.48 -37.24,-10.43 -7.16,-6.94 -10.77,-19.17 -10.77,-36.69l0 -138 -31.76 0 0 -25.85 31.76 0 0 -42.11 35.85 -17.1zm106.39 113.83l-38.35 0 0 -4.1c0,-18.14 6.25,-31.97 18.83,-41.35 12.51,-9.45 30.99,-14.18 55.45,-14.18 24.11,0 41.9,4.94 53.3,14.73 11.4,9.87 17.09,25.23 17.09,46.15l0 97.63c0,9.66 0.28,19.11 0.91,28.42 0.62,9.31 1.53,18.42 2.78,27.38l-35.86 0 -2.43 -26.34c-7.09,9.11 -15.29,16.12 -24.67,21.06 -9.38,4.93 -19.18,7.36 -29.53,7.36 -17.79,0 -32.25,-5.9 -43.37,-17.72 -11.11,-11.81 -16.67,-27.24 -16.67,-46.41 0,-23.98 7.78,-42.12 23.28,-54.28 15.56,-12.23 38.77,-18.34 69.56,-18.34l20.15 0 0 -10.43c0,-16.39 -2.43,-27.72 -7.23,-33.98 -4.79,-6.25 -13.13,-9.38 -24.95,-9.38 -12.64,0 -22.16,2.71 -28.63,8.06 -6.46,5.35 -9.66,13.21 -9.66,23.7l0 2.02zm70.88 45.02c-28.9,0 -49.06,3.34 -60.45,10.08 -11.4,6.67 -17.1,18 -17.1,33.98 0,10.36 3.13,18.9 9.38,25.71 6.26,6.88 14.11,10.29 23.56,10.29 14.18,0 25.09,-5.49 32.87,-16.54 7.85,-11.05 11.74,-26.82 11.74,-47.25l0 -16.27zm193.12 109.66l0 -133.7c0,-20.36 -2.64,-34.26 -7.85,-41.76 -5.21,-7.58 -14.11,-11.33 -26.75,-11.33 -14.25,0 -24.6,5.28 -31.14,15.78 -6.46,10.49 -9.72,27.24 -9.72,50.17l0 120.84 -35.86 0 0 -176.23c0,-4.44 -0.14,-9.45 -0.49,-14.87 -0.35,-5.49 -0.83,-11.53 -1.53,-18.2l36.62 0 1.67 24.32c7.3,-10.15 15.43,-17.58 24.32,-22.31 8.9,-4.65 19.25,-7.02 31.07,-7.02 17.23,0 30.85,5.08 40.86,15.15 10.07,10.15 15.08,23.91 15.08,41.28l0 157.88 -36.28 0zm194.23 -186.3l0 -113.9 36.28 0 0 262.81c0,10.71 0.14,18.56 0.41,23.56 0.28,5 0.7,9.45 1.18,13.34l-35.44 0 -2.01 -20.22c-6.67,8.62 -14.04,15.01 -22.17,19.11 -8.13,4.1 -17.44,6.19 -27.86,6.19 -23.63,0 -41,-8.62 -52.12,-25.85 -11.13,-17.24 -16.69,-44.2 -16.69,-80.96 0,-38.36 5.56,-66.71 16.69,-85.06 11.12,-18.27 28.35,-27.44 51.7,-27.44 10.7,0 20.22,2.36 28.56,7.08 8.34,4.73 15.5,11.89 21.47,21.34zm-42.11 2.01c-13.41,0 -23.35,6.47 -29.88,19.39 -6.46,12.86 -9.73,32.73 -9.73,59.48 0,31.2 3.13,52.96 9.45,65.12 6.33,12.16 17.03,18.2 32.25,18.2 13.96,0 24.11,-6.46 30.5,-19.39 6.33,-12.85 9.52,-33.77 9.52,-62.75 0,-28.49 -3.33,-48.99 -9.93,-61.42 -6.68,-12.44 -17.38,-18.63 -32.18,-18.63zm159.75 29.61l-38.35 0 0 -4.1c0,-18.14 6.25,-31.97 18.83,-41.35 12.51,-9.45 30.99,-14.18 55.45,-14.18 24.11,0 41.9,4.94 53.3,14.73 11.4,9.87 17.09,25.23 17.09,46.15l0 97.63c0,9.66 0.28,19.11 0.91,28.42 0.62,9.31 1.53,18.42 2.78,27.38l-35.86 0 -2.43 -26.34c-7.09,9.11 -15.29,16.12 -24.67,21.06 -9.38,4.93 -19.18,7.36 -29.53,7.36 -17.79,0 -32.25,-5.9 -43.37,-17.72 -11.11,-11.81 -16.67,-27.24 -16.67,-46.41 0,-23.98 7.78,-42.12 23.28,-54.28 15.56,-12.23 38.77,-18.34 69.56,-18.34l20.15 0 0 -10.43c0,-16.39 -2.43,-27.72 -7.23,-33.98 -4.79,-6.25 -13.13,-9.38 -24.95,-9.38 -12.64,0 -22.16,2.71 -28.63,8.06 -6.46,5.35 -9.66,13.21 -9.66,23.7l0 2.02zm70.88 45.02c-28.9,0 -49.06,3.34 -60.45,10.08 -11.4,6.67 -17.1,18 -17.1,33.98 0,10.36 3.13,18.9 9.38,25.71 6.26,6.88 14.11,10.29 23.56,10.29 14.18,0 25.09,-5.49 32.87,-16.54 7.85,-11.05 11.74,-26.82 11.74,-47.25l0 -16.27zm114.32 -100.06l3.34 27.45c3.82,-10.43 10.14,-18.42 19.11,-24.05 8.96,-5.62 20.08,-8.4 33.35,-8.4 0.7,0 1.74,0.07 3.2,0.2 1.39,0.14 2.57,0.21 3.54,0.21l0 36.69c-1.25,0 -2.85,-0.07 -4.86,-0.2 -2.09,-0.14 -3.48,-0.21 -4.31,-0.21 -18,0 -30.86,3.89 -38.57,11.74 -7.64,7.78 -11.46,20.92 -11.46,39.4l0 126.89 -35.86 0 0 -174.35c0,-1.67 -0.7,-9.66 -2.16,-23.97 -0.55,-4.87 -0.9,-8.69 -1.18,-11.4l35.86 0zm200.56 23.42l0 -113.9 36.28 0 0 262.81c0,10.71 0.14,18.56 0.41,23.56 0.28,5 0.7,9.45 1.18,13.34l-35.44 0 -2.01 -20.22c-6.67,8.62 -14.04,15.01 -22.17,19.11 -8.13,4.1 -17.44,6.19 -27.87,6.19 -23.63,0 -41,-8.62 -52.12,-25.85 -11.12,-17.24 -16.68,-44.2 -16.68,-80.96 0,-38.36 5.56,-66.71 16.68,-85.06 11.12,-18.27 28.35,-27.44 51.7,-27.44 10.71,0 20.23,2.36 28.57,7.08 8.34,4.73 15.5,11.89 21.47,21.34zm-42.11 2.01c-13.42,0 -23.36,6.47 -29.89,19.39 -6.46,12.86 -9.73,32.73 -9.73,59.48 0,31.2 3.13,52.96 9.45,65.12 6.33,12.16 17.03,18.2 32.26,18.2 13.96,0 24.11,-6.46 30.5,-19.39 6.33,-12.85 9.52,-33.77 9.52,-62.75 0,-28.49 -3.33,-48.99 -9.93,-61.42 -6.68,-12.44 -17.38,-18.63 -32.18,-18.63zm128.07 -77.55l0 -38.36 34.6 0 0 38.36 -34.6 0zm0 261.84l0 -209.3 34.6 0 0 209.3 -34.6 0zm65.87 0l0 -33.36 91.66 -148.84 -86.38 0 0 -27.1 126.89 0 0 27.1 -95.48 154.27 95.48 0 0 27.93 -132.17 0zm194.64 -154.68l-38.35 0 0 -4.1c0,-18.14 6.25,-31.97 18.83,-41.35 12.51,-9.45 30.99,-14.18 55.45,-14.18 24.11,0 41.9,4.94 53.3,14.73 11.4,9.87 17.09,25.23 17.09,46.15l0 97.63c0,9.66 0.28,19.11 0.91,28.42 0.62,9.31 1.53,18.42 2.78,27.38l-35.86 0 -2.43 -26.34c-7.09,9.11 -15.29,16.12 -24.67,21.06 -9.38,4.93 -19.18,7.36 -29.53,7.36 -17.79,0 -32.25,-5.9 -43.37,-17.72 -11.11,-11.81 -16.67,-27.24 -16.67,-46.41 0,-23.98 7.78,-42.12 23.28,-54.28 15.56,-12.23 38.77,-18.34 69.56,-18.34l20.15 0 0 -10.43c0,-16.39 -2.43,-27.72 -7.23,-33.98 -4.79,-6.25 -13.13,-9.38 -24.95,-9.38 -12.64,0 -22.16,2.71 -28.63,8.06 -6.46,5.35 -9.66,13.21 -9.66,23.7l0 2.02zm70.88 45.02c-28.9,0 -49.06,3.34 -60.45,10.08 -11.4,6.67 -17.1,18 -17.1,33.98 0,10.36 3.13,18.9 9.38,25.71 6.26,6.88 14.11,10.29 23.56,10.29 14.18,0 25.09,-5.49 32.87,-16.54 7.85,-11.05 11.74,-26.82 11.74,-47.25l0 -16.27zm128.92 -158.85l0 59.21 41.7 0 0 25.85 -41.7 0 0 125.36c0,11.25 1.74,19.04 5.21,23.34 3.41,4.24 9.8,6.4 18.98,6.4 3.26,0 8.68,-0.28 16.26,-0.84l1.25 0 -0.21 27.17c-5.56,1.26 -10.77,2.16 -15.64,2.78 -4.93,0.63 -9.45,0.91 -13.69,0.91 -17.65,0 -30.02,-3.48 -37.24,-10.43 -7.16,-6.94 -10.77,-19.17 -10.77,-36.69l0 -138 -31.77 0 0 -25.85 31.77 0 0 -42.11 35.85 -17.1zm74.71 6.67l0 -38.36 34.6 0 0 38.36 -34.6 0zm0 261.84l0 -209.3 34.6 0 0 209.3 -34.6 0zm78.8 -105.07c0,-38.08 6.25,-65.74 18.83,-82.97 12.58,-17.23 32.52,-25.85 59.97,-25.85 27.52,0 47.53,8.55 59.83,25.71 12.37,17.17 18.55,45.03 18.55,83.53 0,38.5 -6.18,66.43 -18.62,83.73 -12.44,17.31 -32.31,25.92 -59.76,25.92 -27.73,0 -47.74,-8.61 -60.18,-25.92 -12.44,-17.3 -18.62,-45.37 -18.62,-84.15zm78.8 -78.38c-14.94,0 -25.64,6.11 -32.24,18.34 -6.6,12.23 -9.87,32.38 -9.87,60.46 0,28.63 3.27,48.99 9.73,61.08 6.53,12.09 17.3,18.14 32.38,18.14 14.94,0 25.57,-6.05 32.03,-18.14 6.47,-12.09 9.66,-32.31 9.66,-60.67 0,-28.76 -3.19,-49.19 -9.66,-61.22 -6.46,-12.02 -17.09,-17.99 -32.03,-17.99zm231.33 183.45l0 -133.7c0,-20.36 -2.64,-34.26 -7.85,-41.76 -5.21,-7.58 -14.11,-11.33 -26.75,-11.33 -14.25,0 -24.6,5.28 -31.14,15.78 -6.46,10.49 -9.72,27.24 -9.72,50.17l0 120.84 -35.86 0 0 -176.23c0,-4.44 -0.14,-9.45 -0.49,-14.87 -0.35,-5.49 -0.83,-11.53 -1.53,-18.2l36.62 0 1.67 24.32c7.3,-10.15 15.43,-17.58 24.32,-22.31 8.9,-4.65 19.25,-7.02 31.07,-7.02 17.23,0 30.85,5.08 40.86,15.15 10.07,10.15 15.08,23.91 15.08,41.28l0 157.88 -36.28 0zm389.98 -92.7l0 6.74c0,28.49 -7.5,50.73 -22.58,66.64 -15.08,15.91 -36.07,23.91 -62.96,23.91 -12.79,0 -24.74,-1.81 -35.79,-5.49 -11.05,-3.69 -20.01,-8.69 -26.75,-15.08 -11.47,-10.43 -19.46,-25.51 -24.18,-45.17 -4.66,-19.67 -7.02,-51.56 -7.02,-95.62 0,-30.85 1.46,-54.48 4.38,-71.09 2.91,-16.54 7.85,-30.36 14.8,-41.48 6.74,-11.12 16.54,-19.67 29.39,-25.65 12.86,-5.97 27.73,-8.96 44.68,-8.96 27.31,0 48.16,7.64 62.47,22.86 14.32,15.29 21.48,37.46 21.48,66.64l-42.11 0 0 -4.44c0,-17.93 -3.55,-31.34 -10.71,-40.17 -7.08,-8.82 -17.85,-13.2 -32.24,-13.2 -9.1,0 -17.09,1.74 -23.9,5.28 -6.88,3.54 -12.37,8.69 -16.61,15.5 -4.24,6.81 -7.23,17.09 -8.97,30.85 -1.73,13.76 -2.64,39.96 -2.64,78.45 0,45.52 3.83,75.96 11.54,91.45 7.64,15.5 21.19,23.21 40.58,23.21 15.5,0 26.96,-5.07 34.33,-15.15 7.44,-10.14 11.12,-25.64 11.12,-46.56l0 -3.47 41.69 0zm77.62 -30.71l80.89 0 0 -17.86c0,-15.78 -3.27,-27.66 -9.8,-35.79 -6.53,-8.13 -16.05,-12.23 -28.7,-12.23 -14.1,0 -24.6,5.28 -31.48,15.84 -6.88,10.57 -10.49,27.24 -10.91,50.04zm116.33 57.95c-1.11,22.1 -8.27,39.33 -21.47,51.77 -13.21,12.44 -31.07,18.69 -53.65,18.69 -27.93,0 -47.95,-8.54 -60.11,-25.64 -12.16,-17.09 -18.2,-45.65 -18.2,-85.61 0,-37.59 6.25,-64.9 18.69,-82 12.51,-17.09 32.38,-25.64 59.62,-25.64 25.92,0 44.96,6.81 56.98,20.43 12.09,13.62 18.14,35.16 18.14,64.56l0 32.59 -116.54 0 0 12.02c0,20.64 3.27,35.65 9.87,44.89 6.6,9.31 17.1,13.97 31.48,13.97 11.05,0 19.88,-3.48 26.62,-10.36 6.74,-6.95 10.98,-16.81 12.71,-29.67l35.86 0zm72.21 -144.26l3.34 27.45c3.82,-10.43 10.14,-18.42 19.11,-24.05 8.96,-5.62 20.08,-8.4 33.35,-8.4 0.7,0 1.74,0.07 3.2,0.2 1.39,0.14 2.57,0.21 3.54,0.21l0 36.69c-1.25,0 -2.85,-0.07 -4.86,-0.2 -2.09,-0.14 -3.48,-0.21 -4.31,-0.21 -18,0 -30.86,3.89 -38.57,11.74 -7.64,7.78 -11.46,20.92 -11.46,39.4l0 126.89 -35.86 0 0 -174.35c0,-1.67 -0.7,-9.66 -2.16,-23.97 -0.55,-4.87 -0.9,-8.69 -1.18,-11.4l35.86 0zm135.09 -58.79l0 59.21 41.7 0 0 25.85 -41.7 0 0 125.36c0,11.25 1.74,19.04 5.21,23.34 3.41,4.24 9.8,6.4 18.98,6.4 3.26,0 8.68,-0.28 16.26,-0.84l1.25 0 -0.21 27.17c-5.56,1.26 -10.77,2.16 -15.64,2.78 -4.93,0.63 -9.45,0.91 -13.69,0.91 -17.65,0 -30.02,-3.48 -37.24,-10.43 -7.16,-6.94 -10.77,-19.17 -10.77,-36.69l0 -138 -31.76 0 0 -25.85 31.76 0 0 -42.11 35.85 -17.1zm74.71 6.67l0 -38.36 34.6 0 0 38.36 -34.6 0zm0 261.84l0 -209.3 34.6 0 0 209.3 -34.6 0zm91.72 -245.09l0 -13.41c0,-9.94 1.12,-17.44 3.34,-22.45 2.29,-5 5.98,-9.38 11.12,-13.06 5.63,-3.62 12.44,-6.33 20.64,-8.13 8.13,-1.74 18.27,-2.64 30.36,-2.64l9.18 0 0 28.35c-15.78,0.42 -26.27,2.85 -31.41,7.3 -5.22,4.51 -7.79,16.12 -7.79,34.81l0 25.02 39.2 0 0 25.85 -39.2 0 0 183.45 -35.44 0 0 -183.45 -29.25 0 0 -25.85 29.25 0 0 -35.79zm102.5 -16.75l0 -38.36 34.6 0 0 38.36 -34.6 0zm0 261.84l0 -209.3 34.6 0 0 209.3 -34.6 0zm116.32 -123.41l80.9 0 0 -17.86c0,-15.78 -3.27,-27.66 -9.8,-35.79 -6.53,-8.13 -16.05,-12.23 -28.7,-12.23 -14.1,0 -24.6,5.28 -31.48,15.84 -6.88,10.57 -10.5,27.24 -10.92,50.04zm116.34 57.95c-1.11,22.1 -8.27,39.33 -21.47,51.77 -13.21,12.44 -31.07,18.69 -53.65,18.69 -27.93,0 -47.96,-8.54 -60.12,-25.64 -12.16,-17.09 -18.2,-45.65 -18.2,-85.61 0,-37.59 6.25,-64.9 18.69,-82 12.51,-17.09 32.39,-25.64 59.63,-25.64 25.92,0 44.96,6.81 56.98,20.43 12.09,13.62 18.14,35.16 18.14,64.56l0 32.59 -116.55 0 0 12.02c0,20.64 3.28,35.65 9.88,44.89 6.6,9.31 17.1,13.97 31.48,13.97 11.05,0 19.88,-3.48 26.62,-10.36 6.74,-6.95 10.98,-16.81 12.71,-29.67l35.86 0zm152.25 -120.84l0 -113.9 36.28 0 0 262.81c0,10.71 0.14,18.56 0.41,23.56 0.28,5 0.7,9.45 1.18,13.34l-35.44 0 -2.01 -20.22c-6.67,8.62 -14.04,15.01 -22.17,19.11 -8.13,4.1 -17.44,6.19 -27.86,6.19 -23.63,0 -41,-8.62 -52.12,-25.85 -11.12,-17.24 -16.68,-44.2 -16.68,-80.96 0,-38.36 5.56,-66.71 16.68,-85.06 11.12,-18.27 28.35,-27.44 51.7,-27.44 10.7,0 20.22,2.36 28.56,7.08 8.34,4.73 15.5,11.89 21.47,21.34zm-42.11 2.01c-13.41,0 -23.35,6.47 -29.88,19.39 -6.46,12.86 -9.73,32.73 -9.73,59.48 0,31.2 3.13,52.96 9.45,65.12 6.33,12.16 17.03,18.2 32.25,18.2 13.96,0 24.11,-6.46 30.5,-19.39 6.33,-12.85 9.52,-33.77 9.52,-62.75 0,-28.49 -3.33,-48.99 -9.93,-61.42 -6.68,-12.44 -17.38,-18.63 -32.18,-18.63zm446.41 37.46c0,31.89 -1.25,56.08 -3.69,72.55 -2.43,16.46 -6.39,29.53 -11.81,39.19 -7.57,12.99 -18.21,22.93 -31.83,29.81 -13.62,6.88 -29.67,10.28 -48.15,10.28 -15.08,0 -28.71,-2.36 -40.8,-7.02 -12.16,-4.65 -22.17,-11.46 -30.09,-20.29 -9.04,-10 -15.43,-23.55 -19.11,-40.58 -3.68,-17.02 -5.49,-46.07 -5.49,-87.21 0,-34.88 1.18,-60.39 3.47,-76.51 2.3,-16.19 6.26,-29.04 11.82,-38.7 7.29,-12.86 17.79,-22.66 31.41,-29.4 13.69,-6.74 29.95,-10.07 48.79,-10.07 15.08,0 28.7,2.29 40.79,6.95 12.16,4.58 22.17,11.32 30.09,20.15 8.89,10.28 15.29,24.11 18.97,41.41 3.75,17.31 5.63,47.12 5.63,89.44zm-40.45 -3.27c0,-50.73 -4.03,-83.59 -12.09,-98.54 -8.06,-14.94 -22.51,-22.37 -43.22,-22.37 -9.1,0 -17.17,1.67 -24.12,5 -7.02,3.34 -12.58,8.13 -16.82,14.53 -5,7.64 -8.55,17.65 -10.7,30.02 -2.09,12.43 -3.13,36.2 -3.13,71.36 0,30.02 0.63,51.01 1.95,63.1 1.25,12.09 3.4,21.61 6.39,28.49 4.45,10.08 10.49,17.51 18.14,22.44 7.57,4.87 17.03,7.3 28.29,7.3 20.71,0 35.16,-7.5 43.22,-22.58 8.06,-15.08 12.09,-48.02 12.09,-98.75zm119.6 -59.62l3.34 27.45c3.82,-10.43 10.14,-18.42 19.11,-24.05 8.96,-5.62 20.08,-8.4 33.35,-8.4 0.7,0 1.74,0.07 3.2,0.2 1.39,0.14 2.57,0.21 3.54,0.21l0 36.69c-1.25,0 -2.85,-0.07 -4.86,-0.2 -2.09,-0.14 -3.48,-0.21 -4.31,-0.21 -18,0 -30.86,3.89 -38.57,11.74 -7.64,7.78 -11.46,20.92 -11.46,39.4l0 126.89 -35.86 0 0 -174.35c0,-1.67 -0.7,-9.66 -2.16,-23.97 -0.55,-4.87 -0.9,-8.69 -1.18,-11.4l35.86 0zm119.25 104.3c0,28.36 3.2,48.79 9.59,61.29 6.32,12.44 16.61,18.7 30.85,18.7 15.08,0 26.13,-6.4 33.15,-19.11 7.09,-12.79 10.56,-33.08 10.56,-60.88 0,-29.6 -3.26,-50.72 -9.94,-63.51 -6.67,-12.72 -17.51,-19.11 -32.52,-19.11 -15.22,0 -25.92,5.98 -32.24,18 -6.32,12.02 -9.45,33.56 -9.45,64.62zm-24.18 128.77l40.86 0c0.27,9.52 3.12,17.16 8.54,22.79 5.42,5.63 12.58,8.48 21.55,8.48 13.13,0 22.37,-3.41 27.72,-10.22 5.35,-6.81 8.06,-19.52 8.06,-38.15l0 -30.09c-7.43,9.87 -15.28,17.17 -23.41,21.82 -8.14,4.66 -17.03,7.02 -26.62,7.02 -24.04,0 -41.62,-9.03 -52.81,-27.17 -11.19,-18.06 -16.82,-46.56 -16.82,-85.33 0,-36.9 5.63,-64 16.82,-81.3 11.19,-17.31 28.63,-25.92 52.39,-25.92 10.57,0 20.02,2.08 28.29,6.32 8.27,4.17 15.63,10.56 22.16,19.11l2.02 -20.01 36.27 0c-0.62,4.72 -1.18,10.07 -1.53,16.05 -0.34,5.9 -0.48,12.92 -0.48,21.05l0 183.32c0,13.06 -0.98,23.07 -2.85,30.09 -1.88,7.02 -4.94,13.2 -9.17,18.48 -6.12,7.72 -13.97,13.34 -23.56,16.82 -9.52,3.47 -21.89,5.21 -36.97,5.21 -21.68,0 -38.71,-5.07 -50.94,-15.22 -12.16,-10.14 -18.69,-24.53 -19.52,-43.15zm224.38 -178.03l-38.35 0 0 -4.1c0,-18.14 6.25,-31.97 18.83,-41.35 12.51,-9.45 30.99,-14.18 55.45,-14.18 24.12,0 41.91,4.94 53.31,14.73 11.4,9.87 17.09,25.23 17.09,46.15l0 97.63c0,9.66 0.28,19.11 0.91,28.42 0.62,9.31 1.53,18.42 2.78,27.38l-35.86 0 -2.43 -26.34c-7.09,9.11 -15.29,16.12 -24.68,21.06 -9.38,4.93 -19.18,7.36 -29.53,7.36 -17.79,0 -32.25,-5.9 -43.37,-17.72 -11.11,-11.81 -16.67,-27.24 -16.67,-46.41 0,-23.98 7.78,-42.12 23.28,-54.28 15.56,-12.23 38.77,-18.34 69.57,-18.34l20.15 0 0 -10.43c0,-16.39 -2.43,-27.72 -7.23,-33.98 -4.79,-6.25 -13.13,-9.38 -24.96,-9.38 -12.64,0 -22.16,2.71 -28.63,8.06 -6.46,5.35 -9.66,13.21 -9.66,23.7l0 2.02zm70.89 45.02c-28.91,0 -49.07,3.34 -60.46,10.08 -11.4,6.67 -17.1,18 -17.1,33.98 0,10.36 3.13,18.9 9.38,25.71 6.26,6.88 14.11,10.29 23.56,10.29 14.18,0 25.1,-5.49 32.88,-16.54 7.85,-11.05 11.74,-26.82 11.74,-47.25l0 -16.27zm193.12 109.66l0 -133.7c0,-20.36 -2.64,-34.26 -7.85,-41.76 -5.21,-7.58 -14.11,-11.33 -26.75,-11.33 -14.25,0 -24.6,5.28 -31.14,15.78 -6.46,10.49 -9.72,27.24 -9.72,50.17l0 120.84 -35.86 0 0 -176.23c0,-4.44 -0.14,-9.45 -0.49,-14.87 -0.35,-5.49 -0.83,-11.53 -1.53,-18.2l36.62 0 1.67 24.32c7.3,-10.15 15.43,-17.58 24.32,-22.31 8.9,-4.65 19.25,-7.02 31.07,-7.02 17.23,0 30.85,5.08 40.86,15.15 10.07,10.15 15.08,23.91 15.08,41.28l0 157.88 -36.28 0zm84.57 -261.84l0 -38.36 34.6 0 0 38.36 -34.6 0zm0 261.84l0 -209.3 34.6 0 0 209.3 -34.6 0zm76.3 -63.79l39.19 0c0.42,12.78 3.61,22.51 9.59,29.18 5.97,6.68 14.59,10.01 25.85,10.01 10.28,0 18.55,-2.57 24.81,-7.64 6.25,-5.08 9.38,-11.89 9.38,-20.29 0,-6.26 -2.36,-11.96 -7.02,-17.1 -4.73,-5.21 -12.51,-10.63 -23.35,-16.33l-38.01 -19.53c-13.76,-7.15 -23.42,-14.45 -29.05,-21.89 -5.63,-7.36 -8.47,-16.46 -8.47,-27.3 0,-17.93 6.67,-32.39 19.94,-43.44 13.34,-11.04 30.85,-16.6 52.53,-16.6 21.2,0 37.94,5 50.31,15.08 12.37,10 18.56,23.62 18.56,40.86l0 3.68 -38.36 0c0,-10.29 -2.99,-18.35 -8.96,-24.18 -5.98,-5.84 -14.18,-8.76 -24.81,-8.76 -9.31,0 -16.96,2.5 -22.86,7.44 -5.91,4.93 -8.83,11.18 -8.83,18.76 0,5.35 1.6,9.93 4.86,13.83 3.27,3.96 8.76,7.85 16.47,11.6l34.54 17.1c19.8,9.93 33.29,19.24 40.51,28 7.16,8.76 10.77,19.53 10.77,32.45 0,19.39 -6.74,34.89 -20.29,46.49 -13.48,11.61 -31.48,17.37 -53.99,17.37 -24.04,0 -42.25,-5.83 -54.55,-17.51 -12.37,-11.67 -18.62,-28.77 -18.76,-51.28zm221.05 -90.89l-38.35 0 0 -4.1c0,-18.14 6.25,-31.97 18.83,-41.35 12.51,-9.45 30.99,-14.18 55.45,-14.18 24.11,0 41.9,4.94 53.3,14.73 11.4,9.87 17.09,25.23 17.09,46.15l0 97.63c0,9.66 0.28,19.11 0.91,28.42 0.62,9.31 1.53,18.42 2.78,27.38l-35.86 0 -2.43 -26.34c-7.09,9.11 -15.29,16.12 -24.67,21.06 -9.38,4.93 -19.18,7.36 -29.53,7.36 -17.79,0 -32.25,-5.9 -43.37,-17.72 -11.11,-11.81 -16.68,-27.24 -16.68,-46.41 0,-23.98 7.79,-42.12 23.29,-54.28 15.56,-12.23 38.77,-18.34 69.56,-18.34l20.15 0 0 -10.43c0,-16.39 -2.43,-27.72 -7.23,-33.98 -4.79,-6.25 -13.13,-9.38 -24.95,-9.38 -12.64,0 -22.16,2.71 -28.63,8.06 -6.46,5.35 -9.66,13.21 -9.66,23.7l0 2.02zm70.88 45.02c-28.9,0 -49.06,3.34 -60.45,10.08 -11.4,6.67 -17.1,18 -17.1,33.98 0,10.36 3.13,18.9 9.38,25.71 6.26,6.88 14.11,10.29 23.56,10.29 14.18,0 25.09,-5.49 32.87,-16.54 7.85,-11.05 11.74,-26.82 11.74,-47.25l0 -16.27zm128.91 -158.85l0 59.21 41.7 0 0 25.85 -41.7 0 0 125.36c0,11.25 1.74,19.04 5.21,23.34 3.41,4.24 9.8,6.4 18.98,6.4 3.26,0 8.68,-0.28 16.26,-0.84l1.25 0 -0.21 27.17c-5.56,1.26 -10.77,2.16 -15.64,2.78 -4.93,0.63 -9.45,0.91 -13.69,0.91 -17.65,0 -30.02,-3.48 -37.24,-10.43 -7.16,-6.94 -10.77,-19.17 -10.77,-36.69l0 -138 -31.76 0 0 -25.85 31.76 0 0 -42.11 35.85 -17.1zm74.71 6.67l0 -38.36 34.6 0 0 38.36 -34.6 0zm0 261.84l0 -209.3 34.6 0 0 209.3 -34.6 0zm78.8 -105.07c0,-38.08 6.25,-65.74 18.83,-82.97 12.58,-17.23 32.52,-25.85 59.97,-25.85 27.52,0 47.53,8.55 59.83,25.71 12.37,17.17 18.55,45.03 18.55,83.53 0,38.5 -6.18,66.43 -18.62,83.73 -12.44,17.31 -32.31,25.92 -59.76,25.92 -27.73,0 -47.74,-8.61 -60.18,-25.92 -12.44,-17.3 -18.62,-45.37 -18.62,-84.15zm78.8 -78.38c-14.94,0 -25.64,6.11 -32.24,18.34 -6.6,12.23 -9.87,32.38 -9.87,60.46 0,28.63 3.27,48.99 9.73,61.08 6.53,12.09 17.3,18.14 32.38,18.14 14.94,0 25.57,-6.05 32.03,-18.14 6.47,-12.09 9.66,-32.31 9.66,-60.67 0,-28.76 -3.19,-49.19 -9.66,-61.22 -6.46,-12.02 -17.09,-17.99 -32.03,-17.99zm231.34 183.45l0 -133.7c0,-20.36 -2.64,-34.26 -7.85,-41.76 -5.21,-7.58 -14.11,-11.33 -26.75,-11.33 -14.25,0 -24.6,5.28 -31.14,15.78 -6.46,10.49 -9.72,27.24 -9.72,50.17l0 120.84 -35.86 0 0 -176.23c0,-4.44 -0.14,-9.45 -0.49,-14.87 -0.35,-5.49 -0.83,-11.53 -1.53,-18.2l36.62 0 1.67 24.32c7.3,-10.15 15.43,-17.58 24.32,-22.31 8.9,-4.65 19.25,-7.02 31.07,-7.02 17.23,0 30.85,5.08 40.86,15.15 10.07,10.15 15.08,23.91 15.08,41.28l0 157.88 -36.28 0zm-6420.97 499.77l-72.97 -300.2 40.03 0 51.28 226.96c1.11,4.44 2.23,10.21 3.27,17.3 1.11,7.02 2.43,16.96 3.89,29.67 2.71,-14.94 5.63,-29.53 8.76,-43.91 0.13,-0.84 0.27,-1.46 0.41,-1.88l54.14 -228.14 41.77 0 51.7 224.32c1.6,7.29 3.06,15.08 4.24,23.35 1.25,8.26 2.36,17.02 3.26,26.26 0.84,-6.53 1.95,-13.48 3.41,-20.98 1.39,-7.44 3.33,-16.26 5.84,-26.41l52.11 -226.54 38.64 0 -76.72 300.2 -47.11 0 -44.14 -188.04c-2.43,-9.66 -4.72,-21.12 -6.81,-34.54 -2.15,-13.34 -4.17,-28.77 -6.25,-46.28 -2.57,24.53 -7.51,51.01 -14.8,79.36l-0.42 1.88 -45.58 187.62 -47.95 0z"/>
    <path class="fil3" d="M894.48 10117.27l43.37 0 0 5.49c0,19.11 3.54,33.07 10.7,41.83 7.08,8.75 18.41,13.13 33.91,13.13 14.59,0 26.68,-4.38 36.2,-13.06 9.52,-8.69 14.25,-19.6 14.25,-32.73 0,-17.23 -18.56,-37.46 -55.73,-60.67 -5.28,-3.4 -9.38,-5.97 -12.23,-7.78 -28.98,-18.55 -47.47,-33.7 -55.32,-45.31 -7.85,-11.6 -11.81,-25.78 -11.81,-42.59 0,-22.87 8.2,-41.35 24.53,-55.53 16.33,-14.17 37.73,-21.26 64.21,-21.26 27.17,0 47.95,6.74 62.33,20.29 14.38,13.48 21.54,33.01 21.54,58.51l0 7.51 -41.27 0 0 -6.33c0,-15.98 -3.69,-28.07 -11.12,-36.34 -7.37,-8.27 -18.42,-12.37 -33.08,-12.37 -13.48,0 -24.6,3.89 -33.42,11.67 -8.83,7.79 -13.28,17.52 -13.28,29.19 0,19.25 19.95,41.63 59.9,67.13 7.37,4.65 13,8.2 16.96,10.77 23.76,15.5 39.4,28.56 46.9,39.33 7.58,10.7 11.33,23.28 11.33,37.8 0,26.48 -7.99,46.91 -23.9,61.36 -15.99,14.46 -38.57,21.68 -67.76,21.68 -29.04,0 -50.93,-6.95 -65.59,-20.77 -14.67,-13.83 -22.03,-34.4 -22.03,-61.78 0,-0.97 0.07,-2.43 0.21,-4.52 0.13,-2.01 0.2,-3.54 0.2,-4.65zm405.21 -5.98l0 6.74c0,28.49 -7.5,50.73 -22.58,66.64 -15.09,15.91 -36.08,23.91 -62.97,23.91 -12.79,0 -24.74,-1.81 -35.79,-5.49 -11.05,-3.69 -20.01,-8.69 -26.75,-15.08 -11.47,-10.43 -19.46,-25.51 -24.18,-45.17 -4.66,-19.67 -7.02,-51.56 -7.02,-95.62 0,-30.85 1.46,-54.48 4.38,-71.09 2.91,-16.54 7.85,-30.36 14.8,-41.48 6.74,-11.12 16.54,-19.67 29.39,-25.65 12.86,-5.97 27.73,-8.96 44.68,-8.96 27.31,0 48.16,7.64 62.48,22.86 14.32,15.29 21.48,37.46 21.48,66.64l-42.12 0 0 -4.44c0,-17.93 -3.55,-31.34 -10.71,-40.17 -7.08,-8.82 -17.85,-13.2 -32.24,-13.2 -9.1,0 -17.09,1.74 -23.9,5.28 -6.88,3.54 -12.37,8.69 -16.61,15.5 -4.24,6.81 -7.23,17.09 -8.97,30.85 -1.73,13.76 -2.64,39.96 -2.64,78.45 0,45.52 3.83,75.96 11.54,91.45 7.64,15.5 21.19,23.21 40.58,23.21 15.5,0 26.96,-5.07 34.33,-15.15 7.44,-10.14 11.12,-25.64 11.12,-46.56l0 -3.47 41.7 0zm136.07 2.64l0 -30.44 88.39 0 0 30.44 -88.39 0zm268.51 -79.63l29.19 0c21.68,0 37.52,-4.24 47.32,-12.65 9.87,-8.41 14.8,-21.96 14.8,-40.72 0,-15.36 -3.89,-26.83 -11.6,-34.47 -7.78,-7.57 -19.46,-11.4 -35.02,-11.4l-44.69 0 0 99.24zm39.13 -130.51c32.03,0 55.31,5.77 69.9,17.31 14.6,11.53 21.9,29.88 21.9,54.96 0,19.95 -4.24,35.93 -12.72,47.95 -8.48,12.02 -21.41,20.43 -38.92,25.3 16.12,1.8 27.59,7.36 34.4,16.81 6.74,9.45 10.14,24.81 10.14,46.07 0,4.24 -0.06,9.66 -0.2,16.4 -0.14,6.74 -0.21,11.4 -0.21,14.18 0,11.4 0.62,22.1 1.95,32.24 1.25,10.08 3.27,19.74 5.98,28.98l-40.87 0c-4.03,-13.41 -6.19,-35.79 -6.46,-66.99 -0.14,-11.26 -0.35,-19.94 -0.63,-25.99 -0.42,-16.47 -3.26,-27.93 -8.68,-34.4 -5.36,-6.53 -14.39,-9.79 -27.18,-9.79l-47.53 0 0 137.17 -39.61 0 0 -300.2 78.74 0zm166.85 176.79l80.89 0 0 -17.86c0,-15.78 -3.27,-27.66 -9.8,-35.79 -6.53,-8.13 -16.05,-12.23 -28.7,-12.23 -14.1,0 -24.6,5.28 -31.48,15.84 -6.88,10.57 -10.49,27.24 -10.91,50.04zm116.33 57.95c-1.11,22.1 -8.27,39.33 -21.47,51.77 -13.21,12.44 -31.07,18.69 -53.65,18.69 -27.93,0 -47.95,-8.54 -60.11,-25.64 -12.16,-17.09 -18.2,-45.65 -18.2,-85.61 0,-37.59 6.25,-64.9 18.69,-82 12.51,-17.09 32.38,-25.64 59.62,-25.64 25.92,0 44.96,6.81 56.98,20.43 12.09,13.62 18.14,35.16 18.14,64.56l0 32.59 -116.54 0 0 12.02c0,20.64 3.27,35.65 9.87,44.89 6.6,9.31 17.1,13.97 31.48,13.97 11.05,0 19.88,-3.48 26.62,-10.36 6.74,-6.95 10.98,-16.81 12.71,-29.67l35.86 0zm70.95 -39.96c0,28.36 3.2,48.79 9.59,61.29 6.32,12.44 16.61,18.7 30.85,18.7 15.08,0 26.13,-6.4 33.15,-19.11 7.09,-12.79 10.56,-33.08 10.56,-60.88 0,-29.6 -3.26,-50.72 -9.94,-63.51 -6.67,-12.72 -17.51,-19.11 -32.52,-19.11 -15.22,0 -25.92,5.98 -32.24,18 -6.32,12.02 -9.45,33.56 -9.45,64.62zm-24.18 128.77l40.86 0c0.27,9.52 3.12,17.16 8.54,22.79 5.42,5.63 12.58,8.48 21.55,8.48 13.13,0 22.37,-3.41 27.72,-10.22 5.35,-6.81 8.06,-19.52 8.06,-38.15l0 -30.09c-7.43,9.87 -15.28,17.17 -23.41,21.82 -8.14,4.66 -17.03,7.02 -26.62,7.02 -24.04,0 -41.62,-9.03 -52.81,-27.17 -11.19,-18.06 -16.82,-46.56 -16.82,-85.33 0,-36.9 5.63,-64 16.82,-81.3 11.19,-17.31 28.63,-25.92 52.39,-25.92 10.57,0 20.02,2.08 28.29,6.32 8.27,4.17 15.63,10.56 22.16,19.11l2.02 -20.01 36.27 0c-0.62,4.72 -1.18,10.07 -1.53,16.05 -0.34,5.9 -0.48,12.92 -0.48,21.05l0 183.32c0,13.06 -0.98,23.07 -2.85,30.09 -1.88,7.02 -4.94,13.2 -9.17,18.48 -6.12,7.72 -13.97,13.34 -23.56,16.82 -9.52,3.47 -21.89,5.21 -36.97,5.21 -21.68,0 -38.71,-5.07 -50.94,-15.22 -12.16,-10.14 -18.69,-24.53 -19.52,-43.15zm189.15 -23.35l0 -46.28 39.61 0 0 46.28 -39.61 0zm364.49 -34.61c-0.48,-9.66 -0.9,-19.04 -1.18,-28.21 -0.27,-9.1 -0.41,-18.07 -0.41,-26.75l0 -210.63 36.69 0 0 300.2 -53.79 0 -115.42 -272.96c1.11,12.93 1.88,23.98 2.43,33.22 0.56,9.24 0.83,17.02 0.83,23.42l0 216.32 -35.85 0 0 -300.2 56.42 0 110.28 265.59zm80.61 -70.46c0,-38.08 6.25,-65.74 18.83,-82.97 12.58,-17.23 32.52,-25.85 59.97,-25.85 27.52,0 47.53,8.55 59.83,25.71 12.37,17.17 18.55,45.03 18.55,83.53 0,38.5 -6.18,66.43 -18.62,83.73 -12.44,17.31 -32.31,25.92 -59.76,25.92 -27.73,0 -47.74,-8.61 -60.18,-25.92 -12.44,-17.3 -18.62,-45.37 -18.62,-84.15zm78.8 -78.38c-14.94,0 -25.64,6.11 -32.24,18.34 -6.6,12.23 -9.87,32.38 -9.87,60.46 0,28.63 3.27,48.99 9.73,61.08 6.53,12.09 17.3,18.14 32.38,18.14 14.94,0 25.57,-6.05 32.03,-18.14 6.47,-12.09 9.66,-32.31 9.66,-60.67 0,-28.76 -3.19,-49.19 -9.66,-61.22 -6.46,-12.02 -17.09,-17.99 -32.03,-17.99zm126.68 183.45l0 -46.28 39.62 0 0 46.28 -39.62 0zm341.63 -228.83l-38.77 0c-0.84,-11.67 -3.89,-20.5 -9.25,-26.34 -5.28,-5.83 -12.78,-8.75 -22.37,-8.75 -15.29,0 -25.99,6.18 -32.31,18.62 -6.26,12.44 -9.45,34.47 -9.45,65.95 0,1.8 0.06,4.65 0.2,8.54 0.14,3.96 0.21,6.95 0.21,9.04 4.73,-8.13 10.98,-14.46 18.9,-18.83 7.86,-4.38 16.68,-6.61 26.55,-6.61 23.76,0 41.69,7.86 53.85,23.63 12.16,15.71 18.28,38.85 18.28,69.42 0,34.33 -6.05,59.28 -18.14,74.91 -12.09,15.64 -31.34,23.42 -57.67,23.42 -29.47,0 -50.04,-9.94 -61.57,-29.81 -11.54,-19.95 -17.31,-58.72 -17.31,-116.4 0,-34.26 1.12,-59.62 3.27,-76.3 2.15,-16.61 5.91,-30.3 11.19,-41 5.84,-11.81 14.17,-20.77 24.95,-26.82 10.77,-6.05 23.9,-9.03 39.4,-9.03 21.75,0 38.84,5.69 51.28,17.09 12.51,11.4 18.76,26.96 18.76,46.63l0 2.64zm-69.7 200.9c13.07,0 22.73,-5.49 29.05,-16.47 6.25,-10.98 9.38,-27.87 9.38,-50.66 0,-20.5 -3.19,-35.65 -9.59,-45.38 -6.46,-9.8 -16.33,-14.66 -29.67,-14.66 -13.27,0 -23.28,4.79 -30.16,14.45 -6.81,9.59 -10.21,23.7 -10.21,42.32 0,24.53 3.26,42.39 9.79,53.58 6.61,11.19 17.03,16.82 31.41,16.82zm198.19 -267.68c14.1,0 26.54,2.43 37.24,7.3 10.77,4.93 19.6,12.16 26.48,21.82 6.39,8.82 10.91,20.43 13.55,34.81 2.64,14.38 3.96,40.65 3.96,78.94l0 7.51 0 7.57c0,38.15 -1.32,64.35 -3.96,78.73 -2.64,14.39 -7.16,25.92 -13.55,34.61 -6.88,9.66 -15.71,16.95 -26.48,21.89 -10.7,4.93 -23.14,7.43 -37.24,7.43 -14.11,0 -26.55,-2.5 -37.32,-7.43 -10.77,-4.94 -19.81,-12.23 -26.96,-21.89 -6.4,-8.83 -10.91,-20.57 -13.55,-35.3 -2.64,-14.73 -3.96,-43.23 -3.96,-85.61 0,-42.18 1.32,-70.61 3.96,-85.34 2.64,-14.73 7.15,-26.54 13.55,-35.51 7.15,-9.66 16.19,-16.95 27.03,-22.03 10.91,-5 23.28,-7.5 37.25,-7.5zm-44.69 150.38c0,52.67 3.13,85.54 9.45,98.6 6.33,13 17.86,19.53 34.68,19.53 17.16,0 28.91,-6.74 35.23,-20.15 6.32,-13.48 9.45,-46.08 9.45,-97.98 0,-51.98 -3.2,-84.64 -9.52,-98.12 -6.39,-13.42 -18.14,-20.16 -35.16,-20.16 -16.82,0 -28.35,6.54 -34.68,19.53 -6.32,13.06 -9.45,46 -9.45,98.75zm268.94 145.23l-37.53 0 0 -245.99c-3.13,2.84 -7.92,6.67 -14.45,11.32 -6.54,4.73 -16.13,11.19 -28.91,19.53l0 -40.03c5.84,-2.85 12.85,-7.09 21.05,-12.71 8.2,-5.63 18.56,-13.21 31.07,-22.73l28.77 0 0 290.61zm97.14 0l0 -37.04 90.06 -127.65c8.54,-12.23 15.28,-24.04 20.15,-35.44 4.93,-11.4 7.36,-20.85 7.36,-28.35 0,-10.84 -3.47,-19.53 -10.42,-26.06 -6.95,-6.53 -16.19,-9.8 -27.59,-9.8 -12.57,0 -21.75,3.68 -27.65,11.12 -5.84,7.43 -9.25,19.53 -10.22,36.41l-40.44 0c0,-0.83 -0.07,-2.15 -0.21,-3.96 -0.14,-1.81 -0.21,-3.2 -0.21,-3.96 0,-22.65 6.81,-40.1 20.36,-52.26 13.62,-12.16 33.22,-18.2 58.93,-18.2 23.49,0 41.76,5.69 54.9,17.09 13.13,11.4 19.66,27.24 19.66,47.46 0,13.97 -3.33,29.19 -10,45.66 -6.68,16.54 -16.82,34.67 -30.44,54.48l-69.84 95.89 111.53 0 0 34.61 -155.93 0zm277.75 -295.61c14.1,0 26.54,2.43 37.24,7.3 10.77,4.93 19.6,12.16 26.48,21.82 6.39,8.82 10.91,20.43 13.55,34.81 2.64,14.38 3.96,40.65 3.96,78.94l0 7.51 0 7.57c0,38.15 -1.32,64.35 -3.96,78.73 -2.64,14.39 -7.16,25.92 -13.55,34.61 -6.88,9.66 -15.71,16.95 -26.48,21.89 -10.7,4.93 -23.14,7.43 -37.24,7.43 -14.11,0 -26.55,-2.5 -37.32,-7.43 -10.77,-4.94 -19.81,-12.23 -26.96,-21.89 -6.4,-8.83 -10.91,-20.57 -13.55,-35.3 -2.64,-14.73 -3.96,-43.23 -3.96,-85.61 0,-42.18 1.32,-70.61 3.96,-85.34 2.64,-14.73 7.15,-26.54 13.55,-35.51 7.15,-9.66 16.19,-16.95 27.03,-22.03 10.91,-5 23.28,-7.5 37.25,-7.5zm-44.69 150.38c0,52.67 3.13,85.54 9.45,98.6 6.33,13 17.86,19.53 34.68,19.53 17.16,0 28.91,-6.74 35.23,-20.15 6.32,-13.48 9.45,-46.08 9.45,-97.98 0,-51.98 -3.2,-84.64 -9.52,-98.12 -6.39,-13.42 -18.14,-20.16 -35.16,-20.16 -16.82,0 -28.35,6.54 -34.68,19.53 -6.32,13.06 -9.45,46 -9.45,98.75zm268.94 145.23l-37.53 0 0 -245.99c-3.13,2.84 -7.92,6.67 -14.45,11.32 -6.54,4.73 -16.13,11.19 -28.91,19.53l0 -40.03c5.84,-2.85 12.85,-7.09 21.05,-12.71 8.2,-5.63 18.56,-13.21 31.07,-22.73l28.77 0 0 290.61zm212.63 -216.88c0,-15.08 -3.27,-26.68 -9.8,-34.81 -6.53,-8.13 -15.84,-12.23 -27.86,-12.23 -12.23,0 -21.61,4.03 -28.08,12.02 -6.46,7.99 -9.73,19.66 -9.73,35.02 0,15.08 3.48,27.1 10.43,36.14 6.88,9.03 16.19,13.55 27.79,13.55 10.84,0 19.74,-4.59 26.76,-13.83 7.02,-9.24 10.49,-21.2 10.49,-35.86zm3.75 137.73c0,-19.8 -3.33,-34.4 -10,-43.64 -6.74,-9.31 -17.24,-13.97 -31.55,-13.97 -13.97,0 -24.32,4.59 -31.2,13.76 -6.81,9.11 -10.22,22.93 -10.22,41.35 0,17.65 3.62,31.34 10.84,40.93 7.23,9.66 17.44,14.45 30.58,14.45 13.06,0 23.28,-4.65 30.57,-14.03 7.3,-9.39 10.98,-22.31 10.98,-38.85zm-70.67 -75.19c-15.01,-4.17 -26.4,-11.88 -34.12,-23.07 -7.71,-11.19 -11.53,-25.71 -11.53,-43.5 0,-23.35 6.6,-41.55 19.87,-54.62 13.2,-13.13 31.62,-19.66 55.25,-19.66 23.34,0 41.62,6.46 54.82,19.45 13.14,12.93 19.74,31.07 19.74,54.41 0,18.07 -3.82,32.73 -11.54,43.99 -7.71,11.26 -19.18,18.97 -34.46,23 16.33,3.82 28.69,11.95 37.1,24.53 8.41,12.58 12.65,29.12 12.65,49.76 0,26.61 -6.88,47.39 -20.71,62.47 -13.83,15.08 -33.07,22.58 -57.6,22.58 -24.81,0 -44.13,-7.57 -58.03,-22.79 -13.9,-15.22 -20.85,-36.2 -20.85,-63.1 0,-20.08 4.24,-36.34 12.79,-48.92 8.48,-12.58 20.71,-20.71 36.62,-24.53zm229.18 -141.27c14.1,0 26.54,2.43 37.24,7.3 10.78,4.93 19.61,12.16 26.49,21.82 6.39,8.82 10.91,20.43 13.55,34.81 2.64,14.38 3.96,40.65 3.96,78.94l0 7.51 0 7.57c0,38.15 -1.32,64.35 -3.96,78.73 -2.64,14.39 -7.16,25.92 -13.55,34.61 -6.88,9.66 -15.71,16.95 -26.49,21.89 -10.7,4.93 -23.14,7.43 -37.24,7.43 -14.11,0 -26.55,-2.5 -37.32,-7.43 -10.77,-4.94 -19.81,-12.23 -26.96,-21.89 -6.4,-8.83 -10.91,-20.57 -13.55,-35.3 -2.64,-14.73 -3.96,-43.23 -3.96,-85.61 0,-42.18 1.32,-70.61 3.96,-85.34 2.64,-14.73 7.15,-26.54 13.55,-35.51 7.15,-9.66 16.19,-16.95 27.03,-22.03 10.91,-5 23.28,-7.5 37.25,-7.5zm-44.69 150.38c0,52.67 3.13,85.54 9.45,98.6 6.33,13 17.86,19.53 34.68,19.53 17.16,0 28.91,-6.74 35.23,-20.15 6.32,-13.48 9.45,-46.08 9.45,-97.98 0,-51.98 -3.2,-84.64 -9.52,-98.12 -6.39,-13.42 -18.14,-20.16 -35.16,-20.16 -16.82,0 -28.35,6.54 -34.68,19.53 -6.32,13.06 -9.45,46 -9.45,98.75zm268.94 145.23l-37.53 0 0 -245.99c-3.13,2.84 -7.92,6.67 -14.45,11.32 -6.54,4.73 -16.13,11.19 -28.91,19.53l0 -40.03c5.84,-2.85 12.85,-7.09 21.05,-12.71 8.2,-5.63 18.56,-13.21 31.07,-22.73l28.77 0 0 290.61zm91.72 -76.72l40.02 0c0.56,16.26 3.96,28.56 10.29,36.83 6.39,8.27 15.56,12.37 27.52,12.37 14.17,0 24.8,-4.45 31.96,-13.41 7.16,-8.96 10.7,-22.38 10.7,-40.3 0,-18.28 -4.37,-31.83 -13.06,-40.66 -8.69,-8.82 -21.96,-13.2 -39.89,-13.2l-6.25 0 0 -34.6c19.39,0 33.63,-3.9 42.87,-11.75 9.25,-7.78 13.83,-20.01 13.83,-36.55 0,-15.15 -3.06,-26.34 -9.24,-33.7 -6.19,-7.3 -15.64,-10.98 -28.35,-10.98 -11.82,0 -20.85,3.54 -27.17,10.7 -6.33,7.09 -9.45,17.44 -9.45,30.99l-39.2 0 0 -4.65c0,-21.34 6.54,-38.22 19.53,-50.73 13,-12.58 30.58,-18.83 52.67,-18.83 25.37,0 44.76,6.25 58.17,18.83 13.41,12.58 20.15,30.57 20.15,54.06 0,20.92 -4.38,37.53 -13.13,49.76 -8.76,12.23 -21.2,19.18 -37.39,20.98 18.35,0.77 31.76,6.81 40.3,18.07 8.48,11.26 12.72,28.7 12.72,52.26 0,28.63 -6.46,50.17 -19.46,64.55 -12.92,14.46 -32.31,21.68 -58.09,21.68 -25.85,0 -45.59,-6.6 -59.41,-19.73 -13.76,-13.14 -20.64,-31.97 -20.64,-56.5l0 -5.49zm296.94 -13.34l0 -30.44 88.39 0 0 30.44 -88.39 0zm229.74 90.06l0 -300.2 39.19 0 0 265.59 102.57 0 0 34.61 -141.76 0zm167.12 -105.07c0,-38.08 6.25,-65.74 18.83,-82.97 12.58,-17.23 32.52,-25.85 59.97,-25.85 27.52,0 47.53,8.55 59.83,25.71 12.37,17.17 18.56,45.03 18.56,83.53 0,38.5 -6.19,66.43 -18.63,83.73 -12.44,17.31 -32.31,25.92 -59.76,25.92 -27.73,0 -47.74,-8.61 -60.18,-25.92 -12.44,-17.3 -18.62,-45.37 -18.62,-84.15zm78.8 -78.38c-14.94,0 -25.64,6.11 -32.24,18.34 -6.6,12.23 -9.87,32.38 -9.87,60.46 0,28.63 3.27,48.99 9.73,61.08 6.53,12.09 17.3,18.14 32.38,18.14 14.94,0 25.57,-6.05 32.03,-18.14 6.47,-12.09 9.66,-32.31 9.66,-60.67 0,-28.76 -3.19,-49.19 -9.66,-61.22 -6.46,-12.02 -17.09,-17.99 -32.03,-17.99zm231.34 183.45l0 -133.7c0,-20.36 -2.64,-34.26 -7.85,-41.76 -5.21,-7.58 -14.11,-11.33 -26.75,-11.33 -14.25,0 -24.6,5.28 -31.14,15.78 -6.46,10.49 -9.72,27.24 -9.72,50.17l0 120.84 -35.86 0 0 -176.23c0,-4.44 -0.14,-9.45 -0.49,-14.87 -0.35,-5.49 -0.83,-11.53 -1.53,-18.2l36.62 0 1.67 24.32c7.3,-10.15 15.43,-17.58 24.32,-22.31 8.9,-4.65 19.25,-7.02 31.07,-7.02 17.23,0 30.85,5.08 40.86,15.15 10.07,10.15 15.08,23.91 15.08,41.28l0 157.88 -36.28 0zm194.22 -186.3l0 -113.9 36.28 0 0 262.81c0,10.71 0.14,18.56 0.41,23.56 0.28,5 0.7,9.45 1.18,13.34l-35.44 0 -2.01 -20.22c-6.67,8.62 -14.04,15.01 -22.17,19.11 -8.13,4.1 -17.44,6.19 -27.86,6.19 -23.63,0 -41,-8.62 -52.12,-25.85 -11.12,-17.24 -16.68,-44.2 -16.68,-80.96 0,-38.36 5.56,-66.71 16.68,-85.06 11.12,-18.27 28.35,-27.44 51.7,-27.44 10.7,0 20.22,2.36 28.56,7.08 8.34,4.73 15.5,11.89 21.47,21.34zm-42.11 2.01c-13.41,0 -23.35,6.47 -29.88,19.39 -6.46,12.86 -9.73,32.73 -9.73,59.48 0,31.2 3.13,52.96 9.45,65.12 6.33,12.16 17.03,18.2 32.25,18.2 13.96,0 24.11,-6.46 30.5,-19.39 6.33,-12.85 9.52,-33.77 9.52,-62.75 0,-28.49 -3.33,-48.99 -9.93,-61.42 -6.68,-12.44 -17.38,-18.63 -32.18,-18.63zm119.73 79.22c0,-38.08 6.25,-65.74 18.83,-82.97 12.58,-17.23 32.52,-25.85 59.97,-25.85 27.52,0 47.53,8.55 59.84,25.71 12.37,17.17 18.55,45.03 18.55,83.53 0,38.5 -6.18,66.43 -18.62,83.73 -12.45,17.31 -32.32,25.92 -59.77,25.92 -27.73,0 -47.74,-8.61 -60.18,-25.92 -12.44,-17.3 -18.62,-45.37 -18.62,-84.15zm78.8 -78.38c-14.94,0 -25.64,6.11 -32.24,18.34 -6.6,12.23 -9.87,32.38 -9.87,60.46 0,28.63 3.27,48.99 9.73,61.08 6.53,12.09 17.3,18.14 32.38,18.14 14.94,0 25.57,-6.05 32.03,-18.14 6.47,-12.09 9.66,-32.31 9.66,-60.67 0,-28.76 -3.19,-49.19 -9.66,-61.22 -6.46,-12.02 -17.09,-17.99 -32.03,-17.99zm231.34 183.45l0 -133.7c0,-20.36 -2.64,-34.26 -7.85,-41.76 -5.21,-7.58 -14.11,-11.33 -26.75,-11.33 -14.25,0 -24.6,5.28 -31.14,15.78 -6.46,10.49 -9.72,27.24 -9.72,50.17l0 120.84 -35.86 0 0 -176.23c0,-4.44 -0.14,-9.45 -0.49,-14.87 -0.35,-5.49 -0.83,-11.53 -1.53,-18.2l36.62 0 1.67 24.32c7.3,-10.15 15.43,-17.58 24.32,-22.31 8.9,-4.65 19.25,-7.02 31.07,-7.02 17.23,0 30.85,5.08 40.86,15.15 10.07,10.15 15.08,23.91 15.08,41.28l0 157.88 -36.28 0z"/>
   </g>
  </g>
 </g>
</svg>
