<?xml version="1.0" encoding="UTF-8"?>
<!DOCTYPE svg PUBLIC "-//W3C//DTD SVG 1.1//EN" "http://www.w3.org/Graphics/SVG/1.1/DTD/svg11.dtd">
<!-- Creator: CorelDRAW 2021 (64-Bit) -->
<svg xmlns="http://www.w3.org/2000/svg" xml:space="preserve" version="1.1" style="shape-rendering:geometricPrecision; text-rendering:geometricPrecision; image-rendering:optimizeQuality; fill-rule:evenodd; clip-rule:evenodd"
viewBox="0 0 2451.36 3002.44"
 xmlns:xlink="http://www.w3.org/1999/xlink"
 xmlns:xodm="http://www.corel.com/coreldraw/odm/2003">
 <defs>
  <style type="text/css">
   <![CDATA[
    .fil0 {fill:#636363}
    .fil2 {fill:#A47929;fill-rule:nonzero}
    .fil1 {fill:#DBA237;fill-rule:nonzero}
   ]]>
  </style>
 </defs>
 <g id="Layer_x0020_1">
  <metadata id="CorelCorpID_0Corel-Layer"/>
  <g id="_1571770634112">
   <g>
    <path class="fil0" d="M1225.68 291.39l171.29 530.66 557.61 -1.07 -451.75 326.89 173.33 529.99 -450.49 -328.62 -450.49 328.62 143 -196.83 307.48 -224.3 307.48 224.3 -118.31 -361.75 308.34 -223.12 -380.6 0.73 -116.92 -605.5zm-277.16 856.47l-220.36 -251.71 92.12 0.17c-13.93,-23.88 -22.35,-48.87 -26.11,-74.79l-297.39 -0.57 451.75 326.89z"/>
    <g>
     <path class="fil1" d="M1005.61 767.68c15.76,96.65 20.23,187.65 15.01,273.81 98.32,68.95 219.05,91.11 402.96,48.7 -141.38,116.02 -284.72,157.33 -429.76,134.5 -39.52,167.73 -117.26,316.36 -218.63,453.17 39.92,-172.97 64.06,-340.1 65.55,-528.89 152.1,85.53 352.89,69.6 486.51,-16.61 -206.35,24.22 -479.06,-84.83 -505.2,-314.51 -13.36,-117.19 48.76,-163.93 113.53,-200.04 131.28,-73.18 206.97,-184.42 180.22,-342.73 -29.79,-176.33 -196.89,-295.12 -373.22,-265.33 217.65,-48.5 433.41,88.62 481.9,306.27 40.98,183.92 -50.32,370.64 -218.87,451.65zm-128.81 -461.29c54.86,0 99.33,44.47 99.33,99.33 0,54.86 -44.47,99.33 -99.33,99.33 -54.86,0 -99.33,-44.47 -99.33,-99.33 0,-54.86 44.47,-99.33 99.33,-99.33z"/>
     <path class="fil1" d="M1234.73 871.25c6.69,0.81 11.46,6.89 10.65,13.58 -0.81,6.69 -6.89,11.46 -13.58,10.65 -6.69,-0.81 -11.46,-6.89 -10.65,-13.58 0.81,-6.69 6.89,-11.46 13.58,-10.65zm2.31 -74.89c20.57,0 40.14,4.33 57.83,12.12 -8.47,-1.78 -17.25,-2.73 -26.25,-2.73 -70.03,0 -126.8,56.77 -126.8,126.8 0,70.03 56.77,126.8 126.8,126.8 30.08,0 57.7,-10.48 79.44,-27.98 -26.36,32.03 -66.3,52.45 -111.02,52.45 -79.38,0 -143.73,-64.35 -143.73,-143.73 0,-79.38 64.35,-143.73 143.73,-143.73zm-160.04 7.86c-16.42,-12.39 -34.65,-20.71 -53.47,-25.15 7.83,3.67 15.42,8.21 22.6,13.63 26.4,19.91 42.81,48.15 48.35,78.3 4.92,-10.13 10.88,-19.65 17.75,-28.43 -9.05,-14.42 -20.82,-27.48 -35.22,-38.35zm53.17 -24.39c12.4,0 22.45,10.05 22.45,22.45 0,12.41 -10.05,22.45 -22.45,22.45 -12.4,0 -22.45,-10.05 -22.45,-22.45 0,-12.4 10.05,-22.45 22.45,-22.45zm161.16 107.33c11.11,1.35 21.38,4.96 30.42,10.32 -4.46,-1.52 -9.13,-2.6 -13.99,-3.19 -37.79,-4.58 -72.13,22.35 -76.7,60.14 -4.57,37.79 22.35,72.13 60.14,76.7 16.23,1.96 31.82,-1.88 44.7,-9.91 -16.32,15.56 -39.21,23.97 -63.34,21.05 -42.84,-5.18 -73.36,-44.11 -68.17,-86.95 5.19,-42.84 44.11,-73.35 86.95,-68.17zm-86.87 -6.21c-8.06,-7.76 -17.35,-13.44 -27.21,-17.06 3.99,2.5 7.78,5.44 11.31,8.83 12.94,12.47 19.95,28.78 20.98,45.41 3.31,-5.14 7.15,-9.9 11.43,-14.18 -3.94,-8.38 -9.44,-16.19 -16.5,-23z"/>
    </g>
   </g>
   <path class="fil1" d="M378.25 2107.03l-108.71 0 0 -364.93c41.64,27.89 87.12,63.36 127.66,94.25 21.57,16.43 42.52,31.16 64.04,47.66 20.82,15.96 45.08,30.75 45.08,66.62l0 72.99c0,67.88 -59.54,83.41 -128.07,83.41zm-378.25 358.97c0,3.43 1.04,4.47 4.47,4.47l263.58 0c0.78,-3.34 1.49,-3.43 1.49,-7.45l0 -256.2 178.7 0c77.75,0 152.02,-9.2 207.89,-31.87 50.36,-20.44 101.86,-68.93 101.86,-137.93l0 -145.97c0,-29.49 -17.88,-68.01 -33.12,-83.05 -21.33,-21.05 -41.24,-33.88 -73.17,-44.49 -59.07,-19.64 -130.01,-27.37 -207.93,-27.37l-443.77 0 0 729.86zm1134.74 -726.88c8.99,0.75 101.24,71.56 116.14,81.94 19.21,13.4 38.89,27.69 57.84,41.94 19.72,14.82 37.49,26.12 37.49,60.81l0 40.22 256.14 0 0 -129.59c0,-59.55 -68.5,-82.12 -120.51,-92.46 -83.95,-16.69 -197.76,-14.78 -289.01,-14.78 -83.62,0 -174.24,3.39 -235.5,25.11 -65.97,23.39 -102.54,67.47 -102.54,156.62l0 411.1c0,164.57 214.45,157.89 378.25,157.89 98.74,0 170.31,0.03 251.05,-18.49 74.81,-17.16 122.04,-54.82 119.75,-148.34l-1.89 -89.36 -255.74 -0.01 0 131.08c0,40.91 -45.48,58.09 -86.37,58.09l-25.31 0c-43.13,0 -99.78,-18.96 -99.78,-61.07l0 -610.7zm848.83 0c8.93,0.74 103.16,73.82 119.43,84.61 18.88,12.52 40.68,28.48 58.87,42.4 23.13,17.7 33.16,27.97 33.16,68.12l0 29.79 251.67 0c3.43,0 4.47,-1.04 4.47,-4.47l0 -125.12c0,-119.54 -283.8,-107.25 -400.58,-107.25 -89.03,0 -172.13,2.6 -239.97,23.62 -67.58,20.94 -107.01,66.53 -107.01,155.12l0 411.1c0,54.21 12.44,76.91 42.06,102.41 78.02,67.19 262.39,58.45 368.95,58.45 93.8,0 190.99,-2.79 256.62,-30.8 87.85,-37.49 79.93,-89.37 79.93,-203.05l0 -22.34 -256.14 0 0 123.63c0,49.57 -40.72,65.54 -89.35,65.54l-23.83 0c-35.77,0 -98.29,-20.73 -98.29,-52.13l0 -619.63z"/>
   <g>
    <path class="fil2" d="M378.25 2107.03l-108.71 0 -0 0 30.99 22.79 108.71 0c68.53,0 128.07,-15.53 128.07,-83.41l0 -72.99c0,-35.88 -24.26,-50.67 -45.07,-66.62 -21.52,-16.49 -42.47,-31.23 -64.04,-47.66 -30.18,-23 -63.11,-48.53 -95.16,-71.6l0.75 0.56 0.27 0.21 1.03 0.77 0.73 0.55 0.3 0.22 1.03 0.77 0.7 0.53 0.32 0.24 1.02 0.77 0.68 0.51 0.34 0.26 1.03 0.77 0.66 0.5 0.36 0.27 1.03 0.77 0.63 0.48 0.39 0.3 1.02 0.77 0.61 0.46 0.41 0.31 1.02 0.78 0.59 0.44 0.43 0.33 1.02 0.78 0.56 0.42 0.46 0.35 1.02 0.78 0.54 0.41 0.48 0.36 1.02 0.77 0.51 0.39 0.5 0.38 1.02 0.77 0.49 0.37 0.52 0.4 1.01 0.77 0.47 0.36 0.55 0.42 1.01 0.77 0.44 0.34 0.57 0.43 1.01 0.77 0.42 0.32 0.59 0.45 1.01 0.77 0.4 0.3 0.62 0.47 1 0.77 0.37 0.29 0.64 0.48 1 0.77 0.35 0.27 0.66 0.5 1 0.77 0.32 0.25 0.68 0.52 1 0.76 0.3 0.23 0.7 0.54 1 0.76 0.28 0.21 0.72 0.55 1 0.76 0.25 0.19 0.74 0.57 0.99 0.76 0.23 0.17 0.76 0.58 0.99 0.76 0.21 0.16 0.78 0.6 0.99 0.75 1.97 1.51 0.16 0.13 0.82 0.63 0.98 0.75 0.14 0.11 0.84 0.64 0.98 0.75 0.11 0.09 0.87 0.66 0.97 0.75 0.09 0.07 0.89 0.67 0.97 0.74 0.07 0.05 0.9 0.69 0.97 0.74 0.05 0.03 0.92 0.7 1.93 1.47 0.96 0.73 0 0 1.01 0.76 0 0 1.01 0.76 0 0 1.01 0.76 0 0 1.01 0.76 0 0 1 0.76 0 0 1.01 0.75 0 0 1 0.75 0 0 1.01 0.75 0 0 1 0.75 0 0 1 0.75 0 0 1 0.75 0 0 1 0.74 1 0.74 0 0 1 0.74 0 0 1 0.74 1 0.74 0 0 1 0.74 0 0 1 0.74 1 0.74 1 0.74 1 0.74 1 0.73 0 0 1 0.73 0 0 1 0.73 0 0 0.99 0.73 0 0 1 0.73 1 0.73 1 0.73 0 0 0.99 0.73 1 0.73 0.99 0.73 0 0 0.99 0.73 1 0.73 0 0 0.99 0.73 1 0.73 0.99 0.73 1 0.73 0 0 0.99 0.73 0 0 0.99 0.73 1 0.73 0 0 0.99 0.73 0 0 0.99 0.73 1 0.74 1 0.74 1 0.74 0 0 1 0.74 1 0.74 0 0 1 0.74 1 0.74 0 0 1 0.74 0 0 1 0.74 0 0 1 0.74 0 0 1 0.74 0 0 1 0.75 0 0 1 0.75 0 0 1 0.75 0 0 1 0.75 0 0 1 0.75 0 0 1 0.76 0 0 1 0.76 0 0 1 0.76 0 0 1 0.76 0 0 1 0.76 0 0 1 0.77 0 0 0.97 0.74 0 0 0.98 0.74 0 0 0.98 0.74 0 0 0.99 0.74 0.99 0.74 0 0 0.99 0.74 0 0 0.99 0.74 0 0 0.99 0.75 0.99 0.75 0 0 0.99 0.75 0 0 0.99 0.75 0 0 0.99 0.76 0.99 0.76 0 0 0.98 0.77 0 0 0.98 0.78 0.98 0.78 0.97 0.79 0.97 0.8 0.96 0.8 0 0 0.95 0.81 0.95 0.82 0.94 0.83 0.93 0.84c0.62,0.56 1.23,1.13 1.83,1.71l0.9 0.87 0 0 0.88 0.88 0 0 0.87 0.89 0 0 0.86 0.9 0 0 0.84 0.92 0 0 0.83 0.93 0 0 0.82 0.95 0 0 0.8 0.96 0.79 0.98 0.77 0.99 0 0 0.75 1.01 0 0 0.73 1.02 0 0 0.72 1.04 0 0 0.7 1.06 0 0 0.67 1.08 0 0 0.66 1.1 0 0 0.64 1.12 0 0 0.62 1.13 0 0 0.59 1.16 0 0 0.57 1.17 0 0 0.55 1.2 0 0 0.52 1.22 0 0 0.5 1.24 0 0 0.47 1.26 0 0 0.44 1.29 0 0 0.42 1.31 0 0 0.39 1.33 0 0c0.25,0.9 0.49,1.81 0.7,2.75l0 0 0.31 1.41 0 0c0.19,0.95 0.37,1.92 0.52,2.9l0 0 0.22 1.49 0 0c0.4,3.01 0.62,6.18 0.62,9.55l0 72.99 -0 0c0,1.06 -0.01,2.11 -0.04,3.14l-0 0c-0.03,1.04 -0.07,2.06 -0.13,3.07l-0 0c-0.06,1.01 -0.12,2.01 -0.21,2.99l-0 0c-0.09,0.98 -0.18,1.96 -0.3,2.92l-0 0c-0.11,0.96 -0.24,1.91 -0.38,2.84l-0 0c-0.14,0.93 -0.29,1.86 -0.46,2.77l-0 0c-0.17,0.91 -0.34,1.81 -0.54,2.7l-0 0c-0.19,0.89 -0.4,1.76 -0.62,2.63l-0 0c-0.22,0.87 -0.45,1.72 -0.7,2.56l-0 0c-0.25,0.84 -0.5,1.68 -0.77,2.49l-0 0c-0.27,0.82 -0.55,1.63 -0.85,2.42l-0 0c-0.3,0.8 -0.6,1.58 -0.92,2.36l-0 0c-0.32,0.78 -0.65,1.54 -1,2.29l0 0c-0.34,0.75 -0.7,1.49 -1.07,2.22l-0 0c-0.37,0.73 -0.75,1.45 -1.14,2.16l-0 0c-0.39,0.71 -0.79,1.41 -1.21,2.09l-0 0c-0.41,0.68 -0.84,1.37 -1.28,2.03l-0 0c-0.44,0.67 -0.89,1.32 -1.35,1.97l0 0c-0.46,0.65 -0.93,1.28 -1.41,1.9l-0 0c-0.48,0.63 -0.97,1.24 -1.48,1.85l-0 0c-0.5,0.6 -1.01,1.2 -1.54,1.79l-0 0c-0.52,0.58 -1.06,1.16 -1.61,1.73l-0 0c-0.55,0.57 -1.1,1.12 -1.66,1.67l-0 0c-0.57,0.55 -1.14,1.08 -1.73,1.61l-0 0c-0.58,0.53 -1.18,1.04 -1.79,1.55l-0 0c-0.6,0.51 -1.22,1.01 -1.85,1.5 -0.63,0.49 -1.26,0.97 -1.9,1.45 -0.64,0.47 -1.3,0.93 -1.96,1.39 -0.66,0.46 -1.33,0.9 -2.02,1.34l0 0c-0.68,0.44 -1.37,0.86 -2.07,1.28l-0 0c-0.7,0.42 -1.41,0.83 -2.12,1.23 -0.72,0.4 -1.44,0.8 -2.17,1.18l0 0c-0.73,0.39 -1.48,0.76 -2.22,1.13 -0.75,0.37 -1.5,0.73 -2.27,1.08l-0 0c-0.76,0.35 -1.54,0.7 -2.32,1.04l-2.37 0.99c-0.8,0.32 -1.6,0.64 -2.41,0.95l-0 0 -2.45 0.9 0 0 -2.5 0.85 -0 0 -2.54 0.81 -2.58 0.77 -2.62 0.73 -2.66 0.68 0 0 -2.7 0.64 -2.74 0.6 -2.77 0.57 -2.8 0.53 -2.84 0.49 -2.87 0.45 -2.9 0.42 -2.93 0.38 -2.96 0.35 -2.98 0.32 -3.01 0.29 -3.03 0.25 -0 0 -3.06 0.23 -3.08 0.19 -3.1 0.16 -3.12 0.14 -3.14 0.11 -3.16 0.08 -3.18 0.06 -3.19 0.03 -3.2 0.01zm-108.71 -364.92l0 -0.01 1.12 0.76 0.38 0.25 0.75 0.51 0.38 0.25 0.38 0.25 0.91 0.61 0.22 0.15 0.38 0.26c2.52,1.71 5.05,3.44 7.58,5.19l0.38 0.26 0.38 0.26 0.38 0.26 0.38 0.26 0.16 0.11 0.22 0.15 0.38 0.27 0.38 0.26 0.38 0.26 0.38 0.27 0.76 0.53 0.38 0.27 0.38 0.27 0.39 0.27 0.32 0.22 0.06 0.05 0.38 0.27 0.38 0.27 0.39 0.27 0.38 0.27 0.39 0.27 0.01 0.01 0.37 0.26 0.39 0.27 0.38 0.27 0.39 0.27 0.39 0.27 0.09 0.07 0.29 0.21 0.39 0.27 0.39 0.27 0.38 0.27 0.56 0.39 0.21 0.15 0.39 0.27 0 0 180.86 0c77.91,0 148.85,7.73 207.92,27.37 13.69,4.55 25.17,9.52 35.5,15.35 -1.76,-1.6 -3.51,-3.16 -5.27,-4.66l-0.08 -0.06 -0.89 -0.76 -0.03 -0.03 -0.87 -0.72 -1.79 -1.47 -0.34 -0.28 -0.56 -0.44 -0.45 -0.36 -0.45 -0.35 -0.91 -0.71 -0.66 -0.52 -0.24 -0.18c-6.02,-4.62 -12.24,-8.75 -18.95,-12.51l-0.17 -0.09c-1.01,-0.57 -2.04,-1.13 -3.08,-1.68l-0.2 -0.11 -0.85 -0.44 -2.11 -1.08 -0.58 -0.29 -0.49 -0.24 -2.17 -1.05 -0.98 -0.47 -0.12 -0.05 -1.11 -0.52 -0.01 -0 -1.11 -0.5 -0.14 -0.07 -0.99 -0.44 -1.14 -0.5 -0.41 -0.18 -0.74 -0.32 -2.33 -0.98 -0.84 -0.35 -0.34 -0.14 -0.99 -0.4 -0.21 -0.08 -1.14 -0.45 -0.07 -0.02 -1.21 -0.48 -0.08 -0.03 -1.15 -0.44 -1.13 -0.43 -0.1 -0.04 -0.37 -0.14 -0.88 -0.33 -0.52 -0.19 -0.74 -0.27 -0.67 -0.24 -0.6 -0.22 -0.84 -0.3 -0.46 -0.16 -1 -0.35 -0.31 -0.1 -1.16 -0.4 -0.16 -0.05 -1.33 -0.45 -2.78 -0.91 -2.79 -0.9 -2.81 -0.88 -2.83 -0.86 0 -0 -2.85 -0.84 -2.86 -0.82 0 -0 -2.88 -0.81 0 -0c-2.89,-0.8 -5.8,-1.57 -8.74,-2.33 -2.94,-0.75 -5.9,-1.48 -8.88,-2.18l-0 0c-5.97,-1.4 -12.03,-2.71 -18.19,-3.92l0 -0c-5.13,-1.01 -10.33,-1.95 -15.59,-2.84l0 -0 -3.16 -0.52 0 -0 -3.18 -0.5 0 -0 -3.19 -0.49 0 -0 -3.2 -0.48 -3.22 -0.46 -3.23 -0.44 0 -0 -3.25 -0.43 0 -0 -3.26 -0.41 0 -0 -285.26 -0.35zm-14.79 16.83l14.79 -16.83 0 0 -14.79 16.83zm189.02 -22.79l-443.77 0 0 729.86 0 0.16 0 0.15 0 0 0 0.15 0 0 0 0.15 0 0 0 0.14 0 0 0 0.14 0 0 0.01 0.14 0 0 0.01 0.13 0 0 0.01 0.13 0 0 0.01 0.13 0 0 0.01 0.12 0 0 0.02 0.12 0 0 0.02 0.12 0 0 0.02 0.11 0 0 0.02 0.11 0 0 0.02 0.11 0 0 0.03 0.11 0.03 0.1 0.03 0.1 0 0 0.03 0.1 0 0 0.03 0.09 0 0 0.04 0.09 0 0 0.04 0.09 0 0 0.04 0.08 0 0 0.05 0.08 0 0 0.05 0.08 0 0 0.05 0.08 0.05 0.08 0 0 0.05 0.07 0 0 0.06 0.07 0 0 0.06 0.07 0.06 0.07 0.07 0.06 0.07 0.06 0 0 0.07 0.06 0.07 0.06 0.08 0.05 0.08 0.05 0 0 0.08 0.05 0.08 0.05 0 0 0.08 0.05 0 0 0.09 0.04 0 0 0.09 0.04 0.09 0.04 0 0 0.09 0.03 0 0 0.1 0.03 0 0 0.1 0.03 0 0 0.1 0.03 0 0 0.11 0.03 0 0 0.11 0.02 0 0 0.11 0.02 0 0 0.11 0.02 0 0 0.12 0.02 0.13 0.02 0.13 0.01 0.13 0.01 0.14 0.01 0.14 0.01 0 0 0.14 0.01 0 0 0.14 0.01 0 0 0.15 0.01 0 0 0.15 0 0.15 0 0 0 0.16 0 26.53 -25.6 0 -685.94 223.76 0 189.02 -22.79zm1134.75 508.38l23.42 -22.79 0 -0 -255.74 -0.01 0 131.08c0,0.64 -0.01,1.27 -0.03,1.9 -0.02,0.63 -0.06,1.25 -0.1,1.86l0 0c-0.05,0.62 -0.1,1.22 -0.16,1.83 -0.07,0.6 -0.14,1.2 -0.23,1.8 -0.09,0.59 -0.18,1.18 -0.29,1.76l0 0 -0.35 1.73c-0.13,0.57 -0.26,1.13 -0.41,1.69l0 0c-0.15,0.56 -0.3,1.11 -0.47,1.66l0 0c-0.17,0.55 -0.34,1.09 -0.52,1.63l-0.58 1.59 0 0c-0.2,0.52 -0.41,1.04 -0.64,1.56l0 0c-0.22,0.51 -0.45,1.03 -0.69,1.53l-0.74 1.49 -0.8 1.46 -0.84 1.43c-0.29,0.47 -0.58,0.93 -0.89,1.4l-0.95 1.36 0 0 -0.99 1.33 -1.04 1.3 -1.08 1.27 -1.13 1.24 -1.16 1.2 0 0 -1.21 1.17 -1.25 1.14 0 0 -1.29 1.11 0 0 -1.33 1.08 -1.36 1.05 -1.4 1.02 -1.44 0.99 -1.47 0.96 0 0 -1.5 0.92 0 0 -1.53 0.89 0 0 -1.56 0.87 -1.59 0.84 -1.62 0.81 -1.64 0.78 -1.67 0.75 0 0 -1.69 0.72 0 0 -1.71 0.69 -1.74 0.66 0 0 -1.76 0.63 0 0 -1.78 0.6 -1.79 0.58 -0 0c-1.2,0.38 -2.42,0.73 -3.64,1.07l-1.85 0.49c-1.23,0.32 -2.47,0.62 -3.73,0.9l-1.88 0.41 -1.89 0.38 -1.9 0.35 -0 0 -1.91 0.33 -1.92 0.3 -1.92 0.27 -0 0 -1.93 0.25 -0 0 -1.93 0.22 -0 0 -1.93 0.19 -0 0 -1.93 0.17 -0 0 -1.93 0.14 -0 0 -1.93 0.11 -0 0 -1.93 0.09 -0 0 -1.93 0.06 -0 0 -1.92 0.04 -0 0 -1.92 0.01 -0 0 -25.31 0 -0 0c-40.43,0 -92.72,-16.65 -99.12,-53.42l-0.01 -0c2.68,52.57 97.37,76.21 130.12,76.21l25.31 0c40.9,0 86.38,-17.18 86.38,-58.09l0 -131.08 201.33 0.01zm-201.33 -280.48l0 -17.43c0,-34.69 -17.78,-45.98 -37.49,-60.8 -1.2,-0.9 -3.45,-1.53 -6.53,-1.93l0.36 0.42 0 0 0.67 0.82 0 0 0.65 0.83 0 0 0.64 0.85 0.63 0.87 0 0 0.61 0.88 0 0 0.59 0.9 0 0 0.58 0.91 0.56 0.93 0.55 0.95 0.53 0.97 0.51 0.99 0 0 0.49 1.01 0 0 0.47 1.03 0 0 0.46 1.05 0.44 1.08 0.42 1.09 0 0 0.4 1.12 0.38 1.14 0 0 0.36 1.17 0 0 0.34 1.19 0.32 1.22 0.3 1.24 0 0 0.27 1.27 0 0 0.25 1.3 0 0 0.23 1.32 0 0 0.21 1.36 0 0 0.18 1.38 0.16 1.41 0 0 0.14 1.44 0 0 0.11 1.48 0 0 0.09 1.51 0 0 0.06 1.54 0 0 0.04 1.57 0 0 0.01 1.61 0 0 0 40.22 30.99 0zm-242.46 -224.91c0.14,0.01 0.3,0.04 0.48,0.09l0 0 0.56 0.17 0.03 0.01 0.02 0.01 0 0 0.53 0.21 0.16 0.07 0.03 0.01 0.2 0.09 0.21 0.09 0.22 0.1 0.17 0.08 0.05 0.02 0.23 0.11 0.23 0.12 0.24 0.12 0.18 0.09 0.06 0.03 0.25 0.13 0.26 0.14 0.27 0.15 0.19 0.1 0.08 0.05 0.28 0.16 0.29 0.16 0.3 0.17 0.19 0.11 0.11 0.07 0.31 0.18 0.31 0.18 0.32 0.19 0.32 0.19 0.33 0.2 0.33 0.2 0.34 0.21 0.19 0.11 0.16 0.1 0.35 0.22 1.09 0.68 0.38 0.24 0.38 0.24 0.39 0.24 0.17 0.11 0.22 0.14 0.4 0.25 0.4 0.26 0.01 0.01 0.81 0.52 0.41 0.27 0.85 0.56 0.14 0.09 0.29 0.19 0.43 0.29 0.44 0.29 0.44 0.3 0.13 0.08 0.32 0.22 0.46 0.3 0.46 0.31 0.46 0.31 0.11 0.07 0.35 0.24 0.47 0.32 0.47 0.32 0.48 0.32 0.09 0.06 0.39 0.27c22.98,-0.79 46.16,-1.05 68.83,-1.05 91.25,0 205.06,-1.91 289.01,14.78 22.94,4.56 49.07,11.5 71.14,22.94 -11.95,-13.02 -28.66,-22.7 -46.79,-30l-1.7 -0.68c-2.83,-1.11 -5.69,-2.16 -8.56,-3.16l-0.21 -0.07 -1.59 -0.55 -1.74 -0.58 -3.5 -1.13 -1.76 -0.55 -1.72 -0.53 -0.09 -0.03 -3.28 -0.97 -0.17 -0.05 -0.58 -0.17 -1.18 -0.33 -1.41 -0.4 -0.35 -0.09 -1.76 -0.48 -1.76 -0.47 -1.31 -0.34 -0.44 -0.11 -1.75 -0.44 -1.33 -0.33 -0.41 -0.1 -1.21 -0.3 -0.53 -0.13 -1.73 -0.42 -0.29 -0.07 -1.44 -0.34 -1.1 -0.25 -0.62 -0.14 -1.71 -0.39 -0.19 -0.04 -1.52 -0.34 -0.99 -0.22 -0.71 -0.15 -1.69 -0.36 -0.09 -0.02 -1.58 -0.33 -0.89 -0.18 -0.79 -0.16 -1.66 -0.33 -0 0 -3.95 -0.77 -0 0 -4 -0.74 -0 0 -4.04 -0.71 -0 0 -4.08 -0.69 -0 0 -4.12 -0.66 -0 0 -4.16 -0.64 -4.19 -0.62 -0 0 -4.23 -0.59 -0 0 -4.26 -0.57 -4.3 -0.55 -0 0 -4.32 -0.52 -0 0 -4.36 -0.5 -0 0 -4.39 -0.48 -4.42 -0.46 0 -0 -4.44 -0.43 -4.47 -0.42 -4.49 -0.4 -0 0 -4.52 -0.38 -4.54 -0.36 -4.56 -0.34 -4.58 -0.32 -0 -0 -4.6 -0.3 -0 0 -4.61 -0.29 -4.63 -0.27 -4.65 -0.26 -4.66 -0.24 -0 0 -4.67 -0.23 -4.68 -0.21 -0 -0 -4.69 -0.19 -4.7 -0.18 0 -0 -4.71 -0.17 0 -0 -4.72 -0.15 0 -0 -4.72 -0.14 0 -0 -4.73 -0.13 0 -0 -4.73 -0.12 0 -0 -4.73 -0.11 0 -0 -4.73 -0.1 -0 -0 -4.73 -0.09 0 -0 -4.73 -0.08 -4.72 -0.07 -0 0 -4.72 -0.06 0 -0 -4.72 -0.05 -0 -0 -4.71 -0.05 -0 -0 -4.7 -0.04 -0 -0 -4.69 -0.03 0 -0 -4.68 -0.02 -0 -0 -4.67 -0.02 -0 0 -4.66 -0.02 0 -0 -4.64 -0.01 -0 0 -4.63 -0.01 -0 -0 -4.61 -0 -13.73 0 0 0c-15.15,0.01 -29.95,0.06 -44.23,0.06 -6.53,0 -13.11,0.02 -19.71,0.07l0 0c-7.92,0.06 -15.88,0.15 -23.84,0.3l0 0 -3.98 0.08 0 0c-3.98,0.08 -7.97,0.18 -11.95,0.29l0 0 -7.95 0.24 0 0 -3.97 0.14 0 0 -3.97 0.15 0 0 -3.96 0.16 0 0 -3.96 0.17 0 0 -3.95 0.18 0 0 -3.94 0.19 0 0 -3.93 0.21 0 0 -3.92 0.22 -3.91 0.24 0 0 -3.9 0.25 0 0 -3.89 0.26 0 0 -3.87 0.27 0 0 -3.86 0.29 0 0 -3.84 0.31 -3.83 0.32 0 0 -3.81 0.34 0 0 -3.8 0.35 0 0 -3.78 0.37 -3.76 0.39 0 0 -3.74 0.41 0 0 -3.72 0.42 -3.69 0.44 -0 0 -3.67 0.46 -3.65 0.48 0 0 -3.63 0.5 0 0 -3.6 0.52 -3.58 0.54 0 0 -3.55 0.56 -3.52 0.58 -3.5 0.6 -0 0 -3.47 0.62 -3.44 0.64 -0 0 -3.4 0.66 -0 0 -3.38 0.68 -3.34 0.71 -0 0 -3.31 0.73 -3.28 0.75 -3.24 0.78 -0 0c-2.15,0.53 -4.27,1.07 -6.37,1.63l-0 0 -3.13 0.85 -0 0 -3.09 0.88 -0 0 -3.06 0.9 -0 0c-4.05,1.22 -7.98,2.51 -11.82,3.86 -2.06,0.73 -4.09,1.48 -6.1,2.25l-0 0c-6.01,2.31 -11.76,4.82 -17.25,7.53l0 0 -2.72 1.37 -0 0 -2.67 1.41 0 0c-0.88,0.48 -1.76,0.95 -2.63,1.44l0 0c-0.87,0.49 -1.73,0.98 -2.59,1.48l0 0c-0.86,0.5 -1.7,1 -2.54,1.52l0 0 -2.5 1.55 0 0c-0.82,0.52 -1.64,1.05 -2.45,1.59l-2.41 1.63 -2.36 1.67c-0.78,0.56 -1.55,1.14 -2.31,1.71l-0 0c-0.76,0.58 -1.52,1.16 -2.27,1.75l-2.22 1.79c-0.73,0.6 -1.46,1.22 -2.18,1.84l-2.13 1.88c-0.7,0.63 -1.4,1.27 -2.08,1.92l0 0c-0.68,0.65 -1.37,1.3 -2.03,1.96 -0.67,0.66 -1.33,1.33 -1.99,2.01 -0.65,0.67 -1.3,1.36 -1.94,2.05l-0 0c-0.64,0.69 -1.27,1.39 -1.89,2.1 -0.62,0.71 -1.24,1.42 -1.85,2.14 -0.61,0.72 -1.21,1.45 -1.8,2.19 -0.59,0.74 -1.17,1.48 -1.75,2.23 -0.58,0.75 -1.14,1.51 -1.7,2.28 -0.56,0.77 -1.11,1.54 -1.65,2.33 -0.54,0.78 -1.08,1.57 -1.61,2.37l0 0c-0.53,0.8 -1.05,1.61 -1.56,2.42 -0.51,0.82 -1.01,1.64 -1.51,2.47l-1.46 2.52c-0.48,0.85 -0.95,1.71 -1.41,2.58 -0.46,0.87 -0.92,1.74 -1.36,2.62l-1.31 2.68c-0.43,0.9 -0.85,1.81 -1.26,2.73 -0.41,0.92 -0.82,1.85 -1.21,2.78 -0.4,0.93 -0.79,1.88 -1.16,2.83 -0.38,0.95 -0.75,1.92 -1.11,2.89l-0 0 -1.06 2.94 -0 0c-0.35,0.99 -0.68,1.98 -1.01,3 -0.33,1.01 -0.65,2.03 -0.96,3.06 -0.31,1.03 -0.62,2.06 -0.91,3.11 -0.3,1.05 -0.58,2.1 -0.86,3.17l-0 0c-0.28,1.06 -0.55,2.14 -0.81,3.22l-0.76 3.28 -0.71 3.34 -0.66 3.4 -0.6 3.45 -0.55 3.52c-0.17,1.18 -0.35,2.37 -0.5,3.58 -0.16,1.2 -0.31,2.41 -0.45,3.64 -0.14,1.22 -0.27,2.46 -0.4,3.7 -0.13,1.24 -0.24,2.5 -0.34,3.76l-0.29 3.82 -0.24 3.89c-0.07,1.31 -0.14,2.62 -0.19,3.95l-0.13 4.01 -0.08 4.08 -0.03 4.15 0 411.1 0 0c0,2.52 0.06,5 0.15,7.44l0.01 0.24c0.1,2.37 0.25,4.69 0.44,6.98l0.04 0.47c0.19,2.26 0.44,4.48 0.72,6.67l0.06 0.46c0.29,2.15 0.61,4.26 0.98,6.35l0.11 0.62c0.37,2.05 0.78,4.06 1.23,6.04l0.15 0.62c0.46,1.97 0.95,3.9 1.48,5.81l0.17 0.59c0.51,1.8 1.06,3.57 1.64,5.31l0.31 0.93c0.58,1.7 1.21,3.38 1.85,5.04l0.31 0.79c0.65,1.63 1.35,3.24 2.06,4.82l0.49 1.08c0.7,1.51 1.44,3 2.19,4.46l0.59 1.13c0.77,1.44 1.56,2.86 2.38,4.26l0.66 1.11c0.74,1.23 1.51,2.45 2.29,3.65l1.14 1.7c0.74,1.08 1.49,2.16 2.27,3.22l1.21 1.62c0.76,1 1.54,2 2.34,2.98l1.49 1.81c0.76,0.9 1.53,1.79 2.32,2.67 0.62,0.69 1.25,1.38 1.89,2.06 0.7,0.74 1.4,1.47 2.11,2.2 0.72,0.73 1.44,1.44 2.18,2.15l1.89 1.79c0.87,0.81 1.76,1.61 2.66,2.4l1.6 1.38c1.1,0.93 2.21,1.85 3.34,2.76l1.46 1.15c1.03,0.8 2.08,1.6 3.14,2.37l0.01 0.01 1.75 1.27 0.04 0.03c1.09,0.78 2.2,1.54 3.32,2.29l0.97 0.64c3.39,2.24 6.88,4.38 10.5,6.4 -23.2,-22.6 -36.98,-53.28 -36.98,-94.96l0 -411.1c0,-89.14 36.57,-133.23 102.53,-156.62 39.76,-14.09 91.89,-20.46 146.44,-23.19l0 -12.78zm1293.01 505.39l23.41 -22.79 0 -0 -255.73 0 0 131.07c0,18.77 -9.57,32.54 -23.88,41.95 -11.18,7.91 -25.65,12.53 -41.89,14.67 -6.84,0.99 -13.79,1.47 -20.6,1.47l-1.11 0 -2.27 0.01 -23.83 0c-29.49,0 -77.15,-14.09 -92.98,-36.64 19.13,40.84 96.84,59.42 125.87,59.42l25.31 0c40.9,0 86.37,-17.18 86.37,-58.09l0 -131.08 201.33 0.01zm-269.95 -381.48l0.14 -0.03c19.73,14.82 37.49,26.12 37.49,60.81l0 40.22 30.99 0 0 -17.43c0,-34.69 -17.77,-45.98 -37.49,-60.81 -1.3,-0.98 -3.84,-1.62 -7.31,-2.02 -5.04,-6.05 -11.58,-11.39 -19.76,-17.65l-4.06 -3.1zm-173.84 -123.92c2.27,0.19 9.89,4.88 20.24,11.93 22.98,-0.79 46.17,-1.05 68.84,-1.05 91.25,0 205.06,-1.91 289.01,14.78 22.29,4.43 47.61,11.12 69.27,21.99 -25.56,-26.25 -73.28,-41.13 -127.92,-49.49 -74.1,-10.72 -164.79,-10.24 -242.5,-10.1l-10.32 0.03c-87.54,0 -169.33,2.51 -236.54,22.58 -2.54,0.81 -5.05,1.65 -7.5,2.52 -65.96,23.39 -102.53,67.48 -102.53,156.62l0 411.1c0,47.57 17.94,80.82 47.39,104.07 6.03,4.63 12.59,8.87 19.63,12.75 -22.63,-22.51 -36.03,-52.92 -36.03,-94.03l0 -411.1c0,-89.14 36.57,-133.23 102.53,-156.62 39.67,-14.05 91.63,-20.43 146.04,-23.17l0 -12.79c0.12,0.01 0.26,0.04 0.4,0.07l0 -0.08zm-1445.68 1.47l0 -0 -3.34 -0.33 0 -0 -3.35 -0.32 0 -0 -3.37 -0.3 0 -0 -3.38 -0.29 0 -0 -3.39 -0.28 0 -0 -3.41 -0.26 -0 -0 -3.42 -0.25 0 -0 -3.43 -0.23 -0 -0 -3.44 -0.22 0 -0 -3.46 -0.21 0 -0 -3.47 -0.19 -0 -0 -3.48 -0.18 0 -0 -3.49 -0.17 -0 -0 -3.5 -0.16 0 -0 -3.51 -0.14 0 -0 -3.53 -0.14 0 -0 -3.54 -0.12 0 -0 -3.55 -0.11 -0 -0 -3.56 -0.09 0 -0 -3.57 -0.09 0 -0 -3.58 -0.07 0 -0 -3.59 -0.06 0 -0 -3.6 -0.05 -0 -0 -3.61 -0.03 -0 -0 -3.62 -0.02 -0 -0 -3.64 -0.01 -0 -0 -3.64 -0 94.52 4.44zm596.45 -1.46c0.14,0.01 0.31,0.04 0.48,0.09l-0.48 -0.09z"/>
   </g>
   <g id="_1571770634496">
    <path class="fil0" d="M3.21 2916.73l63.88 0 0 -128.63 85.57 0 0 -57.17 -85.57 0 0 -66.42 128.55 0 0 -56.34 -192.43 0 0 308.56zm306.4 -210.19c-0.06,-2.52 0.07,-5.75 0.26,-9.6 0.26,-3.92 0.92,-8.06 1.97,-12.4 1.12,-4.34 2.9,-8.48 5.32,-12.33 2.5,-3.85 5.99,-7.01 10.39,-9.39 4.47,-2.45 10.19,-3.71 17.15,-3.78 8.28,0.07 14.79,1.54 19.39,4.41 4.6,2.87 7.96,6.59 9.93,11.28 2.03,4.69 3.28,9.81 3.68,15.34 0.46,5.54 0.59,11 0.52,16.46l0 107.2c0.07,4.34 -0.07,9.04 -0.26,14.01 -0.26,4.97 -0.86,9.87 -1.91,14.78 -1.05,4.91 -2.82,9.32 -5.26,13.31 -2.43,4.07 -5.79,7.29 -10.12,9.67 -4.34,2.38 -9.92,3.64 -16.76,3.71 -9.33,-0.07 -16.56,-2.45 -21.49,-7.22 -4.99,-4.69 -8.41,-11.21 -10.25,-19.48 -1.78,-8.33 -2.7,-17.93 -2.57,-28.79l0 -107.2zm-64.67 93.33c0,4.62 0.13,10.36 0.52,17.23 0.4,6.93 1.12,14.29 2.23,22.14 1.05,7.85 2.62,15.42 4.73,22.84 2.96,10.37 7.04,19.27 12.16,26.56 5.19,7.36 10.98,13.39 17.48,18.15 6.51,4.77 13.28,8.48 20.31,11.14 7.04,2.73 13.94,4.55 20.77,5.68 6.77,1.05 13.08,1.61 18.8,1.54 4.73,0.07 10.19,-0.21 16.5,-0.91 6.31,-0.63 13.01,-1.96 20.11,-4.07 7.04,-2.03 14.07,-5.11 21.1,-9.24 6.96,-4.07 13.54,-9.6 19.58,-16.46 6.04,-6.94 10.84,-14.79 14.52,-23.61 3.62,-8.76 6.25,-18.78 7.89,-29.98 1.65,-11.28 2.43,-24.11 2.43,-38.47l0 -74.83c0,-16.46 -0.99,-30.69 -2.96,-42.67 -1.96,-12.05 -4.8,-22.28 -8.54,-30.83 -3.74,-8.55 -8.35,-15.84 -13.73,-21.93 -6.44,-7.35 -13.74,-13.24 -21.76,-17.65 -8.02,-4.34 -16.63,-7.49 -25.76,-9.38 -9.13,-1.89 -18.67,-2.87 -28.59,-2.8 -9.13,-0.07 -18.07,0.91 -26.88,2.87 -8.81,1.96 -17.09,5.04 -24.85,9.39 -7.75,4.34 -14.72,10.01 -20.83,17.16 -6.64,7.84 -11.82,16.4 -15.44,25.57 -3.68,9.18 -6.25,18.78 -7.69,28.87 -1.45,10.02 -2.17,20.32 -2.1,30.9l0 82.82zm268.54 7.98c-0.07,7 0.14,14.29 0.66,22 0.46,7.71 1.58,15.49 3.41,23.47 1.84,7.92 4.73,15.77 8.75,23.55 4.01,7.71 9.46,15.13 16.36,22.21 5.98,5.88 13.21,10.72 21.69,14.5 8.48,3.79 17.62,6.58 27.48,8.41 9.86,1.82 19.91,2.74 30.1,2.74 13.28,0.07 25.96,-1.69 38.05,-5.33 12.1,-3.65 23.2,-9.67 33.33,-18.22 5.92,-5.18 10.71,-10.93 14.46,-17.3 3.81,-6.31 6.77,-12.9 8.87,-19.69 2.11,-6.73 3.68,-13.39 4.6,-19.9 0.98,-6.44 1.51,-12.47 1.77,-17.94 0.2,-5.47 0.33,-10.09 0.26,-13.87l0 -204.31 -64.28 0 0 203.89c-0.07,11.21 -1.05,20.39 -3.02,27.46 -1.97,7.15 -4.6,12.76 -7.75,16.68 -3.15,3.99 -6.57,6.86 -10.25,8.62 -3.68,1.68 -7.23,2.73 -10.65,3.15 -3.48,0.35 -6.44,0.49 -8.94,0.42 -7.75,-0.07 -14.14,-1.47 -19.06,-4.13 -4.93,-2.66 -8.81,-6.17 -11.57,-10.51 -2.76,-4.34 -4.73,-9.04 -5.92,-14.15 -1.18,-5.05 -1.9,-10.09 -2.17,-14.93 -0.26,-4.9 -0.39,-9.25 -0.32,-13.03l0 -203.46 -65.86 0 0 199.68zm285.12 108.88l58.37 0 0 -144.61c0,-1.68 -0.07,-4.34 -0.21,-8.06 -0.07,-3.64 -0.19,-7.85 -0.39,-12.54 -0.13,-4.7 -0.33,-9.39 -0.52,-14.16 -0.19,-4.69 -0.33,-8.97 -0.53,-12.75 -0.13,-3.78 -0.26,-6.58 -0.33,-8.4l1.98 0c2.95,7.43 5.45,13.59 7.42,18.49 1.98,4.9 3.55,8.89 4.87,12.05 1.32,3.16 2.43,5.82 3.35,7.92 0.92,2.1 1.9,4.13 2.83,6.02 0.92,1.89 1.97,4 3.22,6.38l76.9 149.65 52.06 0 0 -308.56 -58.36 0 0 114.77c0,2.87 0,5.39 0,7.49 0.06,2.17 0.06,4.41 0.13,6.66 0.06,2.31 0.19,5.12 0.4,8.41 0.13,3.3 0.39,7.57 0.65,12.75l1.57 31.11 -1.97 0c-0.4,-0.84 -1.05,-2.31 -1.9,-4.55 -0.79,-2.18 -1.65,-4.41 -2.5,-6.66 -0.86,-2.24 -1.45,-3.85 -1.91,-4.76 -1.38,-3.23 -3.02,-6.73 -4.8,-10.51 -1.71,-3.78 -3.42,-7.29 -5.06,-10.51l-74.53 -144.19 -60.73 0 0 308.56zm278.8 0c12.03,0 23.4,0 34.17,0 10.78,0 20.58,-0.07 29.31,-0.14 8.74,0 16.04,-0.07 21.89,-0.21 5.91,-0.14 9.85,-0.28 12.03,-0.49 7.69,-0.63 14.98,-1.47 21.75,-2.45 6.77,-0.98 13.47,-2.45 19.98,-4.48 6.57,-2.03 13.28,-4.9 20.18,-8.62 7.96,-4.34 14.53,-9.81 19.72,-16.33 5.19,-6.44 9.27,-13.66 12.16,-21.58 2.95,-7.99 5.06,-16.33 6.25,-25.02 1.18,-8.69 1.77,-17.45 1.71,-26.2l0.4 -52.55c0,-13.8 -0.21,-25.92 -0.59,-36.22 -0.4,-10.37 -1.05,-19.34 -1.91,-26.98 -0.86,-7.64 -1.91,-14.3 -3.28,-19.9 -1.39,-5.61 -3.02,-10.65 -4.94,-15.06 -1.91,-4.41 -4.14,-8.55 -6.64,-12.4 -4.01,-6.44 -8.87,-12.12 -14.52,-17.09 -5.72,-4.91 -12.75,-9.11 -21.23,-12.47 -8.41,-3.43 -18.86,-6.03 -31.29,-7.71 -12.42,-1.75 -27.41,-2.67 -44.96,-2.67l-70.19 0 0 308.56zm64.67 -253.91c8.41,-0.07 15.77,0.07 21.96,0.29 6.24,0.28 11.56,0.91 16.17,2.1 4.54,1.12 8.61,2.94 12.09,5.61 3.49,2.59 6.71,6.24 9.73,10.93 3.22,5.04 5.65,11.28 7.16,18.64 1.51,7.43 2.49,16.04 2.89,25.85 0.46,9.87 0.65,20.95 0.59,33.28 0,3.57 -0.07,7.64 -0.2,12.12 -0.13,4.55 -0.26,9.04 -0.39,13.59 -0.13,4.48 -0.2,8.55 -0.2,12.12 0,11.77 -0.98,21.58 -2.89,29.42 -1.91,7.85 -4.53,14.16 -7.89,18.85 -3.35,4.7 -7.23,8.13 -11.63,10.51 -4.34,2.31 -9.08,3.78 -14,4.55 -5,0.7 -10.05,1.05 -15.24,0.98l-18.14 0 0 -198.84zm318.24 139.98l-65.07 0 31.54 -139.56 1.58 0 31.95 139.56zm-71.38 -194.63l-81.63 308.56 61.91 0 14.98 -61.37 88.72 0 14.59 61.37 61.91 0 -83.61 -308.56 -76.9 0zm169.57 0l0 56.34 73.74 0 0 252.22 66.25 0 0 -252.22 72.17 0 0 -56.34 -212.16 0zm369.11 308.56l0 -28.16 -34.31 0 0 -253.49 34.31 0 0 -26.91 -132.11 0 0 26.91 33.91 0 0 254.33 -33.91 0 0 27.32 132.11 0zm107.26 -210.19c-0.07,-2.52 0.07,-5.75 0.26,-9.6 0.26,-3.92 0.92,-8.06 1.97,-12.4 1.12,-4.34 2.89,-8.48 5.32,-12.33 2.5,-3.85 5.99,-7.01 10.39,-9.39 4.47,-2.45 10.19,-3.71 17.15,-3.78 8.28,0.07 14.79,1.54 19.39,4.41 4.6,2.87 7.95,6.59 9.92,11.28 2.04,4.69 3.29,9.81 3.68,15.34 0.46,5.54 0.59,11 0.52,16.46l0 107.2c0.07,4.34 -0.06,9.04 -0.26,14.01 -0.26,4.97 -0.86,9.87 -1.91,14.78 -1.05,4.91 -2.83,9.32 -5.26,13.31 -2.43,4.07 -5.79,7.29 -10.12,9.67 -4.34,2.38 -9.92,3.64 -16.77,3.71 -9.32,-0.07 -16.56,-2.45 -21.49,-7.22 -4.99,-4.69 -8.41,-11.21 -10.25,-19.48 -1.78,-8.33 -2.7,-17.93 -2.57,-28.79l0 -107.2zm-64.67 93.33c0,4.62 0.14,10.36 0.52,17.23 0.4,6.93 1.12,14.29 2.24,22.14 1.05,7.85 2.62,15.42 4.73,22.84 2.96,10.37 7.03,19.27 12.15,26.56 5.19,7.36 10.98,13.39 17.49,18.15 6.5,4.77 13.27,8.48 20.31,11.14 7.03,2.73 13.93,4.55 20.77,5.68 6.77,1.05 13.08,1.61 18.8,1.54 4.73,0.07 10.18,-0.21 16.49,-0.91 6.31,-0.63 13.01,-1.96 20.11,-4.07 7.03,-2.03 14.07,-5.11 21.09,-9.24 6.97,-4.07 13.54,-9.6 19.59,-16.46 6.04,-6.94 10.84,-14.79 14.52,-23.61 3.62,-8.76 6.25,-18.78 7.89,-29.98 1.64,-11.28 2.43,-24.11 2.43,-38.47l0 -74.83c0,-16.46 -0.99,-30.69 -2.96,-42.67 -1.97,-12.05 -4.8,-22.28 -8.54,-30.83 -3.75,-8.55 -8.35,-15.84 -13.74,-21.93 -6.44,-7.35 -13.73,-13.24 -21.75,-17.65 -8.02,-4.34 -16.63,-7.49 -25.76,-9.38 -9.13,-1.89 -18.67,-2.87 -28.6,-2.8 -9.13,-0.07 -18.07,0.91 -26.87,2.87 -8.81,1.96 -17.09,5.04 -24.85,9.39 -7.75,4.34 -14.72,10.01 -20.83,17.16 -6.64,7.84 -11.83,16.4 -15.45,25.57 -3.68,9.18 -6.25,18.78 -7.69,28.87 -1.45,10.02 -2.17,20.32 -2.11,30.9l0 82.82zm268.95 116.86l58.36 0 0 -144.61c0,-1.68 -0.06,-4.34 -0.2,-8.06 -0.07,-3.64 -0.19,-7.85 -0.39,-12.54 -0.13,-4.7 -0.33,-9.39 -0.52,-14.16 -0.2,-4.69 -0.33,-8.97 -0.52,-12.75 -0.14,-3.78 -0.26,-6.58 -0.33,-8.4l1.97 0c2.95,7.43 5.45,13.59 7.42,18.49 1.98,4.9 3.55,8.89 4.87,12.05 1.31,3.16 2.43,5.82 3.35,7.92 0.92,2.1 1.9,4.13 2.83,6.02 0.92,1.89 1.97,4 3.22,6.38l76.9 149.65 52.06 0 0 -308.56 -58.37 0 0 114.77c0,2.87 0,5.39 0,7.49 0.07,2.17 0.07,4.41 0.13,6.66 0.06,2.31 0.2,5.12 0.4,8.41 0.13,3.3 0.39,7.57 0.65,12.75l1.57 31.11 -1.97 0c-0.39,-0.84 -1.05,-2.31 -1.9,-4.55 -0.79,-2.18 -1.64,-4.41 -2.5,-6.66 -0.86,-2.24 -1.45,-3.85 -1.91,-4.76 -1.38,-3.23 -3.02,-6.73 -4.8,-10.51 -1.71,-3.78 -3.42,-7.29 -5.06,-10.51l-74.53 -144.19 -60.73 0 0 308.56z"/>
    <path class="fil0" d="M0.84 2524.99l2449.67 0 0 33.18 -2449.67 0 0 -33.18zm0 444.27l2449.67 0 0 33.18 -2449.67 0 0 -33.18z"/>
   </g>
  </g>
 </g>
</svg>
